<svg width="591" height="223" viewBox="0 0 591 223" fill="none" xmlns="http://www.w3.org/2000/svg">
<rect x="2" y="2" width="587" height="219" rx="26" fill="#F8FBFF"/>
<rect x="2" y="2" width="587" height="219" rx="26" stroke="url(#paint0_linear_1377_9343)" stroke-width="4" stroke-linejoin="round"/>
<path d="M198.932 62.34C197.323 62.34 195.883 62.0567 194.614 61.49C193.367 60.9007 192.313 60.0507 191.452 58.94L193.628 56.764C194.149 57.5573 194.863 58.192 195.77 58.668C196.699 59.1213 197.731 59.348 198.864 59.348C199.929 59.348 200.859 59.144 201.652 58.736C202.468 58.328 203.103 57.7613 203.556 57.036C204.032 56.288 204.27 55.404 204.27 54.384C204.27 53.3413 204.043 52.4573 203.59 51.732C203.137 51.0067 202.525 50.4627 201.754 50.1C201.006 49.7147 200.179 49.522 199.272 49.522C198.343 49.522 197.493 49.6353 196.722 49.862C195.974 50.0887 195.26 50.474 194.58 51.018L194.614 48.978C194.999 48.502 195.441 48.1167 195.94 47.822C196.439 47.5273 197.005 47.3007 197.64 47.142C198.275 46.9833 199.011 46.904 199.85 46.904C201.482 46.904 202.865 47.244 203.998 47.924C205.131 48.604 205.993 49.522 206.582 50.678C207.194 51.834 207.5 53.126 207.5 54.554C207.5 56.05 207.126 57.3873 206.378 58.566C205.653 59.7447 204.644 60.674 203.352 61.354C202.06 62.0113 200.587 62.34 198.932 62.34ZM194.58 51.018L192.846 49.284L193.9 38.404H196.824L195.634 49.59L194.58 51.018ZM194.546 41.26L193.9 38.404H206.31V41.26H194.546ZM225.317 62.34C223.458 62.34 221.871 62 220.557 61.32C219.242 60.64 218.075 59.654 217.055 58.362L219.231 56.186C219.979 57.2287 220.84 58.022 221.815 58.566C222.789 59.0873 223.991 59.348 225.419 59.348C226.824 59.348 227.946 59.042 228.785 58.43C229.646 57.818 230.077 56.9793 230.077 55.914C230.077 55.03 229.873 54.316 229.465 53.772C229.057 53.228 228.501 52.786 227.799 52.446C227.119 52.0833 226.371 51.766 225.555 51.494C224.739 51.1993 223.923 50.8933 223.107 50.576C222.291 50.236 221.543 49.828 220.863 49.352C220.183 48.8533 219.627 48.2073 219.197 47.414C218.789 46.6207 218.585 45.6233 218.585 44.422C218.585 43.0847 218.902 41.9513 219.537 41.022C220.194 40.07 221.078 39.3447 222.189 38.846C223.322 38.3247 224.591 38.064 225.997 38.064C227.538 38.064 228.921 38.37 230.145 38.982C231.369 39.5713 232.366 40.3533 233.137 41.328L230.961 43.504C230.258 42.688 229.499 42.076 228.683 41.668C227.889 41.26 226.971 41.056 225.929 41.056C224.659 41.056 223.651 41.3393 222.903 41.906C222.155 42.45 221.781 43.2207 221.781 44.218C221.781 45.0113 221.985 45.6573 222.393 46.156C222.823 46.632 223.379 47.04 224.059 47.38C224.739 47.72 225.487 48.0373 226.303 48.332C227.141 48.604 227.969 48.91 228.785 49.25C229.601 49.59 230.349 50.0207 231.029 50.542C231.709 51.0633 232.253 51.7433 232.661 52.582C233.091 53.398 233.307 54.4293 233.307 55.676C233.307 57.7613 232.581 59.3933 231.131 60.572C229.703 61.7507 227.765 62.34 225.317 62.34ZM239.552 62V39.084H242.612V62H239.552ZM235.574 48.638V45.85H246.59V48.638H235.574ZM255.958 62.34C254.484 62.34 253.147 61.9773 251.946 61.252C250.744 60.504 249.792 59.4953 249.09 58.226C248.41 56.9567 248.07 55.5287 248.07 53.942C248.07 52.3553 248.41 50.9273 249.09 49.658C249.792 48.3887 250.733 47.38 251.912 46.632C253.113 45.884 254.462 45.51 255.958 45.51C257.182 45.51 258.27 45.7707 259.222 46.292C260.196 46.7907 260.978 47.4933 261.568 48.4C262.157 49.284 262.486 50.3153 262.554 51.494V56.356C262.486 57.512 262.157 58.5433 261.568 59.45C261.001 60.3567 260.23 61.0707 259.256 61.592C258.304 62.0907 257.204 62.34 255.958 62.34ZM256.468 59.45C257.986 59.45 259.21 58.94 260.14 57.92C261.069 56.8773 261.534 55.5513 261.534 53.942C261.534 52.8313 261.318 51.868 260.888 51.052C260.48 50.2133 259.89 49.5673 259.12 49.114C258.349 48.638 257.454 48.4 256.434 48.4C255.414 48.4 254.507 48.638 253.714 49.114C252.943 49.59 252.331 50.2473 251.878 51.086C251.447 51.902 251.232 52.8427 251.232 53.908C251.232 54.996 251.447 55.9593 251.878 56.798C252.331 57.614 252.954 58.26 253.748 58.736C254.541 59.212 255.448 59.45 256.468 59.45ZM261.33 62V57.648L261.908 53.704L261.33 49.794V45.85H264.424V62H261.33ZM268.879 62V45.85H271.939V62H268.879ZM271.939 52.786L270.783 52.276C270.783 50.2133 271.259 48.57 272.211 47.346C273.163 46.122 274.534 45.51 276.325 45.51C277.141 45.51 277.877 45.6573 278.535 45.952C279.192 46.224 279.804 46.6887 280.371 47.346L278.365 49.42C278.025 49.0573 277.651 48.7967 277.243 48.638C276.835 48.4793 276.359 48.4 275.815 48.4C274.681 48.4 273.752 48.7627 273.027 49.488C272.301 50.2133 271.939 51.3127 271.939 52.786ZM287.294 62.34C286.387 62.34 285.526 62.2267 284.71 62C283.917 61.7507 283.18 61.4107 282.5 60.98C281.82 60.5267 281.231 59.994 280.732 59.382L282.704 57.41C283.293 58.1353 283.973 58.6793 284.744 59.042C285.515 59.382 286.376 59.552 287.328 59.552C288.28 59.552 289.017 59.3933 289.538 59.076C290.059 58.736 290.32 58.2713 290.32 57.682C290.32 57.0927 290.105 56.6393 289.674 56.322C289.266 55.982 288.733 55.71 288.076 55.506C287.419 55.2793 286.716 55.064 285.968 54.86C285.243 54.6333 284.551 54.35 283.894 54.01C283.237 53.67 282.693 53.2053 282.262 52.616C281.854 52.0267 281.65 51.2447 281.65 50.27C281.65 49.2953 281.888 48.4567 282.364 47.754C282.84 47.0287 283.497 46.4733 284.336 46.088C285.197 45.7027 286.229 45.51 287.43 45.51C288.699 45.51 289.821 45.7367 290.796 46.19C291.793 46.6207 292.609 47.278 293.244 48.162L291.272 50.134C290.819 49.5447 290.252 49.0913 289.572 48.774C288.915 48.4567 288.167 48.298 287.328 48.298C286.444 48.298 285.764 48.4567 285.288 48.774C284.835 49.0687 284.608 49.488 284.608 50.032C284.608 50.576 284.812 50.9953 285.22 51.29C285.628 51.5847 286.161 51.834 286.818 52.038C287.498 52.242 288.201 52.4573 288.926 52.684C289.651 52.888 290.343 53.1713 291 53.534C291.657 53.8967 292.19 54.384 292.598 54.996C293.029 55.608 293.244 56.4127 293.244 57.41C293.244 58.9287 292.7 60.13 291.612 61.014C290.547 61.898 289.107 62.34 287.294 62.34ZM306.428 51.732V49.046H312.82C314.203 49.046 315.268 48.6947 316.016 47.992C316.764 47.2893 317.138 46.3373 317.138 45.136C317.138 44.0027 316.764 43.062 316.016 42.314C315.291 41.566 314.237 41.192 312.854 41.192H306.428V38.404H312.956C314.452 38.404 315.755 38.6987 316.866 39.288C317.977 39.8547 318.827 40.6367 319.416 41.634C320.028 42.6313 320.334 43.776 320.334 45.068C320.334 46.4053 320.028 47.5727 319.416 48.57C318.827 49.5673 317.977 50.3493 316.866 50.916C315.755 51.46 314.452 51.732 312.956 51.732H306.428ZM304.286 62V38.404H307.482V62H304.286ZM317.886 62L309.318 51.426L312.344 50.372L321.932 62H317.886ZM331.03 62.34C329.557 62.34 328.219 61.9773 327.018 61.252C325.817 60.504 324.865 59.4953 324.162 58.226C323.482 56.9567 323.142 55.5287 323.142 53.942C323.142 52.3553 323.482 50.9273 324.162 49.658C324.865 48.3887 325.805 47.38 326.984 46.632C328.185 45.884 329.534 45.51 331.03 45.51C332.254 45.51 333.342 45.7707 334.294 46.292C335.269 46.7907 336.051 47.4933 336.64 48.4C337.229 49.284 337.558 50.3153 337.626 51.494V56.356C337.558 57.512 337.229 58.5433 336.64 59.45C336.073 60.3567 335.303 61.0707 334.328 61.592C333.376 62.0907 332.277 62.34 331.03 62.34ZM331.54 59.45C333.059 59.45 334.283 58.94 335.212 57.92C336.141 56.8773 336.606 55.5513 336.606 53.942C336.606 52.8313 336.391 51.868 335.96 51.052C335.552 50.2133 334.963 49.5673 334.192 49.114C333.421 48.638 332.526 48.4 331.506 48.4C330.486 48.4 329.579 48.638 328.786 49.114C328.015 49.59 327.403 50.2473 326.95 51.086C326.519 51.902 326.304 52.8427 326.304 53.908C326.304 54.996 326.519 55.9593 326.95 56.798C327.403 57.614 328.027 58.26 328.82 58.736C329.613 59.212 330.52 59.45 331.54 59.45ZM336.402 62V57.648L336.98 53.704L336.402 49.794V45.85H339.496V62H336.402ZM346.367 62V39.084H349.427V62H346.367ZM342.389 48.638V45.85H353.405V48.638H342.389ZM356.436 62V45.85H359.496V62H356.436ZM357.966 42.62C357.4 42.62 356.935 42.4387 356.572 42.076C356.21 41.6907 356.028 41.2147 356.028 40.648C356.028 40.104 356.21 39.6507 356.572 39.288C356.935 38.9027 357.4 38.71 357.966 38.71C358.533 38.71 358.998 38.9027 359.36 39.288C359.723 39.6507 359.904 40.104 359.904 40.648C359.904 41.2147 359.723 41.6907 359.36 42.076C358.998 42.4387 358.533 42.62 357.966 42.62ZM375.43 62V52.582C375.43 51.358 375.044 50.3493 374.274 49.556C373.503 48.7627 372.506 48.366 371.282 48.366C370.466 48.366 369.74 48.5473 369.106 48.91C368.471 49.2727 367.972 49.7713 367.61 50.406C367.247 51.0407 367.066 51.766 367.066 52.582L365.808 51.868C365.808 50.644 366.08 49.556 366.624 48.604C367.168 47.652 367.927 46.904 368.902 46.36C369.876 45.7933 370.976 45.51 372.2 45.51C373.424 45.51 374.5 45.816 375.43 46.428C376.382 47.04 377.13 47.8447 377.674 48.842C378.218 49.8167 378.49 50.8593 378.49 51.97V62H375.43ZM364.006 62V45.85H367.066V62H364.006ZM389.331 69.106C387.676 69.106 386.203 68.8 384.911 68.188C383.641 67.576 382.621 66.7147 381.851 65.604L383.823 63.598C384.48 64.4367 385.262 65.0713 386.169 65.502C387.075 65.9553 388.152 66.182 389.399 66.182C391.053 66.182 392.357 65.74 393.309 64.856C394.283 63.9947 394.771 62.8273 394.771 61.354V57.342L395.315 53.704L394.771 50.1V45.85H397.831V61.354C397.831 62.8953 397.468 64.244 396.743 65.4C396.04 66.556 395.043 67.4627 393.751 68.12C392.481 68.7773 391.008 69.106 389.331 69.106ZM389.331 61.728C387.857 61.728 386.531 61.3767 385.353 60.674C384.197 59.9713 383.279 59.008 382.599 57.784C381.919 56.5373 381.579 55.1433 381.579 53.602C381.579 52.0607 381.919 50.6893 382.599 49.488C383.279 48.264 384.197 47.3007 385.353 46.598C386.531 45.8727 387.857 45.51 389.331 45.51C390.6 45.51 391.722 45.7593 392.697 46.258C393.671 46.7567 394.442 47.4593 395.009 48.366C395.598 49.25 395.915 50.2927 395.961 51.494V55.778C395.893 56.9567 395.564 57.9993 394.975 58.906C394.408 59.79 393.637 60.4813 392.663 60.98C391.688 61.4787 390.577 61.728 389.331 61.728ZM389.943 58.838C390.94 58.838 391.813 58.6227 392.561 58.192C393.331 57.7613 393.921 57.1607 394.329 56.39C394.737 55.5967 394.941 54.6787 394.941 53.636C394.941 52.5933 394.725 51.6867 394.295 50.916C393.887 50.1227 393.309 49.5107 392.561 49.08C391.813 48.6267 390.929 48.4 389.909 48.4C388.889 48.4 387.993 48.6267 387.223 49.08C386.452 49.5107 385.84 50.1227 385.387 50.916C384.956 51.6867 384.741 52.582 384.741 53.602C384.741 54.622 384.956 55.5287 385.387 56.322C385.84 57.1153 386.452 57.7387 387.223 58.192C388.016 58.6227 388.923 58.838 389.943 58.838Z" fill="url(#paint1_linear_1377_9343)"/>
<path d="M142.647 87.7812C143.545 85.0172 147.455 85.0172 148.353 87.7812L152.123 99.384C152.525 100.62 153.677 101.457 154.976 101.457H167.176C170.082 101.457 171.291 105.176 168.94 106.884L159.07 114.055C158.018 114.819 157.578 116.173 157.98 117.409L161.75 129.012C162.648 131.776 159.484 134.074 157.133 132.366L147.263 125.195C146.212 124.431 144.788 124.431 143.737 125.195L133.867 132.366C131.516 134.074 128.352 131.776 129.25 129.012L133.02 117.409C133.422 116.173 132.982 114.819 131.93 114.055L122.06 106.884C119.709 105.176 120.918 101.457 123.824 101.457H136.024C137.323 101.457 138.475 100.62 138.877 99.384L142.647 87.7812Z" fill="#FFD900"/>
<path d="M217.647 87.7812C218.545 85.0172 222.455 85.0172 223.353 87.7812L227.123 99.384C227.525 100.62 228.677 101.457 229.976 101.457H242.176C245.082 101.457 246.291 105.176 243.94 106.884L234.07 114.055C233.018 114.819 232.578 116.173 232.98 117.409L236.75 129.012C237.648 131.776 234.484 134.074 232.133 132.366L222.263 125.195C221.212 124.431 219.788 124.431 218.737 125.195L208.867 132.366C206.516 134.074 203.352 131.776 204.25 129.012L208.02 117.409C208.422 116.173 207.982 114.819 206.93 114.055L197.06 106.884C194.709 105.176 195.918 101.457 198.824 101.457H211.024C212.323 101.457 213.475 100.62 213.877 99.384L217.647 87.7812Z" fill="#FFD900"/>
<path d="M292.647 87.7812C293.545 85.0172 297.455 85.0172 298.353 87.7812L302.123 99.384C302.525 100.62 303.677 101.457 304.976 101.457H317.176C320.082 101.457 321.291 105.176 318.94 106.884L309.07 114.055C308.018 114.819 307.578 116.173 307.98 117.409L311.75 129.012C312.648 131.776 309.484 134.074 307.133 132.366L297.263 125.195C296.212 124.431 294.788 124.431 293.737 125.195L283.867 132.366C281.516 134.074 278.352 131.776 279.25 129.012L283.02 117.409C283.422 116.173 282.982 114.819 281.93 114.055L272.06 106.884C269.709 105.176 270.918 101.457 273.824 101.457H286.024C287.323 101.457 288.475 100.62 288.877 99.384L292.647 87.7812Z" fill="#FFD900"/>
<path d="M367.647 87.7812C368.545 85.0172 372.455 85.0172 373.353 87.7812L377.123 99.384C377.525 100.62 378.677 101.457 379.976 101.457H392.176C395.082 101.457 396.291 105.176 393.94 106.884L384.07 114.055C383.018 114.819 382.578 116.173 382.98 117.409L386.75 129.012C387.648 131.776 384.484 134.074 382.133 132.366L372.263 125.195C371.212 124.431 369.788 124.431 368.737 125.195L358.867 132.366C356.516 134.074 353.352 131.776 354.25 129.012L358.02 117.409C358.422 116.173 357.982 114.819 356.93 114.055L347.06 106.884C344.709 105.176 345.918 101.457 348.824 101.457H361.024C362.323 101.457 363.475 100.62 363.877 99.384L367.647 87.7812Z" fill="#FFD900"/>
<path d="M442.647 87.7812C443.545 85.0172 447.455 85.0172 448.353 87.7812L452.123 99.384C452.525 100.62 453.677 101.457 454.976 101.457H467.176C470.082 101.457 471.291 105.176 468.94 106.884L459.07 114.055C458.018 114.819 457.578 116.173 457.98 117.409L461.75 129.012C462.648 131.776 459.484 134.074 457.133 132.366L447.263 125.195C446.212 124.431 444.788 124.431 443.737 125.195L433.867 132.366C431.516 134.074 428.352 131.776 429.25 129.012L433.02 117.409C433.422 116.173 432.982 114.819 431.93 114.055L422.06 106.884C419.709 105.176 420.918 101.457 423.824 101.457H436.024C437.323 101.457 438.475 100.62 438.877 99.384L442.647 87.7812Z" fill="#FFD900"/>
<path d="M217.122 177.874L225.724 162.404H229.328L220.556 177.874H217.122ZM217.122 179.846V177.874L218.482 176.99H235.21V179.846H217.122ZM228.648 186V170.394H231.81V186H228.648ZM240.874 186V162.404H244.036V186H240.874ZM236.046 165.26V162.404H243.696V165.26H236.046ZM258.782 175.732V173.046H265.174C266.556 173.046 267.622 172.695 268.37 171.992C269.118 171.289 269.492 170.337 269.492 169.136C269.492 168.003 269.118 167.062 268.37 166.314C267.644 165.566 266.59 165.192 265.208 165.192H258.782V162.404H265.31C266.806 162.404 268.109 162.699 269.22 163.288C270.33 163.855 271.18 164.637 271.77 165.634C272.382 166.631 272.688 167.776 272.688 169.068C272.688 170.405 272.382 171.573 271.77 172.57C271.18 173.567 270.33 174.349 269.22 174.916C268.109 175.46 266.806 175.732 265.31 175.732H258.782ZM256.64 186V162.404H259.836V186H256.64ZM270.24 186L261.672 175.426L264.698 174.372L274.286 186H270.24ZM283.995 186.34C282.386 186.34 280.935 185.977 279.643 185.252C278.351 184.504 277.331 183.495 276.583 182.226C275.835 180.957 275.461 179.517 275.461 177.908C275.461 176.321 275.824 174.893 276.549 173.624C277.297 172.355 278.295 171.357 279.541 170.632C280.811 169.884 282.227 169.51 283.791 169.51C285.287 169.51 286.602 169.85 287.735 170.53C288.891 171.21 289.787 172.151 290.421 173.352C291.079 174.553 291.407 175.913 291.407 177.432C291.407 177.659 291.396 177.908 291.373 178.18C291.351 178.429 291.305 178.724 291.237 179.064H277.603V176.514H289.605L288.483 177.5C288.483 176.412 288.291 175.494 287.905 174.746C287.52 173.975 286.976 173.386 286.273 172.978C285.571 172.547 284.721 172.332 283.723 172.332C282.681 172.332 281.763 172.559 280.969 173.012C280.176 173.465 279.564 174.1 279.133 174.916C278.703 175.732 278.487 176.695 278.487 177.806C278.487 178.939 278.714 179.937 279.167 180.798C279.621 181.637 280.267 182.294 281.105 182.77C281.944 183.223 282.907 183.45 283.995 183.45C284.902 183.45 285.729 183.291 286.477 182.974C287.248 182.657 287.905 182.181 288.449 181.546L290.421 183.552C289.651 184.459 288.699 185.15 287.565 185.626C286.455 186.102 285.265 186.34 283.995 186.34ZM300.02 186L292.608 169.85H296.008L301.958 183.484H299.986L305.97 169.85H309.234L301.822 186H300.02ZM311.878 186V169.85H314.938V186H311.878ZM313.408 166.62C312.841 166.62 312.376 166.439 312.014 166.076C311.651 165.691 311.47 165.215 311.47 164.648C311.47 164.104 311.651 163.651 312.014 163.288C312.376 162.903 312.841 162.71 313.408 162.71C313.974 162.71 314.439 162.903 314.802 163.288C315.164 163.651 315.346 164.104 315.346 164.648C315.346 165.215 315.164 165.691 314.802 166.076C314.439 166.439 313.974 166.62 313.408 166.62ZM326.927 186.34C325.318 186.34 323.867 185.977 322.575 185.252C321.283 184.504 320.263 183.495 319.515 182.226C318.767 180.957 318.393 179.517 318.393 177.908C318.393 176.321 318.756 174.893 319.481 173.624C320.229 172.355 321.226 171.357 322.473 170.632C323.742 169.884 325.159 169.51 326.723 169.51C328.219 169.51 329.534 169.85 330.667 170.53C331.823 171.21 332.718 172.151 333.353 173.352C334.01 174.553 334.339 175.913 334.339 177.432C334.339 177.659 334.328 177.908 334.305 178.18C334.282 178.429 334.237 178.724 334.169 179.064H320.535V176.514H332.537L331.415 177.5C331.415 176.412 331.222 175.494 330.837 174.746C330.452 173.975 329.908 173.386 329.205 172.978C328.502 172.547 327.652 172.332 326.655 172.332C325.612 172.332 324.694 172.559 323.901 173.012C323.108 173.465 322.496 174.1 322.065 174.916C321.634 175.732 321.419 176.695 321.419 177.806C321.419 178.939 321.646 179.937 322.099 180.798C322.552 181.637 323.198 182.294 324.037 182.77C324.876 183.223 325.839 183.45 326.927 183.45C327.834 183.45 328.661 183.291 329.409 182.974C330.18 182.657 330.837 182.181 331.381 181.546L333.353 183.552C332.582 184.459 331.63 185.15 330.497 185.626C329.386 186.102 328.196 186.34 326.927 186.34ZM342.1 186L335.708 169.85H338.904L343.528 182.43H342.508L347.098 169.85H348.866L353.456 182.43H352.436L357.06 169.85H360.256L353.898 186H352.096L347.438 173.794H348.56L343.868 186H342.1ZM367.712 186.34C366.805 186.34 365.944 186.227 365.128 186C364.335 185.751 363.598 185.411 362.918 184.98C362.238 184.527 361.649 183.994 361.15 183.382L363.122 181.41C363.711 182.135 364.391 182.679 365.162 183.042C365.933 183.382 366.794 183.552 367.746 183.552C368.698 183.552 369.435 183.393 369.956 183.076C370.477 182.736 370.738 182.271 370.738 181.682C370.738 181.093 370.523 180.639 370.092 180.322C369.684 179.982 369.151 179.71 368.494 179.506C367.837 179.279 367.134 179.064 366.386 178.86C365.661 178.633 364.969 178.35 364.312 178.01C363.655 177.67 363.111 177.205 362.68 176.616C362.272 176.027 362.068 175.245 362.068 174.27C362.068 173.295 362.306 172.457 362.782 171.754C363.258 171.029 363.915 170.473 364.754 170.088C365.615 169.703 366.647 169.51 367.848 169.51C369.117 169.51 370.239 169.737 371.214 170.19C372.211 170.621 373.027 171.278 373.662 172.162L371.69 174.134C371.237 173.545 370.67 173.091 369.99 172.774C369.333 172.457 368.585 172.298 367.746 172.298C366.862 172.298 366.182 172.457 365.706 172.774C365.253 173.069 365.026 173.488 365.026 174.032C365.026 174.576 365.23 174.995 365.638 175.29C366.046 175.585 366.579 175.834 367.236 176.038C367.916 176.242 368.619 176.457 369.344 176.684C370.069 176.888 370.761 177.171 371.418 177.534C372.075 177.897 372.608 178.384 373.016 178.996C373.447 179.608 373.662 180.413 373.662 181.41C373.662 182.929 373.118 184.13 372.03 185.014C370.965 185.898 369.525 186.34 367.712 186.34Z" fill="url(#paint2_linear_1377_9343)"/>
<defs>
<linearGradient id="paint0_linear_1377_9343" x1="587" y1="111.5" x2="4" y2="111.5" gradientUnits="userSpaceOnUse">
<stop stop-color="#2E245D"/>
<stop offset="1" stop-color="#604CC3"/>
</linearGradient>
<linearGradient id="paint1_linear_1377_9343" x1="400.5" y1="49.5" x2="190.5" y2="49.5" gradientUnits="userSpaceOnUse">
<stop stop-color="#2E245D"/>
<stop offset="1" stop-color="#604CC3"/>
</linearGradient>
<linearGradient id="paint2_linear_1377_9343" x1="375" y1="173.5" x2="216" y2="173.5" gradientUnits="userSpaceOnUse">
<stop stop-color="#2E245D"/>
<stop offset="1" stop-color="#604CC3"/>
</linearGradient>
</defs>
</svg>
