<svg width="591" height="223" viewBox="0 0 591 223" fill="none" xmlns="http://www.w3.org/2000/svg">
<rect x="2" y="2.00488" width="587" height="219" rx="26" fill="#F8FBFF"/>
<rect x="2" y="2.00488" width="587" height="219" rx="26" stroke="url(#paint0_linear_678_5999)" stroke-width="4" stroke-linejoin="round" stroke-dasharray="100 100"/>
<path d="M198.932 62.3449C197.323 62.3449 195.883 62.0615 194.614 61.4949C193.367 60.9055 192.313 60.0555 191.452 58.9449L193.628 56.7689C194.149 57.5622 194.863 58.1969 195.77 58.6729C196.699 59.1262 197.731 59.3529 198.864 59.3529C199.929 59.3529 200.859 59.1489 201.652 58.7409C202.468 58.3329 203.103 57.7662 203.556 57.0409C204.032 56.2929 204.27 55.4089 204.27 54.3889C204.27 53.3462 204.043 52.4622 203.59 51.7369C203.137 51.0115 202.525 50.4675 201.754 50.1049C201.006 49.7195 200.179 49.5269 199.272 49.5269C198.343 49.5269 197.493 49.6402 196.722 49.8669C195.974 50.0935 195.26 50.4789 194.58 51.0229L194.614 48.9829C194.999 48.5069 195.441 48.1215 195.94 47.8269C196.439 47.5322 197.005 47.3055 197.64 47.1469C198.275 46.9882 199.011 46.9089 199.85 46.9089C201.482 46.9089 202.865 47.2489 203.998 47.9289C205.131 48.6089 205.993 49.5269 206.582 50.6829C207.194 51.8389 207.5 53.1309 207.5 54.5589C207.5 56.0549 207.126 57.3922 206.378 58.5709C205.653 59.7495 204.644 60.6789 203.352 61.3589C202.06 62.0162 200.587 62.3449 198.932 62.3449ZM194.58 51.0229L192.846 49.2889L193.9 38.4089H196.824L195.634 49.5949L194.58 51.0229ZM194.546 41.2649L193.9 38.4089H206.31V41.2649H194.546ZM225.317 62.3449C223.458 62.3449 221.871 62.0049 220.557 61.3249C219.242 60.6449 218.075 59.6589 217.055 58.3669L219.231 56.1909C219.979 57.2335 220.84 58.0269 221.815 58.5709C222.789 59.0922 223.991 59.3529 225.419 59.3529C226.824 59.3529 227.946 59.0469 228.785 58.4349C229.646 57.8229 230.077 56.9842 230.077 55.9189C230.077 55.0349 229.873 54.3209 229.465 53.7769C229.057 53.2329 228.501 52.7909 227.799 52.4509C227.119 52.0882 226.371 51.7709 225.555 51.4989C224.739 51.2042 223.923 50.8982 223.107 50.5809C222.291 50.2409 221.543 49.8329 220.863 49.3569C220.183 48.8582 219.627 48.2122 219.197 47.4189C218.789 46.6255 218.585 45.6282 218.585 44.4269C218.585 43.0895 218.902 41.9562 219.537 41.0269C220.194 40.0749 221.078 39.3495 222.189 38.8509C223.322 38.3295 224.591 38.0689 225.997 38.0689C227.538 38.0689 228.921 38.3749 230.145 38.9869C231.369 39.5762 232.366 40.3582 233.137 41.3329L230.961 43.5089C230.258 42.6929 229.499 42.0809 228.683 41.6729C227.889 41.2649 226.971 41.0609 225.929 41.0609C224.659 41.0609 223.651 41.3442 222.903 41.9109C222.155 42.4549 221.781 43.2255 221.781 44.2229C221.781 45.0162 221.985 45.6622 222.393 46.1609C222.823 46.6369 223.379 47.0449 224.059 47.3849C224.739 47.7249 225.487 48.0422 226.303 48.3369C227.141 48.6089 227.969 48.9149 228.785 49.2549C229.601 49.5949 230.349 50.0255 231.029 50.5469C231.709 51.0682 232.253 51.7482 232.661 52.5869C233.091 53.4029 233.307 54.4342 233.307 55.6809C233.307 57.7662 232.581 59.3982 231.131 60.5769C229.703 61.7555 227.765 62.3449 225.317 62.3449ZM239.552 62.0049V39.0889H242.612V62.0049H239.552ZM235.574 48.6429V45.8549H246.59V48.6429H235.574ZM255.958 62.3449C254.484 62.3449 253.147 61.9822 251.946 61.2569C250.744 60.5089 249.792 59.5002 249.09 58.2309C248.41 56.9615 248.07 55.5335 248.07 53.9469C248.07 52.3602 248.41 50.9322 249.09 49.6629C249.792 48.3935 250.733 47.3849 251.912 46.6369C253.113 45.8889 254.462 45.5149 255.958 45.5149C257.182 45.5149 258.27 45.7755 259.222 46.2969C260.196 46.7955 260.978 47.4982 261.568 48.4049C262.157 49.2889 262.486 50.3202 262.554 51.4989V56.3609C262.486 57.5169 262.157 58.5482 261.568 59.4549C261.001 60.3615 260.23 61.0755 259.256 61.5969C258.304 62.0955 257.204 62.3449 255.958 62.3449ZM256.468 59.4549C257.986 59.4549 259.21 58.9449 260.14 57.9249C261.069 56.8822 261.534 55.5562 261.534 53.9469C261.534 52.8362 261.318 51.8729 260.888 51.0569C260.48 50.2182 259.89 49.5722 259.12 49.1189C258.349 48.6429 257.454 48.4049 256.434 48.4049C255.414 48.4049 254.507 48.6429 253.714 49.1189C252.943 49.5949 252.331 50.2522 251.878 51.0909C251.447 51.9069 251.232 52.8475 251.232 53.9129C251.232 55.0009 251.447 55.9642 251.878 56.8029C252.331 57.6189 252.954 58.2649 253.748 58.7409C254.541 59.2169 255.448 59.4549 256.468 59.4549ZM261.33 62.0049V57.6529L261.908 53.7089L261.33 49.7989V45.8549H264.424V62.0049H261.33ZM268.879 62.0049V45.8549H271.939V62.0049H268.879ZM271.939 52.7909L270.783 52.2809C270.783 50.2182 271.259 48.5749 272.211 47.3509C273.163 46.1269 274.534 45.5149 276.325 45.5149C277.141 45.5149 277.877 45.6622 278.535 45.9569C279.192 46.2289 279.804 46.6935 280.371 47.3509L278.365 49.4249C278.025 49.0622 277.651 48.8015 277.243 48.6429C276.835 48.4842 276.359 48.4049 275.815 48.4049C274.681 48.4049 273.752 48.7675 273.027 49.4929C272.301 50.2182 271.939 51.3175 271.939 52.7909ZM287.294 62.3449C286.387 62.3449 285.526 62.2315 284.71 62.0049C283.917 61.7555 283.18 61.4155 282.5 60.9849C281.82 60.5315 281.231 59.9989 280.732 59.3869L282.704 57.4149C283.293 58.1402 283.973 58.6842 284.744 59.0469C285.515 59.3869 286.376 59.5569 287.328 59.5569C288.28 59.5569 289.017 59.3982 289.538 59.0809C290.059 58.7409 290.32 58.2762 290.32 57.6869C290.32 57.0975 290.105 56.6442 289.674 56.3269C289.266 55.9869 288.733 55.7149 288.076 55.5109C287.419 55.2842 286.716 55.0689 285.968 54.8649C285.243 54.6382 284.551 54.3549 283.894 54.0149C283.237 53.6749 282.693 53.2102 282.262 52.6209C281.854 52.0315 281.65 51.2495 281.65 50.2749C281.65 49.3002 281.888 48.4615 282.364 47.7589C282.84 47.0335 283.497 46.4782 284.336 46.0929C285.197 45.7075 286.229 45.5149 287.43 45.5149C288.699 45.5149 289.821 45.7415 290.796 46.1949C291.793 46.6255 292.609 47.2829 293.244 48.1669L291.272 50.1389C290.819 49.5495 290.252 49.0962 289.572 48.7789C288.915 48.4615 288.167 48.3029 287.328 48.3029C286.444 48.3029 285.764 48.4615 285.288 48.7789C284.835 49.0735 284.608 49.4929 284.608 50.0369C284.608 50.5809 284.812 51.0002 285.22 51.2949C285.628 51.5895 286.161 51.8389 286.818 52.0429C287.498 52.2469 288.201 52.4622 288.926 52.6889C289.651 52.8929 290.343 53.1762 291 53.5389C291.657 53.9015 292.19 54.3889 292.598 55.0009C293.029 55.6129 293.244 56.4175 293.244 57.4149C293.244 58.9335 292.7 60.1349 291.612 61.0189C290.547 61.9029 289.107 62.3449 287.294 62.3449ZM306.428 51.7369V49.0509H312.82C314.203 49.0509 315.268 48.6995 316.016 47.9969C316.764 47.2942 317.138 46.3422 317.138 45.1409C317.138 44.0075 316.764 43.0669 316.016 42.3189C315.291 41.5709 314.237 41.1969 312.854 41.1969H306.428V38.4089H312.956C314.452 38.4089 315.755 38.7035 316.866 39.2929C317.977 39.8595 318.827 40.6415 319.416 41.6389C320.028 42.6362 320.334 43.7809 320.334 45.0729C320.334 46.4102 320.028 47.5775 319.416 48.5749C318.827 49.5722 317.977 50.3542 316.866 50.9209C315.755 51.4649 314.452 51.7369 312.956 51.7369H306.428ZM304.286 62.0049V38.4089H307.482V62.0049H304.286ZM317.886 62.0049L309.318 51.4309L312.344 50.3769L321.932 62.0049H317.886ZM331.03 62.3449C329.557 62.3449 328.219 61.9822 327.018 61.2569C325.817 60.5089 324.865 59.5002 324.162 58.2309C323.482 56.9615 323.142 55.5335 323.142 53.9469C323.142 52.3602 323.482 50.9322 324.162 49.6629C324.865 48.3935 325.805 47.3849 326.984 46.6369C328.185 45.8889 329.534 45.5149 331.03 45.5149C332.254 45.5149 333.342 45.7755 334.294 46.2969C335.269 46.7955 336.051 47.4982 336.64 48.4049C337.229 49.2889 337.558 50.3202 337.626 51.4989V56.3609C337.558 57.5169 337.229 58.5482 336.64 59.4549C336.073 60.3615 335.303 61.0755 334.328 61.5969C333.376 62.0955 332.277 62.3449 331.03 62.3449ZM331.54 59.4549C333.059 59.4549 334.283 58.9449 335.212 57.9249C336.141 56.8822 336.606 55.5562 336.606 53.9469C336.606 52.8362 336.391 51.8729 335.96 51.0569C335.552 50.2182 334.963 49.5722 334.192 49.1189C333.421 48.6429 332.526 48.4049 331.506 48.4049C330.486 48.4049 329.579 48.6429 328.786 49.1189C328.015 49.5949 327.403 50.2522 326.95 51.0909C326.519 51.9069 326.304 52.8475 326.304 53.9129C326.304 55.0009 326.519 55.9642 326.95 56.8029C327.403 57.6189 328.027 58.2649 328.82 58.7409C329.613 59.2169 330.52 59.4549 331.54 59.4549ZM336.402 62.0049V57.6529L336.98 53.7089L336.402 49.7989V45.8549H339.496V62.0049H336.402ZM346.367 62.0049V39.0889H349.427V62.0049H346.367ZM342.389 48.6429V45.8549H353.405V48.6429H342.389ZM356.436 62.0049V45.8549H359.496V62.0049H356.436ZM357.966 42.6249C357.4 42.6249 356.935 42.4435 356.572 42.0809C356.21 41.6955 356.028 41.2195 356.028 40.6529C356.028 40.1089 356.21 39.6555 356.572 39.2929C356.935 38.9075 357.4 38.7149 357.966 38.7149C358.533 38.7149 358.998 38.9075 359.36 39.2929C359.723 39.6555 359.904 40.1089 359.904 40.6529C359.904 41.2195 359.723 41.6955 359.36 42.0809C358.998 42.4435 358.533 42.6249 357.966 42.6249ZM375.43 62.0049V52.5869C375.43 51.3629 375.044 50.3542 374.274 49.5609C373.503 48.7675 372.506 48.3709 371.282 48.3709C370.466 48.3709 369.74 48.5522 369.106 48.9149C368.471 49.2775 367.972 49.7762 367.61 50.4109C367.247 51.0455 367.066 51.7709 367.066 52.5869L365.808 51.8729C365.808 50.6489 366.08 49.5609 366.624 48.6089C367.168 47.6569 367.927 46.9089 368.902 46.3649C369.876 45.7982 370.976 45.5149 372.2 45.5149C373.424 45.5149 374.5 45.8209 375.43 46.4329C376.382 47.0449 377.13 47.8495 377.674 48.8469C378.218 49.8215 378.49 50.8642 378.49 51.9749V62.0049H375.43ZM364.006 62.0049V45.8549H367.066V62.0049H364.006ZM389.331 69.1109C387.676 69.1109 386.203 68.8049 384.911 68.1929C383.641 67.5809 382.621 66.7195 381.851 65.6089L383.823 63.6029C384.48 64.4415 385.262 65.0762 386.169 65.5069C387.075 65.9602 388.152 66.1869 389.399 66.1869C391.053 66.1869 392.357 65.7449 393.309 64.8609C394.283 63.9995 394.771 62.8322 394.771 61.3589V57.3469L395.315 53.7089L394.771 50.1049V45.8549H397.831V61.3589C397.831 62.9002 397.468 64.2489 396.743 65.4049C396.04 66.5609 395.043 67.4675 393.751 68.1249C392.481 68.7822 391.008 69.1109 389.331 69.1109ZM389.331 61.7329C387.857 61.7329 386.531 61.3815 385.353 60.6789C384.197 59.9762 383.279 59.0129 382.599 57.7889C381.919 56.5422 381.579 55.1482 381.579 53.6069C381.579 52.0655 381.919 50.6942 382.599 49.4929C383.279 48.2689 384.197 47.3055 385.353 46.6029C386.531 45.8775 387.857 45.5149 389.331 45.5149C390.6 45.5149 391.722 45.7642 392.697 46.2629C393.671 46.7615 394.442 47.4642 395.009 48.3709C395.598 49.2549 395.915 50.2975 395.961 51.4989V55.7829C395.893 56.9615 395.564 58.0042 394.975 58.9109C394.408 59.7949 393.637 60.4862 392.663 60.9849C391.688 61.4835 390.577 61.7329 389.331 61.7329ZM389.943 58.8429C390.94 58.8429 391.813 58.6275 392.561 58.1969C393.331 57.7662 393.921 57.1655 394.329 56.3949C394.737 55.6015 394.941 54.6835 394.941 53.6409C394.941 52.5982 394.725 51.6915 394.295 50.9209C393.887 50.1275 393.309 49.5155 392.561 49.0849C391.813 48.6315 390.929 48.4049 389.909 48.4049C388.889 48.4049 387.993 48.6315 387.223 49.0849C386.452 49.5155 385.84 50.1275 385.387 50.9209C384.956 51.6915 384.741 52.5869 384.741 53.6069C384.741 54.6269 384.956 55.5335 385.387 56.3269C385.84 57.1202 386.452 57.7435 387.223 58.1969C388.016 58.6275 388.923 58.8429 389.943 58.8429Z" fill="url(#paint1_linear_678_5999)"/>
<path d="M142.647 87.786C143.545 85.0221 147.455 85.0221 148.353 87.786L152.123 99.3889C152.525 100.625 153.677 101.462 154.976 101.462H167.176C170.082 101.462 171.291 105.181 168.94 106.889L159.07 114.06C158.018 114.824 157.578 116.178 157.98 117.414L161.75 129.017C162.648 131.781 159.484 134.079 157.133 132.371L147.263 125.2C146.212 124.436 144.788 124.436 143.737 125.2L133.867 132.371C131.516 134.079 128.352 131.781 129.25 129.017L133.02 117.414C133.422 116.178 132.982 114.824 131.93 114.06L122.06 106.889C119.709 105.181 120.918 101.462 123.824 101.462H136.024C137.323 101.462 138.475 100.625 138.877 99.3889L142.647 87.786Z" fill="#FFD900"/>
<path d="M217.647 87.786C218.545 85.0221 222.455 85.0221 223.353 87.786L227.123 99.3889C227.525 100.625 228.677 101.462 229.976 101.462H242.176C245.082 101.462 246.291 105.181 243.94 106.889L234.07 114.06C233.018 114.824 232.578 116.178 232.98 117.414L236.75 129.017C237.648 131.781 234.484 134.079 232.133 132.371L222.263 125.2C221.212 124.436 219.788 124.436 218.737 125.2L208.867 132.371C206.516 134.079 203.352 131.781 204.25 129.017L208.02 117.414C208.422 116.178 207.982 114.824 206.93 114.06L197.06 106.889C194.709 105.181 195.918 101.462 198.824 101.462H211.024C212.323 101.462 213.475 100.625 213.877 99.3889L217.647 87.786Z" fill="#FFD900"/>
<path d="M292.647 87.786C293.545 85.0221 297.455 85.0221 298.353 87.786L302.123 99.3889C302.525 100.625 303.677 101.462 304.976 101.462H317.176C320.082 101.462 321.291 105.181 318.94 106.889L309.07 114.06C308.018 114.824 307.578 116.178 307.98 117.414L311.75 129.017C312.648 131.781 309.484 134.079 307.133 132.371L297.263 125.2C296.212 124.436 294.788 124.436 293.737 125.2L283.867 132.371C281.516 134.079 278.352 131.781 279.25 129.017L283.02 117.414C283.422 116.178 282.982 114.824 281.93 114.06L272.06 106.889C269.709 105.181 270.918 101.462 273.824 101.462H286.024C287.323 101.462 288.475 100.625 288.877 99.3889L292.647 87.786Z" fill="#FFD900"/>
<path d="M367.647 87.786C368.545 85.0221 372.455 85.0221 373.353 87.786L377.123 99.3889C377.525 100.625 378.677 101.462 379.976 101.462H392.176C395.082 101.462 396.291 105.181 393.94 106.889L384.07 114.06C383.018 114.824 382.578 116.178 382.98 117.414L386.75 129.017C387.648 131.781 384.484 134.079 382.133 132.371L372.263 125.2C371.212 124.436 369.788 124.436 368.737 125.2L358.867 132.371C356.516 134.079 353.352 131.781 354.25 129.017L358.02 117.414C358.422 116.178 357.982 114.824 356.93 114.06L347.06 106.889C344.709 105.181 345.918 101.462 348.824 101.462H361.024C362.323 101.462 363.475 100.625 363.877 99.3889L367.647 87.786Z" fill="#FFD900"/>
<path d="M442.647 87.786C443.545 85.0221 447.455 85.0221 448.353 87.786L452.123 99.3889C452.525 100.625 453.677 101.462 454.976 101.462H467.176C470.082 101.462 471.291 105.181 468.94 106.889L459.07 114.06C458.018 114.824 457.578 116.178 457.98 117.414L461.75 129.017C462.648 131.781 459.484 134.079 457.133 132.371L447.263 125.2C446.212 124.436 444.788 124.436 443.737 125.2L433.867 132.371C431.516 134.079 428.352 131.781 429.25 129.017L433.02 117.414C433.422 116.178 432.982 114.824 431.93 114.06L422.06 106.889C419.709 105.181 420.918 101.462 423.824 101.462H436.024C437.323 101.462 438.475 100.625 438.877 99.3889L442.647 87.786Z" fill="#FFD900"/>
<path d="M217.122 177.879L225.724 162.409H229.328L220.556 177.879H217.122ZM217.122 179.851V177.879L218.482 176.995H235.21V179.851H217.122ZM228.648 186.005V170.399H231.81V186.005H228.648ZM240.874 186.005V162.409H244.036V186.005H240.874ZM236.046 165.265V162.409H243.696V165.265H236.046ZM258.782 175.737V173.051H265.174C266.556 173.051 267.622 172.7 268.37 171.997C269.118 171.294 269.492 170.342 269.492 169.141C269.492 168.008 269.118 167.067 268.37 166.319C267.644 165.571 266.59 165.197 265.208 165.197H258.782V162.409H265.31C266.806 162.409 268.109 162.704 269.22 163.293C270.33 163.86 271.18 164.642 271.77 165.639C272.382 166.636 272.688 167.781 272.688 169.073C272.688 170.41 272.382 171.578 271.77 172.575C271.18 173.572 270.33 174.354 269.22 174.921C268.109 175.465 266.806 175.737 265.31 175.737H258.782ZM256.64 186.005V162.409H259.836V186.005H256.64ZM270.24 186.005L261.672 175.431L264.698 174.377L274.286 186.005H270.24ZM283.995 186.345C282.386 186.345 280.935 185.982 279.643 185.257C278.351 184.509 277.331 183.5 276.583 182.231C275.835 180.962 275.461 179.522 275.461 177.913C275.461 176.326 275.824 174.898 276.549 173.629C277.297 172.36 278.295 171.362 279.541 170.637C280.811 169.889 282.227 169.515 283.791 169.515C285.287 169.515 286.602 169.855 287.735 170.535C288.891 171.215 289.787 172.156 290.421 173.357C291.079 174.558 291.407 175.918 291.407 177.437C291.407 177.664 291.396 177.913 291.373 178.185C291.351 178.434 291.305 178.729 291.237 179.069H277.603V176.519H289.605L288.483 177.505C288.483 176.417 288.291 175.499 287.905 174.751C287.52 173.98 286.976 173.391 286.273 172.983C285.571 172.552 284.721 172.337 283.723 172.337C282.681 172.337 281.763 172.564 280.969 173.017C280.176 173.47 279.564 174.105 279.133 174.921C278.703 175.737 278.487 176.7 278.487 177.811C278.487 178.944 278.714 179.942 279.167 180.803C279.621 181.642 280.267 182.299 281.105 182.775C281.944 183.228 282.907 183.455 283.995 183.455C284.902 183.455 285.729 183.296 286.477 182.979C287.248 182.662 287.905 182.186 288.449 181.551L290.421 183.557C289.651 184.464 288.699 185.155 287.565 185.631C286.455 186.107 285.265 186.345 283.995 186.345ZM300.02 186.005L292.608 169.855H296.008L301.958 183.489H299.986L305.97 169.855H309.234L301.822 186.005H300.02ZM311.878 186.005V169.855H314.938V186.005H311.878ZM313.408 166.625C312.841 166.625 312.376 166.444 312.014 166.081C311.651 165.696 311.47 165.22 311.47 164.653C311.47 164.109 311.651 163.656 312.014 163.293C312.376 162.908 312.841 162.715 313.408 162.715C313.974 162.715 314.439 162.908 314.802 163.293C315.164 163.656 315.346 164.109 315.346 164.653C315.346 165.22 315.164 165.696 314.802 166.081C314.439 166.444 313.974 166.625 313.408 166.625ZM326.927 186.345C325.318 186.345 323.867 185.982 322.575 185.257C321.283 184.509 320.263 183.5 319.515 182.231C318.767 180.962 318.393 179.522 318.393 177.913C318.393 176.326 318.756 174.898 319.481 173.629C320.229 172.36 321.226 171.362 322.473 170.637C323.742 169.889 325.159 169.515 326.723 169.515C328.219 169.515 329.534 169.855 330.667 170.535C331.823 171.215 332.718 172.156 333.353 173.357C334.01 174.558 334.339 175.918 334.339 177.437C334.339 177.664 334.328 177.913 334.305 178.185C334.282 178.434 334.237 178.729 334.169 179.069H320.535V176.519H332.537L331.415 177.505C331.415 176.417 331.222 175.499 330.837 174.751C330.452 173.98 329.908 173.391 329.205 172.983C328.502 172.552 327.652 172.337 326.655 172.337C325.612 172.337 324.694 172.564 323.901 173.017C323.108 173.47 322.496 174.105 322.065 174.921C321.634 175.737 321.419 176.7 321.419 177.811C321.419 178.944 321.646 179.942 322.099 180.803C322.552 181.642 323.198 182.299 324.037 182.775C324.876 183.228 325.839 183.455 326.927 183.455C327.834 183.455 328.661 183.296 329.409 182.979C330.18 182.662 330.837 182.186 331.381 181.551L333.353 183.557C332.582 184.464 331.63 185.155 330.497 185.631C329.386 186.107 328.196 186.345 326.927 186.345ZM342.1 186.005L335.708 169.855H338.904L343.528 182.435H342.508L347.098 169.855H348.866L353.456 182.435H352.436L357.06 169.855H360.256L353.898 186.005H352.096L347.438 173.799H348.56L343.868 186.005H342.1ZM367.712 186.345C366.805 186.345 365.944 186.232 365.128 186.005C364.335 185.756 363.598 185.416 362.918 184.985C362.238 184.532 361.649 183.999 361.15 183.387L363.122 181.415C363.711 182.14 364.391 182.684 365.162 183.047C365.933 183.387 366.794 183.557 367.746 183.557C368.698 183.557 369.435 183.398 369.956 183.081C370.477 182.741 370.738 182.276 370.738 181.687C370.738 181.098 370.523 180.644 370.092 180.327C369.684 179.987 369.151 179.715 368.494 179.511C367.837 179.284 367.134 179.069 366.386 178.865C365.661 178.638 364.969 178.355 364.312 178.015C363.655 177.675 363.111 177.21 362.68 176.621C362.272 176.032 362.068 175.25 362.068 174.275C362.068 173.3 362.306 172.462 362.782 171.759C363.258 171.034 363.915 170.478 364.754 170.093C365.615 169.708 366.647 169.515 367.848 169.515C369.117 169.515 370.239 169.742 371.214 170.195C372.211 170.626 373.027 171.283 373.662 172.167L371.69 174.139C371.237 173.55 370.67 173.096 369.99 172.779C369.333 172.462 368.585 172.303 367.746 172.303C366.862 172.303 366.182 172.462 365.706 172.779C365.253 173.074 365.026 173.493 365.026 174.037C365.026 174.581 365.23 175 365.638 175.295C366.046 175.59 366.579 175.839 367.236 176.043C367.916 176.247 368.619 176.462 369.344 176.689C370.069 176.893 370.761 177.176 371.418 177.539C372.075 177.902 372.608 178.389 373.016 179.001C373.447 179.613 373.662 180.418 373.662 181.415C373.662 182.934 373.118 184.135 372.03 185.019C370.965 185.903 369.525 186.345 367.712 186.345Z" fill="url(#paint2_linear_678_5999)"/>
<defs>
<linearGradient id="paint0_linear_678_5999" x1="587" y1="111.505" x2="4" y2="111.505" gradientUnits="userSpaceOnUse">
<stop stop-color="#2E245D"/>
<stop offset="1" stop-color="#604CC3"/>
</linearGradient>
<linearGradient id="paint1_linear_678_5999" x1="400.5" y1="49.5049" x2="190.5" y2="49.5049" gradientUnits="userSpaceOnUse">
<stop stop-color="#2E245D"/>
<stop offset="1" stop-color="#604CC3"/>
</linearGradient>
<linearGradient id="paint2_linear_678_5999" x1="375" y1="173.505" x2="216" y2="173.505" gradientUnits="userSpaceOnUse">
<stop stop-color="#2E245D"/>
<stop offset="1" stop-color="#604CC3"/>
</linearGradient>
</defs>
</svg>
