<svg width="150" height="41" viewBox="0 0 150 41" fill="none" xmlns="http://www.w3.org/2000/svg">
<g clip-path="url(#clip0_777_10332)">
<path d="M4.86325 4.35206C1.75778 4.79054 -0.380891 7.62603 0.0585625 10.6954L3.39841 34.4317L17.373 2.59814L4.86325 4.35206Z" fill="black"/>
<path d="M38.6133 24.1129L37.2949 5.87214C37.0605 2.77356 34.3652 0.464237 31.2891 0.66886C31.1719 0.66886 31.0254 0.698092 30.9082 0.698092L25.5176 1.45812L37.3828 28.0299C38.2617 26.9484 38.7012 25.5452 38.6133 24.1129Z" fill="black"/>
<path d="M8.4668 40.1906C9.43359 40.3075 10.4004 40.1614 11.2793 39.7813L31.6406 31.1872L21.9727 9.49707L8.4668 40.1906Z" fill="black"/>
<path d="M55.459 8.38623H61.875L70.8691 32.4733H65.127L63.4277 27.5624H53.7305L52.0313 32.5026H46.4355L55.459 8.38623ZM55.166 23.2945H61.9922L58.6816 13.4141H58.5352L55.166 23.2945Z" fill="black"/>
<path d="M96.6797 8.38623H102.129V32.4733H96.6797V8.38623Z" fill="black"/>
<path d="M106.23 8.38623H123.896V12.8295H111.68V19.5821H121.523V23.9084H111.68V32.4441H106.23V8.38623Z" fill="black"/>
<path d="M135.059 23.353L126.006 8.38623H132.188L137.842 18.2958H137.988L143.906 8.38623H149.707L140.537 23.2945V32.4733H135.059V23.353Z" fill="black"/>
<path d="M84.9902 8.38623H72.9785V32.4733H78.4277V24.873H85.0195C89.5898 24.873 93.2812 21.1898 93.2812 16.6296C93.2812 12.0695 89.5605 8.38623 84.9902 8.38623ZM84.4043 20.6344H78.4277V12.6249H84.4043C86.6016 12.6541 88.3887 14.4665 88.3594 16.6881C88.3008 18.8513 86.543 20.5759 84.4043 20.6344Z" fill="black"/>
</g>
<defs>
<clipPath id="clip0_777_10332">
<rect width="150" height="39.5508" fill="white" transform="translate(0 0.668945)"/>
</clipPath>
</defs>
</svg>
