<svg width="117" height="33" viewBox="0 0 117 33" fill="none" xmlns="http://www.w3.org/2000/svg">
<g clip-path="url(#clip0_777_10342)">
<path d="M10.5775 6.09318C9.81942 6.11025 9.05281 6.19558 8.31175 6.34065C8.1925 6.35771 8.11584 6.45158 8.13288 6.57105L8.1925 7.21958C8.20954 7.33051 8.31175 7.42438 8.431 7.42438C8.44804 7.42438 8.44804 7.42438 8.45656 7.42438C9.0954 7.27931 9.74276 7.19398 10.3986 7.17692C11.5145 7.17692 11.9233 7.57798 11.9233 8.81531V9.11398C11.4974 9.02865 11.063 8.96891 10.6371 8.98598C9.01022 8.98598 7.65588 9.59185 7.65588 11.1193C7.65588 12.6468 8.75469 13.3209 10.4157 13.3209C11.3526 13.2953 12.2726 13.21 13.184 13.0649V8.72998C13.167 6.84411 12.4685 6.09318 10.5775 6.09318ZM10.5434 12.2628C9.54685 12.2628 8.91653 11.9726 8.91653 11.0852C8.91653 10.266 9.68313 9.95878 10.7223 9.95878C11.1227 9.94171 11.523 9.98438 11.9063 10.0612V12.1518C11.4634 12.2201 11.0034 12.2628 10.5434 12.2628ZM21.6337 9.71985C21.6337 7.58651 20.4668 6.11878 17.9455 6.11878C17.0852 6.13585 16.2249 6.24678 15.3986 6.47718V15.3774C15.3986 15.4884 15.5009 15.5908 15.6201 15.5908H16.4378C16.5571 15.5908 16.6593 15.4884 16.6593 15.3774V12.843C17.1959 13.1588 17.8177 13.3209 18.4566 13.3038C20.4923 13.3038 21.6337 11.8105 21.6337 9.71985ZM20.3135 9.71985C20.3135 11.2046 19.6917 12.2201 18.2862 12.2201C17.6899 12.2201 17.1278 12.0324 16.6593 11.691V7.34758C17.0767 7.24518 17.4855 7.20252 17.9199 7.21958C19.4191 7.21105 20.3135 8.10705 20.3135 9.71985ZM29.8279 9.71985C29.8279 7.58651 28.661 6.11878 26.1397 6.11878C25.2794 6.13585 24.4191 6.24678 23.5928 6.47718V15.3774C23.5928 15.4884 23.6951 15.5908 23.8143 15.5908H24.632C24.7513 15.5908 24.8535 15.4884 24.8535 15.3774V12.843C25.3986 13.1588 26.0119 13.3209 26.6508 13.3038C28.6865 13.3038 29.8279 11.8105 29.8279 9.71985ZM28.5077 9.71985C28.5077 11.2046 27.8859 12.2201 26.4804 12.2201C25.8842 12.2201 25.322 12.0324 24.8535 11.691V7.34758C25.2709 7.24518 25.6797 7.20252 26.1141 7.21958C27.6218 7.21105 28.5077 8.10705 28.5077 9.71985ZM32.4089 4.89851C32.8859 4.91558 33.2862 4.55718 33.2947 4.07931C33.2947 4.06225 33.2947 4.03665 33.2947 4.01958C33.2947 3.54171 32.8944 3.15771 32.4089 3.15771C31.9233 3.15771 31.523 3.55025 31.523 4.01958C31.506 4.48038 31.8808 4.87291 32.3492 4.89851C32.3578 4.91558 32.3918 4.91558 32.4089 4.89851ZM32.8177 6.24678H32C31.8807 6.24678 31.7785 6.34918 31.7785 6.46011V12.9198C31.7785 13.0308 31.8807 13.1332 32 13.1332H32.8177C32.937 13.1332 33.0392 13.0308 33.0392 12.9198V6.46865C33.0392 6.34918 32.954 6.24678 32.8177 6.24678ZM41.2675 6.47718V12.9966C40.2624 13.21 39.2232 13.3124 38.184 13.2953C36.1652 13.2953 35.2624 12.1689 35.2624 10.1294V6.47718C35.2624 6.36625 35.3646 6.26385 35.4838 6.26385H36.3015C36.4208 6.26385 36.523 6.36625 36.523 6.47718V9.85638C36.523 11.5374 37.0085 12.203 38.3203 12.203C38.8825 12.186 39.4446 12.1433 40.0068 12.075V6.47718C40.0068 6.36625 40.109 6.26385 40.2283 6.26385H41.046C41.1823 6.26385 41.2675 6.36625 41.2675 6.47718ZM43.4906 12.9284V6.45158C44.5468 6.22118 45.6286 6.11025 46.7104 6.11025C47.6303 6.11025 48.2095 6.35771 48.5503 6.68198C49.4361 6.34918 50.356 6.11025 51.3101 6.11025C53.2521 6.11025 53.9506 7.21958 53.9506 9.27611V12.9284C53.9506 13.0393 53.8484 13.1417 53.7291 13.1417H52.9114C52.7922 13.1417 52.6899 13.0393 52.6899 12.9284V9.54918C52.6899 8.05585 52.4855 7.20252 51.1823 7.20252C50.322 7.20252 49.3595 7.49265 49.138 7.64625C49.2998 8.17531 49.3765 8.72145 49.3765 9.27611V12.9284C49.3765 13.0393 49.2743 13.1417 49.155 13.1417H48.3288C48.2095 13.1417 48.1073 13.0393 48.1073 12.9284V9.54918C48.1073 8.02171 47.8433 7.20252 46.5997 7.20252C45.9949 7.20252 45.3816 7.24518 44.7939 7.33051V12.9284C44.7939 13.0393 44.6917 13.1417 44.5724 13.1417H43.7462C43.5928 13.1417 43.5077 13.0478 43.4906 12.9284Z" fill="#EE376D"/>
<path d="M56.6934 6.01656V6.33229H56.276V7.35629H55.9097V6.33229H55.4923V6.01656H56.6934ZM58.4651 6.01656C58.4906 6.16162 58.5077 6.33229 58.5247 6.54562C58.5417 6.75896 58.5503 7.03202 58.5843 7.36482H58.2266C58.2266 7.21976 58.2095 7.07469 58.2095 6.92109C58.2095 6.75896 58.1925 6.62242 58.184 6.48589C58.1584 6.54562 58.1073 6.59682 58.0818 6.65656C58.0562 6.71629 58.0051 6.78456 57.9796 6.86136L57.8773 7.04909L57.8007 7.19416H57.5963C57.5792 7.16856 57.5537 7.12589 57.5196 7.04909C57.494 6.98936 57.46 6.93816 57.4174 6.86136L57.2981 6.65656L57.1959 6.45176C57.1789 6.57976 57.1789 6.72482 57.1704 6.88696C57.1533 7.04909 57.1533 7.18562 57.1533 7.33069H56.7956C56.8211 6.99789 56.8382 6.72482 56.8722 6.51149C56.8978 6.29816 56.8978 6.11896 56.9319 5.98242H57.2981L57.477 6.32376C57.5537 6.45176 57.6133 6.59682 57.6814 6.72482C57.7581 6.57976 57.8262 6.45176 57.9029 6.32376C57.9796 6.19576 58.0392 6.07629 58.0818 5.99096H58.4651V6.01656Z" fill="#EE376D"/>
<path d="M14.1465 19.0299C14.9046 19.5334 15.4668 20.2673 15.7308 21.1206H13.184C13.0392 20.8219 12.8177 20.5745 12.5196 20.4038C12.2215 20.2417 11.8808 20.1734 11.54 20.1905C10.8245 20.1905 10.2624 20.4038 9.85349 20.8561C9.44464 21.3083 9.21465 21.8886 9.21465 22.6395C9.21465 23.3905 9.41908 23.9793 9.85349 24.423C10.2879 24.8667 10.8331 25.0886 11.54 25.0886C11.8808 25.1057 12.2215 25.0203 12.5196 24.8753C12.8177 24.7046 13.0392 24.4571 13.184 24.1585H15.7308C15.4668 25.0118 14.9046 25.7457 14.1465 26.2491C13.3799 26.7526 12.4685 27.0086 11.5486 27.0001C10.7479 27.0171 9.98126 26.8123 9.28279 26.4369C8.60136 26.0785 8.03918 25.5323 7.65588 24.8838C6.8552 23.4843 6.8552 21.7862 7.65588 20.3953C8.03918 19.7467 8.60136 19.2006 9.28279 18.8422C9.98126 18.4667 10.7649 18.279 11.5486 18.279C12.4685 18.2534 13.3714 18.5265 14.1465 19.0299Z" fill="#EE376D"/>
<path d="M26.1056 18.8337C26.7871 19.1921 27.3492 19.7382 27.7325 20.3868C28.5332 21.7862 28.5332 23.4844 27.7325 24.8924C27.3492 25.5409 26.7871 26.087 26.1056 26.4454C24.7002 27.1964 22.9796 27.1964 21.5741 26.4454C20.8927 26.087 20.3305 25.5409 19.9472 24.8924C19.1465 23.4929 19.1465 21.7948 19.9472 20.3868C20.3305 19.7382 20.8927 19.1921 21.5741 18.8337C22.9966 18.0828 24.7002 18.0828 26.1056 18.8337ZM22.1533 20.8476C21.7359 21.2913 21.5145 21.8801 21.5145 22.631C21.5145 23.382 21.7189 23.9708 22.1533 24.4145C22.5792 24.8582 23.1329 25.0801 23.8399 25.0801C24.4787 25.1057 25.0835 24.8668 25.5264 24.4145C25.9438 23.9708 26.1652 23.382 26.1652 22.631C26.1652 21.8801 25.9608 21.2913 25.5264 20.8476C25.092 20.4038 24.4702 20.1564 23.8399 20.182C23.1244 20.182 22.5622 20.3953 22.1533 20.8476Z" fill="#EE376D"/>
<path d="M40.3049 26.9144H38.1669L34.598 21.5384V26.9144H32.4685V18.3726H34.598L38.1669 23.7486V18.3726H40.3049V26.9144Z" fill="#EE376D"/>
<path d="M50.6542 18.3984V19.9856H47.0767V21.8118H49.7598V23.3904H47.0767V26.9318H44.9472V18.3984H50.6542Z" fill="#EE376D"/>
<path d="M57.0256 19.9515V21.7776H59.8279V23.3648H57.0256V25.3531H60.1942V26.9317H54.8705V18.3813H60.1942V19.9685L57.0256 19.9515Z" fill="#EE376D"/>
<path d="M69.1465 26.9148L67.1789 23.6038H66.9233V26.9148H64.7854V18.3985H68.2521C68.8569 18.3814 69.4702 18.5094 69.9983 18.7569C70.4583 18.9702 70.8245 19.303 71.0971 19.7212C71.3356 20.1137 71.4634 20.5574 71.4634 21.0012C71.4463 21.5217 71.3015 22.0081 71.0034 22.4433C70.6883 22.9212 70.1857 23.2454 69.4958 23.4332L71.6423 26.8977L69.1465 26.9148ZM66.9233 22.0252H68.2436C68.5247 22.0422 68.8058 21.9398 69.0102 21.7521C69.2061 21.5473 69.3084 21.2913 69.2913 21.0182C69.3084 20.7452 69.2061 20.4721 69.0102 20.2844C68.8058 20.0796 68.5332 19.9857 68.2436 19.9942H66.9063L66.9233 22.0252Z" fill="#EE376D"/>
<path d="M78.0221 19.9515V21.7776H80.8245V23.3648H78.0221V25.3531H81.2078V26.9317H75.8927V18.3813H81.2078V19.9685L78.0221 19.9515Z" fill="#EE376D"/>
<path d="M93.644 26.9144H91.5145L87.937 21.5384V26.9144H85.8075V18.3726H87.937L91.5145 23.7486V18.3726H93.644V26.9144Z" fill="#EE376D"/>
<path d="M104.862 19.0297C105.62 19.5332 106.182 20.2671 106.446 21.1204H103.899C103.755 20.8217 103.533 20.5743 103.235 20.4036C102.937 20.2415 102.596 20.1732 102.256 20.1903C101.54 20.1903 100.978 20.4036 100.569 20.8559C100.152 21.2996 99.9301 21.8884 99.9301 22.6393C99.9301 23.3903 100.135 23.9791 100.569 24.4228C100.986 24.8665 101.549 25.0969 102.256 25.0969C102.596 25.114 102.937 25.0287 103.235 24.8836C103.533 24.7129 103.755 24.4655 103.899 24.1668H106.446C106.182 25.0201 105.62 25.754 104.862 26.2575C104.095 26.7609 103.184 27.034 102.256 27.0169C101.455 27.034 100.688 26.8292 99.9898 26.4537C99.3083 26.0953 98.7462 25.5492 98.3629 24.9007C97.5622 23.5012 97.5622 21.8031 98.3629 20.4121C98.7462 19.7636 99.3083 19.2175 99.9898 18.8591C100.688 18.4836 101.472 18.2959 102.256 18.2959C103.193 18.2532 104.095 18.5263 104.862 19.0297Z" fill="#EE376D"/>
<path d="M112.724 19.9515V21.7776H115.526V23.3648H112.724V25.3531H115.893V26.9317H110.569V18.3813H115.893V19.9685L112.724 19.9515Z" fill="#EE376D"/>
</g>
<defs>
<clipPath id="clip0_777_10342">
<rect width="150" height="32" fill="white" transform="translate(-33 0.444336)"/>
</clipPath>
</defs>
</svg>
