<svg width="25" height="26" viewBox="0 0 25 26" fill="none" xmlns="http://www.w3.org/2000/svg">
<path d="M12.7782 2.5935C11.1192 2.59278 9.48538 2.99956 8.0204 3.7781C6.55542 4.55665 5.3041 5.68312 4.37641 7.0585C3.44872 8.43389 2.87307 10.0161 2.70005 11.666C2.52703 13.316 2.76193 14.9832 3.38411 16.5211C3.4406 16.6495 3.47073 16.7879 3.47272 16.9282C3.47471 17.0684 3.44852 17.2077 3.39571 17.3376C3.34289 17.4676 3.26452 17.5856 3.16525 17.6847C3.06597 17.7838 2.94781 17.8619 2.81777 17.9145C2.68773 17.9671 2.54846 17.993 2.40821 17.9907C2.26796 17.9885 2.12959 17.9581 2.0013 17.9014C1.87301 17.8447 1.75742 17.7628 1.66137 17.6605C1.56532 17.5583 1.49078 17.4379 1.44216 17.3063C0.385312 14.6925 0.264406 11.7938 1.09992 9.1011C1.93543 6.40841 3.67599 4.08728 6.02679 2.53086C8.37759 0.97445 11.1941 0.278436 13.9993 0.560712C16.8045 0.842989 19.4258 2.0862 21.4194 4.07978C23.413 6.07335 24.6562 8.69473 24.9385 11.4999C25.2208 14.3051 24.5247 17.1216 22.9683 19.4724C21.4119 21.8232 19.0908 23.5638 16.3981 24.3993C13.7054 25.2348 10.8067 25.1139 8.19291 24.057C7.9409 23.9489 7.74131 23.7464 7.63696 23.4928C7.53261 23.2392 7.53182 22.9548 7.63477 22.7007C7.73771 22.4465 7.93617 22.2429 8.18757 22.1334C8.43898 22.0239 8.72328 22.0173 8.97947 22.1151C10.3644 22.6741 11.8559 22.9199 13.3469 22.8349C14.838 22.75 16.2919 22.3363 17.6044 21.6236C18.9168 20.9108 20.0555 19.9167 20.9387 18.7123C21.8219 17.5079 22.4278 16.1231 22.7131 14.6571C22.9984 13.1911 22.9559 11.6801 22.5888 10.2325C22.2216 8.78478 21.5389 7.4362 20.5894 6.28332C19.64 5.13044 18.4473 4.20179 17.0969 3.56389C15.7465 2.92598 14.2717 2.59461 12.7782 2.5935Z" fill="white"/>
<path d="M4.745 12.7226C4.745 14.5625 5.36392 16.2586 6.40475 17.6138L5.74951 18.269L5.709 18.3109H4.0744C3.51879 18.3114 2.98611 18.5325 2.59348 18.9257L0.306439 21.2127C0.160085 21.3592 0.0604379 21.5459 0.0200837 21.749C-0.0202705 21.9521 0.000478269 22.1627 0.0797093 22.354C0.15894 22.5454 0.2931 22.709 0.465244 22.8241C0.637387 22.9392 0.839793 23.0008 1.0469 23.001H2.49988V24.454C2.50006 24.6611 2.56161 24.8635 2.67676 25.0356C2.79191 25.2078 2.95549 25.3419 3.14684 25.4211C3.33819 25.5004 3.54873 25.5211 3.75186 25.4808C3.955 25.4404 4.14162 25.3408 4.28815 25.1944L6.57519 22.906C6.96797 22.5137 7.18906 21.9816 7.18992 21.4265V19.7919L7.23183 19.7513L7.88706 19.0975C9.32557 20.2016 11.0953 20.7866 12.9085 20.7572C14.7216 20.7278 16.4715 20.0858 17.8735 18.9356C19.2754 17.7855 20.247 16.1948 20.6302 14.4224C21.0134 12.65 20.7856 10.8 19.9839 9.17346C19.1822 7.54691 17.8538 6.23946 16.2147 5.46375C14.5756 4.68804 12.7222 4.48972 10.9561 4.90105C9.19 5.31237 7.615 6.30914 6.4873 7.72923C5.35959 9.14933 4.74554 10.9092 4.745 12.7226ZM12.7783 6.78493C13.7101 6.78519 14.6287 7.00475 15.4599 7.42584C16.2911 7.84693 17.0116 8.45773 17.563 9.20885C18.1144 9.95998 18.4813 10.8303 18.634 11.7495C18.7867 12.6687 18.7209 13.6109 18.442 14.5C18.1631 15.3891 17.6788 16.2 17.0284 16.8672C16.378 17.5344 15.5796 18.0392 14.698 18.3408C13.8163 18.6423 12.8761 18.7321 11.9533 18.6029C11.0305 18.4737 10.1511 18.1291 9.38615 17.597L11.6858 15.296C12.2828 15.5493 12.9493 15.587 13.571 15.4028C14.1928 15.2185 14.7311 14.8237 15.0937 14.2861C15.4563 13.7484 15.6206 13.1013 15.5584 12.4558C15.4962 11.8103 15.2114 11.2065 14.7529 10.748C14.2943 10.2894 13.6905 10.0046 13.045 9.94246C12.3995 9.88027 11.7525 10.0446 11.2148 10.4071C10.6771 10.7697 10.2823 11.3081 10.0981 11.9298C9.91381 12.5516 9.95156 13.2181 10.2048 13.8151L7.90243 16.1133C7.28294 15.2228 6.91925 14.1795 6.85086 13.0969C6.78248 12.0142 7.01201 10.9335 7.51453 9.97209C8.01705 9.01068 8.77335 8.20531 9.70132 7.64343C10.6293 7.08155 11.6935 6.78464 12.7783 6.78493ZM5.709 19.708L5.79282 19.7905V21.4251C5.79241 21.6102 5.71855 21.7875 5.58745 21.9182L3.89697 23.6087V22.3024C3.89697 22.1172 3.82337 21.9395 3.69237 21.8085C3.56137 21.6775 3.38369 21.6039 3.19842 21.6039H1.89074L3.58122 19.9134C3.6461 19.8483 3.72318 19.7967 3.80805 19.7614C3.89292 19.7262 3.9839 19.7081 4.0758 19.708H5.709Z" fill="white"/>
</svg>
