<svg width="44" height="40" viewBox="0 0 44 40" fill="none" xmlns="http://www.w3.org/2000/svg">
<path d="M10.4996 2.95821C10.644 1.30766 12.0988 0.0869753 13.7493 0.231379L40.6465 2.58457C42.297 2.72898 43.5177 4.18373 43.3733 5.83428L41.0201 32.7314C40.8757 34.382 39.421 35.6026 37.7704 35.4582C36.1199 35.3138 34.8992 33.8591 35.0436 32.2085L36.7656 12.5262L5.54326 38.7248C4.27404 39.7898 2.38177 39.6242 1.31677 38.355C0.251761 37.0858 0.417313 35.1935 1.68654 34.1285L32.9088 7.92989L13.2265 6.20791C11.5759 6.06351 10.3552 4.60876 10.4996 2.95821Z" fill="url(#paint0_linear_725_13151)"/>
<defs>
<linearGradient id="paint0_linear_725_13151" x1="42.5219" y1="4.43241" x2="2.43788" y2="38.0669" gradientUnits="userSpaceOnUse">
<stop stop-color="#2E245D"/>
<stop offset="1" stop-color="#604CC3"/>
</linearGradient>
</defs>
</svg>
