<svg width="30" height="28" viewBox="0 0 30 28" fill="none" xmlns="http://www.w3.org/2000/svg">
<path d="M6.50285 2.57097C9.9423 5.15319 13.6416 10.3888 15 13.1982C16.3584 10.3888 20.0577 5.15319 23.4971 2.57097C25.9788 0.707803 30 -0.733721 30 3.85347C30 4.76964 29.4748 11.5496 29.1667 12.6505C28.0958 16.4771 24.1937 17.4532 20.7225 16.8625C26.7899 17.8951 28.3334 21.3156 25 24.7359C18.6694 31.232 15.9011 23.1061 15.1918 21.0239C15.0618 20.6422 15.0008 20.4637 15 20.6155C14.9991 20.4636 14.9382 20.6422 14.8082 21.0239C14.0989 23.1061 11.3306 31.2321 5.00004 24.7359C1.66664 21.3156 3.21012 17.8951 9.27738 16.8625C5.80629 17.4532 1.90418 16.4771 0.83332 12.6505C0.525234 11.5496 0 4.76964 0 3.85347C0 -0.733721 4.02117 0.707803 6.50285 2.57097Z" fill="url(#paint0_linear_772_10263)"/>
<defs>
<linearGradient id="paint0_linear_772_10263" x1="30" y1="14.0003" x2="0" y2="14.0003" gradientUnits="userSpaceOnUse">
<stop stop-color="#2E245D"/>
<stop offset="1" stop-color="#604CC3"/>
</linearGradient>
</defs>
</svg>
