<svg width="1200" height="333" viewBox="0 0 1200 333" fill="none" xmlns="http://www.w3.org/2000/svg">
<path d="M148.564 1.30581C243.519 -6.82352 317.405 58.812 330.392 141.183C331.732 154.185 331.732 154.583 331.75 162.845L331.751 163.211C331.821 195.182 318.463 236.039 307.046 255.107C298.752 268.927 300.782 265.64 290.282 278.082C270.571 301.445 237.643 316.908 209.109 325.797C191.463 329.332 190.58 329.332 168.522 331.983C164.111 331.983 149.994 332.866 141.456 331.983L158.817 326.681C158.817 326.681 180.116 319.816 190.563 315.646C237.061 297.037 273.571 267.647 289.788 218.5C295.223 202.065 300.341 184.092 299.335 167.197C295.858 108.807 263.001 52.1141 189.98 37.6757C163.334 32.4093 135.118 35.0425 107.325 34.0529C105.666 41.5106 104.378 47.3956 102.79 54.4999H122.13L145.035 54.3939C161.817 53.3865 194.427 59.943 194.427 59.943C231.5 67.4995 287.847 124.235 277.559 188.051C277.418 189.005 273.518 205.625 273.518 205.625C273.518 205.625 271.648 214.506 266.707 225.039C244.56 272.172 207.909 300.447 155.588 306.933C135.083 307.216 114.56 307.658 94.0549 307.746C63.015 307.87 31.9928 307.782 0 307.782C1.48229 302.356 2.75283 297.655 4.04101 292.954C5.92917 285.762 8.4173 277.049 10.3055 269.856L10.9937 266.41L12.7936 259.359C25.3401 211.414 37.9043 163.486 50.4685 115.541C50.6979 114.71 51.2273 113.968 51.8096 112.766L54.6399 112.493C64.5419 111.537 74.7429 110.552 86.6788 109.391C81.3143 130.244 76.5498 148.871 71.7147 167.48C63.0856 200.722 54.5095 233.964 45.6158 267.135C44.3982 271.73 45.1923 273.691 49.8156 274.045C73.9558 274.363 98.0783 274.663 122.218 274.981C126.895 275.105 131.553 275.247 136.23 275.37C191.163 275.317 229.791 234.653 240.396 197.435C254.848 146.768 226.818 94.9644 178.528 89.4383C131 83.9995 98.643 88.8728 58.6917 88.5901C50.4685 88.537 42.2277 88.5017 34.0045 88.4487C25.3401 123.44 16.6758 158.432 7.94085 193.405L0 228.599L0.211756 138.886V55.4365H65.5561C69.5971 40.2382 74.0617 25.1106 77.4674 9.77092C78.9144 3.28512 81.879 0.970033 88.0199 1.09374C97.6195 1.27046 107.237 1.21745 116.836 1.25279L148.564 1.30581Z" fill="url(#paint0_linear_678_6069)"/>
<path d="M454.614 228V205.109H483.642C490.719 205.109 496.912 203.727 502.22 200.962C507.528 198.087 511.62 193.94 514.495 188.522C517.37 183.103 518.808 176.689 518.808 169.28C518.808 161.871 517.315 155.512 514.329 150.204C511.454 144.896 507.362 140.805 502.054 137.93C496.857 135.054 490.719 133.617 483.642 133.617H453.784V110.892H483.974C492.82 110.892 500.948 112.329 508.357 115.205C515.877 117.969 522.401 122.005 527.931 127.313C533.57 132.511 537.883 138.704 540.869 145.892C543.965 152.969 545.514 160.82 545.514 169.446C545.514 177.961 543.965 185.812 540.869 193C537.883 200.188 533.626 206.381 528.097 211.578C522.567 216.776 516.043 220.812 508.523 223.687C501.114 226.562 493.042 228 484.305 228H454.614ZM437.031 228V110.892H463.073V228H437.031ZM593.436 229.659C586.027 229.659 579.392 227.834 573.531 224.185C567.781 220.536 563.191 215.559 559.763 209.256C556.446 202.953 554.787 195.765 554.787 187.692C554.787 179.62 556.446 172.432 559.763 166.128C563.191 159.825 567.781 154.849 573.531 151.2C579.392 147.55 586.027 145.726 593.436 145.726C598.855 145.726 603.72 146.776 608.033 148.877C612.456 150.978 616.05 153.909 618.815 157.669C621.58 161.318 623.128 165.52 623.459 170.275V205.109C623.128 209.864 621.58 214.122 618.815 217.882C616.161 221.531 612.622 224.406 608.199 226.507C603.776 228.608 598.855 229.659 593.436 229.659ZM598.578 206.768C603.997 206.768 608.365 204.999 611.682 201.46C615 197.811 616.659 193.221 616.659 187.692C616.659 183.932 615.885 180.615 614.336 177.74C612.899 174.864 610.798 172.653 608.033 171.105C605.379 169.446 602.283 168.617 598.744 168.617C595.205 168.617 592.054 169.446 589.289 171.105C586.635 172.653 584.479 174.864 582.82 177.74C581.272 180.615 580.498 183.932 580.498 187.692C580.498 191.341 581.272 194.604 582.82 197.479C584.368 200.354 586.525 202.621 589.289 204.28C592.054 205.939 595.15 206.768 598.578 206.768ZM615.663 228V206.27L619.478 186.697L615.663 167.124V147.384H640.545V228H615.663ZM669.859 228V114.043H695.238V228H669.859ZM651.613 168.948V147.384H713.485V168.948H651.613ZM756.72 229.659C749.311 229.659 742.676 227.834 736.815 224.185C731.064 220.536 726.475 215.559 723.047 209.256C719.73 202.953 718.071 195.765 718.071 187.692C718.071 179.62 719.73 172.432 723.047 166.128C726.475 159.825 731.064 154.849 736.815 151.2C742.676 147.55 749.311 145.726 756.72 145.726C762.138 145.726 767.004 146.776 771.317 148.877C775.74 150.978 779.334 153.909 782.099 157.669C784.863 161.318 786.412 165.52 786.743 170.275V205.109C786.412 209.864 784.863 214.122 782.099 217.882C779.445 221.531 775.906 224.406 771.483 226.507C767.059 228.608 762.138 229.659 756.72 229.659ZM761.862 206.768C767.281 206.768 771.649 204.999 774.966 201.46C778.284 197.811 779.942 193.221 779.942 187.692C779.942 183.932 779.168 180.615 777.62 177.74C776.183 174.864 774.081 172.653 771.317 171.105C768.663 169.446 765.567 168.617 762.028 168.617C758.489 168.617 755.338 169.446 752.573 171.105C749.919 172.653 747.763 174.864 746.104 177.74C744.556 180.615 743.782 183.932 743.782 187.692C743.782 191.341 744.556 194.604 746.104 197.479C747.652 200.354 749.808 202.621 752.573 204.28C755.338 205.939 758.434 206.768 761.862 206.768ZM778.947 228V206.27L782.762 186.697L778.947 167.124V147.384H803.829V228H778.947ZM841.603 228V205.109H870.631C877.708 205.109 883.901 203.727 889.209 200.962C894.517 198.087 898.609 193.94 901.484 188.522C904.359 183.103 905.797 176.689 905.797 169.28C905.797 161.871 904.304 155.512 901.318 150.204C898.443 144.896 894.351 140.805 889.043 137.93C883.846 135.054 877.708 133.617 870.631 133.617H840.773V110.892H870.963C879.81 110.892 887.937 112.329 895.347 115.205C902.866 117.969 909.391 122.005 914.92 127.313C920.56 132.511 924.872 138.704 927.858 145.892C930.954 152.969 932.503 160.82 932.503 169.446C932.503 177.961 930.954 185.812 927.858 193C924.872 200.188 920.615 206.381 915.086 211.578C909.557 216.776 903.032 220.812 895.512 223.687C888.103 226.562 880.031 228 871.295 228H841.603ZM824.02 228V110.892H850.062V228H824.02ZM980.425 229.659C973.016 229.659 966.381 227.834 960.52 224.185C954.77 220.536 950.18 215.559 946.752 209.256C943.435 202.953 941.776 195.765 941.776 187.692C941.776 179.62 943.435 172.432 946.752 166.128C950.18 159.825 954.77 154.849 960.52 151.2C966.381 147.55 973.016 145.726 980.425 145.726C985.844 145.726 990.709 146.776 995.022 148.877C999.446 150.978 1003.04 153.909 1005.8 157.669C1008.57 161.318 1010.12 165.52 1010.45 170.275V205.109C1010.12 209.864 1008.57 214.122 1005.8 217.882C1003.15 221.531 999.611 224.406 995.188 226.507C990.765 228.608 985.844 229.659 980.425 229.659ZM985.567 206.768C990.986 206.768 995.354 204.999 998.671 201.46C1001.99 197.811 1003.65 193.221 1003.65 187.692C1003.65 183.932 1002.87 180.615 1001.33 177.74C999.888 174.864 997.787 172.653 995.022 171.105C992.368 169.446 989.272 168.617 985.733 168.617C982.194 168.617 979.043 169.446 976.278 171.105C973.624 172.653 971.468 174.864 969.809 177.74C968.261 180.615 967.487 183.932 967.487 187.692C967.487 191.341 968.261 194.604 969.809 197.479C971.357 200.354 973.514 202.621 976.278 204.28C979.043 205.939 982.139 206.768 985.567 206.768ZM1002.65 228V206.27L1006.47 186.697L1002.65 167.124V147.384H1027.53V228H1002.65ZM1081.23 229.825C1073.82 229.825 1067.24 228.332 1061.49 225.346C1055.85 222.25 1051.43 218.047 1048.22 212.739C1045.02 207.321 1043.41 201.128 1043.41 194.161V147.384H1068.79V193.83C1068.79 196.594 1069.23 198.972 1070.12 200.962C1071.11 202.953 1072.55 204.501 1074.43 205.607C1076.31 206.713 1078.58 207.266 1081.23 207.266C1084.99 207.266 1087.98 206.104 1090.19 203.782C1092.4 201.349 1093.51 198.032 1093.51 193.83V147.384H1118.89V193.995C1118.89 201.073 1117.28 207.321 1114.08 212.739C1110.87 218.047 1106.45 222.25 1100.81 225.346C1095.17 228.332 1088.64 229.825 1081.23 229.825ZM1134.82 228V147.384H1160.2V228H1134.82ZM1160.2 183.711L1149.58 175.417C1151.68 166.018 1155.22 158.719 1160.2 153.522C1165.18 148.324 1172.09 145.726 1180.93 145.726C1184.8 145.726 1188.18 146.334 1191.05 147.55C1194.04 148.656 1196.64 150.425 1198.85 152.858L1183.75 171.934C1182.65 170.718 1181.27 169.778 1179.61 169.114C1177.95 168.451 1176.07 168.119 1173.97 168.119C1169.76 168.119 1166.39 169.446 1163.85 172.1C1161.42 174.643 1160.2 178.514 1160.2 183.711Z" fill="url(#paint1_linear_678_6069)"/>
<defs>
<linearGradient id="paint0_linear_678_6069" x1="0" y1="166.5" x2="331.751" y2="166.5" gradientUnits="userSpaceOnUse">
<stop stop-color="#604CC3"/>
<stop offset="1" stop-color="#2E245D"/>
</linearGradient>
<linearGradient id="paint1_linear_678_6069" x1="425.751" y1="166.5" x2="1199.75" y2="166.5" gradientUnits="userSpaceOnUse">
<stop stop-color="#604CC3"/>
<stop offset="1" stop-color="#2E245D"/>
</linearGradient>
</defs>
</svg>
