<svg width="1324" height="632" viewBox="0 0 1324 632" fill="none" xmlns="http://www.w3.org/2000/svg">
<path d="M1324 632C1324 456.427 1254.25 288.044 1130.1 163.895C1005.96 39.7462 837.573 -30 662 -30C486.427 -30 318.044 39.7462 193.895 163.895C69.7463 288.044 2.65108e-05 456.427 0 632L123.941 632C123.941 489.298 180.629 352.44 281.535 251.535C382.44 150.629 519.298 93.9407 662 93.9407C804.702 93.9407 941.56 150.629 1042.47 251.535C1143.37 352.44 1200.06 489.298 1200.06 632H1324Z" fill="url(#paint0_linear_651_50)"/>
<defs>
<linearGradient id="paint0_linear_651_50" x1="662" y1="-30" x2="662" y2="1294" gradientUnits="userSpaceOnUse">
<stop stop-color="#DEE7F6"/>
<stop offset="0.479566" stop-color="white"/>
</linearGradient>
</defs>
</svg>
