<svg width="29" height="26" viewBox="0 0 29 26" fill="none" xmlns="http://www.w3.org/2000/svg">
<path d="M14.5001 23.9263C19.161 23.9263 23.5051 21.1799 26.5288 16.4265C27.7172 14.5647 27.7172 11.4354 26.5288 9.57366C23.5051 4.82026 19.161 2.07385 14.5001 2.07385C9.83911 2.07385 5.49503 4.82026 2.47134 9.57366C1.28299 11.4354 1.28299 14.5647 2.47134 16.4265C5.49503 21.1799 9.83911 23.9263 14.5001 23.9263Z" stroke="white" stroke-width="3" stroke-linecap="round" stroke-linejoin="round"/>
<path d="M19.2269 13.0065C19.2269 15.6209 17.1143 17.7335 14.4999 17.7335C11.8856 17.7335 9.77295 15.6209 9.77295 13.0065C9.77295 10.3922 11.8856 8.27954 14.4999 8.27954C17.1143 8.27954 19.2269 10.3922 19.2269 13.0065Z" stroke="white" stroke-width="3" stroke-linecap="round" stroke-linejoin="round"/>
</svg>
