<svg width="32" height="32" viewBox="0 0 32 32" fill="none" xmlns="http://www.w3.org/2000/svg">
<path d="M14.3302 0.0657636C23.4893 -0.718374 30.6161 5.61268 31.8689 13.558C31.9981 14.8122 31.9982 14.8506 31.9999 15.6475L32 15.6827C32.0067 18.7666 30.7183 22.7076 29.617 24.5469C28.817 25.8799 29.0127 25.5629 28 26.7629C26.0987 29.0165 22.9225 30.5081 20.1702 31.3655C18.4681 31.7064 18.383 31.7064 16.2553 31.9621C15.8298 31.9621 14.4681 32.0474 13.6445 31.9621L15.3191 31.4507C15.3191 31.4507 17.3736 30.7886 18.3813 30.3863C22.8664 28.5913 26.3881 25.7565 27.9523 21.0159C28.4766 19.4305 28.9702 17.6969 28.8732 16.0673C28.5378 10.4351 25.3685 4.96662 18.3251 3.57393C15.7549 3.06594 13.0332 3.31993 10.3523 3.22447C10.1923 3.94383 10.0681 4.51148 9.91489 5.19675H11.7804L13.9898 5.18652C15.6085 5.08936 17.2153 5.10981 18.754 5.72178C23.5387 6.44455 27.7651 11.9233 26.7727 18.0788C26.7591 18.1708 26.383 19.7739 26.383 19.7739C26.383 19.7739 26.2025 20.6306 25.7259 21.6466C23.5898 26.1929 20.0545 28.9203 15.0076 29.5459C13.0298 29.5732 11.0502 29.6158 9.07233 29.6243C6.07829 29.6363 3.08595 29.6277 0 29.6277C0.142979 29.1044 0.265532 28.651 0.389787 28.1975C0.571914 27.5037 0.811914 26.6634 0.994042 25.9696L1.06042 25.6372L1.23404 24.957C2.44425 20.3323 3.65617 15.7093 4.86808 11.0846C4.89021 11.0045 4.94127 10.9329 4.99744 10.817L5.27424 10.7902C6.22818 10.6982 7.21106 10.6033 8.36084 10.4914C7.8434 12.5029 7.38382 14.2996 6.91744 16.0946C6.0851 19.301 5.25787 22.5074 4.4 25.7071C4.28255 26.1503 4.35915 26.3395 4.8051 26.3736C7.13361 26.4043 9.46042 26.4332 11.7889 26.4639C12.24 26.4758 12.6894 26.4895 13.1404 26.5014C18.4391 26.4963 22.1651 22.5739 23.1881 18.9839C24.5821 14.0967 22.131 9.77713 17.2204 8.56683L5.66127 8.48501C4.86808 8.4799 4.07319 8.47649 3.28 8.47137C2.44425 11.8466 1.60851 15.2218 0.765957 18.5953L0 21.9899L0.0204255 13.3364V5.2871H6.3234C6.71319 3.8211 7.14382 2.36192 7.47233 0.882289C7.61191 0.256684 7.89787 0.0333753 8.49021 0.0453078C9.41616 0.0623543 10.3438 0.0572404 11.2698 0.0606497L14.3302 0.0657636Z" fill="url(#paint0_linear_1281_7106)"/>
<defs>
<linearGradient id="paint0_linear_1281_7106" x1="0" y1="16" x2="32" y2="16" gradientUnits="userSpaceOnUse">
<stop stop-color="#604CC3"/>
<stop offset="1" stop-color="#2E245D"/>
</linearGradient>
</defs>
</svg>
