<svg width="117" height="41" viewBox="0 0 117 41" fill="none" xmlns="http://www.w3.org/2000/svg">
<path d="M68.1691 11.0942C68.1691 14.0567 65.8516 16.2397 63.0074 16.2397C60.1632 16.2397 57.8457 14.0567 57.8457 11.0942C57.8457 8.11085 60.1632 5.94873 63.0074 5.94873C65.8516 5.94873 68.1691 8.11085 68.1691 11.0942ZM65.9096 11.0942C65.9096 9.24294 64.5663 7.97629 63.0074 7.97629C61.4485 7.97629 60.1053 9.24294 60.1053 11.0942C60.1053 12.9269 61.4485 14.2121 63.0074 14.2121C64.5663 14.2121 65.9096 12.9246 65.9096 11.0942Z" fill="#EA4335"/>
<path d="M79.3048 11.0942C79.3048 14.0567 76.9873 16.2397 74.1431 16.2397C71.299 16.2397 68.9814 14.0567 68.9814 11.0942C68.9814 8.11317 71.299 5.94873 74.1431 5.94873C76.9873 5.94873 79.3048 8.11085 79.3048 11.0942ZM77.0453 11.0942C77.0453 9.24294 75.7021 7.97629 74.1431 7.97629C72.5842 7.97629 71.241 9.24294 71.241 11.0942C71.241 12.9269 72.5842 14.2121 74.1431 14.2121C75.7021 14.2121 77.0453 12.9246 77.0453 11.0942Z" fill="#FBBC05"/>
<path d="M89.9764 6.25959V15.4973C89.9764 19.2973 87.7354 20.8493 85.0861 20.8493C82.5922 20.8493 81.0913 19.1813 80.5252 17.8172L82.4925 16.9983C82.8428 17.8357 83.7011 18.824 85.0838 18.824C86.7796 18.824 87.8305 17.7777 87.8305 15.8082V15.0681H87.7516C87.2459 15.6922 86.2715 16.2374 85.042 16.2374C82.4693 16.2374 80.1123 13.9964 80.1123 11.1128C80.1123 8.20828 82.4693 5.94873 85.042 5.94873C86.2692 5.94873 87.2436 6.4939 87.7516 7.09938H87.8305V6.26191H89.9764V6.25959ZM87.9906 11.1128C87.9906 9.30094 86.7819 7.97629 85.2438 7.97629C83.6849 7.97629 82.3788 9.30094 82.3788 11.1128C82.3788 12.906 83.6849 14.2121 85.2438 14.2121C86.7819 14.2121 87.9906 12.906 87.9906 11.1128Z" fill="#4285F4"/>
<path d="M93.5134 0.843262V15.9224H91.3096V0.843262H93.5134Z" fill="#34A853"/>
<path d="M102.102 12.79L103.856 13.9593C103.29 14.7967 101.926 16.2397 99.5689 16.2397C96.6459 16.2397 94.4629 13.9801 94.4629 11.0942C94.4629 8.03429 96.6644 5.94873 99.316 5.94873C101.986 5.94873 103.292 8.07373 103.719 9.22206L103.953 9.80667L97.0751 12.6555C97.6017 13.6878 98.4206 14.2144 99.5689 14.2144C100.72 14.2144 101.518 13.6484 102.102 12.79ZM96.7039 10.9388L101.302 9.02951C101.049 8.38691 100.288 7.93918 99.3926 7.93918C98.2443 7.93918 96.6459 8.95296 96.7039 10.9388Z" fill="#EA4335"/>
<path d="M49.5037 9.75485V7.57186H56.86C56.9319 7.95232 56.969 8.40237 56.969 8.88954C56.969 10.5274 56.5213 12.5526 55.0783 13.9956C53.6748 15.4571 51.8815 16.2366 49.506 16.2366C45.1029 16.2366 41.4004 12.6501 41.4004 8.24694C41.4004 3.84384 45.1029 0.257324 49.506 0.257324C51.9419 0.257324 53.6771 1.21311 54.9809 2.45888L53.4405 3.99927C52.5056 3.12236 51.2389 2.44032 49.5037 2.44032C46.2883 2.44032 43.7736 5.03161 43.7736 8.24694C43.7736 11.4623 46.2883 14.0536 49.5037 14.0536C51.5892 14.0536 52.777 13.2161 53.5379 12.4552C54.155 11.8381 54.561 10.9566 54.7211 9.75253L49.5037 9.75485Z" fill="#4285F4"/>
<path d="M47.4374 24.352L45.172 30.6184H49.7942L47.5105 24.352H47.4374ZM43.2172 36.0444H41.2441L46.4692 22.1597H48.497L53.7221 36.0444H51.749L50.4153 32.2809H44.5691L43.2172 36.0444Z" fill="#747474"/>
<path d="M54.6211 26.5406H56.3384V27.856H56.4115C56.6764 27.3947 57.092 27.011 57.6538 26.705C58.2247 26.3899 58.8093 26.23 59.4076 26.23C60.5769 26.23 61.4721 26.568 62.0932 27.2348C62.7235 27.8925 63.0432 28.838 63.0432 30.0666V36.0406H61.2528V30.1944C61.2163 28.637 60.4353 27.856 58.9144 27.856C58.2064 27.856 57.6081 28.1483 57.124 28.7329C56.649 29.3084 56.4115 29.9889 56.4115 30.7791V36.0406H54.6211V26.5406Z" fill="#747474"/>
<path d="M66.3481 33.1358C66.3481 33.6017 66.54 33.9899 66.9327 34.305C67.321 34.611 67.7823 34.7618 68.3212 34.7618C69.0611 34.7618 69.7279 34.4877 70.3126 33.9396C70.9063 33.3824 71.2078 32.7247 71.2078 31.9666C70.646 31.5281 69.865 31.3089 68.8693 31.3089C68.1477 31.3089 67.5448 31.487 67.0606 31.8387C66.5856 32.1812 66.3481 32.6151 66.3481 33.1358ZM68.6501 26.23C69.9654 26.23 70.9977 26.5863 71.7558 27.2896C72.5231 27.9976 72.9068 28.9658 72.9068 30.1944V36.0406H71.2078V34.7252H71.1347C70.3902 35.8122 69.4037 36.3512 68.1751 36.3512C67.1246 36.3512 66.2476 36.0406 65.5443 35.4195C64.85 34.7983 64.5029 34.0264 64.5029 33.0993C64.5029 32.1127 64.8729 31.3363 65.6174 30.7608C66.3573 30.1762 67.3529 29.8839 68.5952 29.8839C69.6549 29.8839 70.5227 30.0757 71.2078 30.4502V30.0483C71.2078 29.4271 70.9566 28.9065 70.4587 28.4771C69.97 28.0387 69.3991 27.8194 68.7414 27.8194C67.7412 27.8194 66.9556 28.2396 66.3847 29.08L64.8135 28.0935C65.6767 26.8512 66.9556 26.23 68.6501 26.23Z" fill="#747474"/>
<path d="M76.641 22.1597V36.0444H74.8506V22.1597H76.641Z" fill="#747474"/>
<path d="M87.167 26.5425L81.2112 40.2262H79.3843L81.5949 35.4397L77.667 26.5425H79.6035L82.4353 33.3752H82.4718L85.2305 26.5425H87.167Z" fill="#747474"/>
<path d="M92.0721 36.1911C91.3048 36.1911 90.6654 35.9536 90.1539 35.4786C89.6423 35.0036 89.3774 34.3413 89.3683 33.4872V28.1708H87.6875V26.5449H89.3683V23.6401H91.1404V26.5449H93.4789V28.1708H91.1404V32.9026C91.1404 33.5375 91.2591 33.9713 91.5058 34.1997C91.7615 34.4189 92.0402 34.5286 92.3462 34.5286C92.4923 34.5286 92.6293 34.5194 92.7664 34.492C92.8988 34.4555 93.0267 34.4144 93.15 34.3641L93.6981 35.9536C93.2322 36.1089 92.6933 36.1911 92.0721 36.1911Z" fill="#747474"/>
<path d="M97.3825 23.2717C97.3825 23.6143 97.2546 23.9112 96.9988 24.1669C96.7522 24.4136 96.4599 24.5323 96.1219 24.5323C95.7657 24.5323 95.4688 24.4136 95.2267 24.1669C94.9801 23.9112 94.8613 23.6143 94.8613 23.2717C94.8613 22.9201 94.9801 22.6232 95.2267 22.3765C95.4688 22.1345 95.7657 22.0112 96.1219 22.0112C96.4599 22.0112 96.7522 22.1345 96.9988 22.3765C97.2546 22.6232 97.3825 22.9201 97.3825 23.2717ZM97.0171 26.5419V36.042H95.2267V26.5419H97.0171Z" fill="#747474"/>
<path d="M103.031 36.3512C101.615 36.3512 100.446 35.8716 99.5235 34.9079C98.6101 33.9351 98.1533 32.7293 98.1533 31.2906C98.1533 29.8291 98.6101 28.6233 99.5235 27.6733C100.446 26.7141 101.615 26.23 103.031 26.23C104.004 26.23 104.849 26.4766 105.571 26.9608C106.288 27.4495 106.831 28.1209 107.197 28.9704L105.571 29.6464C105.068 28.4543 104.187 27.856 102.922 27.856C102.104 27.856 101.396 28.1848 100.802 28.8425C100.218 29.5002 99.9254 30.3178 99.9254 31.2906C99.9254 32.268 100.218 33.081 100.802 33.7387C101.396 34.3964 102.104 34.7252 102.922 34.7252C104.223 34.7252 105.137 34.1315 105.662 32.9348L107.251 33.6108C106.909 34.4649 106.365 35.1363 105.625 35.6204C104.881 36.1046 104.018 36.3512 103.031 36.3512Z" fill="#747474"/>
<path d="M116.075 33.4098C116.075 34.2411 115.71 34.9399 114.979 35.5108C114.257 36.068 113.353 36.3512 112.257 36.3512C111.307 36.3512 110.466 36.1 109.736 35.6022C109.014 35.1043 108.498 34.4466 108.183 33.6291L109.772 32.9531C110.014 33.5286 110.357 33.9716 110.795 34.2868C111.243 34.6065 111.731 34.7618 112.257 34.7618C112.828 34.7618 113.303 34.643 113.682 34.3964C114.07 34.1543 114.266 33.862 114.266 33.5195C114.266 32.912 113.796 32.469 112.86 32.1858L111.234 31.7839C109.379 31.3089 108.457 30.4137 108.457 29.0983C108.457 28.2351 108.808 27.5408 109.516 27.0156C110.22 26.4949 111.124 26.23 112.22 26.23C113.061 26.23 113.819 26.431 114.504 26.8329C115.184 27.2348 115.659 27.7738 115.929 28.4406L114.339 29.0983C114.157 28.6964 113.855 28.3858 113.444 28.1666C113.042 27.9382 112.59 27.8194 112.092 27.8194C111.626 27.8194 111.206 27.9382 110.832 28.1666C110.466 28.3995 110.284 28.6872 110.284 29.0252C110.284 29.5642 110.795 29.9524 111.818 30.1944L113.243 30.5598C115.13 31.0257 116.075 31.9757 116.075 33.4098Z" fill="#747474"/>
<path d="M24.3721 4.90382V34.3314C24.3721 37.6267 26.6432 39.459 29.0537 39.459C31.2831 39.459 33.7354 37.8984 33.7354 34.3314V5.12676C33.7354 2.11016 31.506 0.222168 29.0537 0.222168C26.6014 0.222168 24.3721 2.30523 24.3721 4.90382Z" fill="#F8AB00"/>
<path d="M12.1104 19.8374V34.3283C12.1104 37.6236 14.3815 39.4558 16.792 39.4558C19.0214 39.4558 21.4737 37.8953 21.4737 34.3283V20.0604C21.4737 17.0438 19.2443 15.1558 16.792 15.1558C14.3397 15.1558 12.1104 17.2389 12.1104 19.8374Z" fill="#E37300"/>
<path d="M9.21195 34.7789C9.21195 37.3635 7.11496 39.4605 4.53029 39.4605C1.94563 39.4605 -0.151367 37.3635 -0.151367 34.7789C-0.151367 32.1942 1.94563 30.0972 4.53029 30.0972C7.11496 30.0972 9.21195 32.1942 9.21195 34.7789Z" fill="#E37300"/>
</svg>
