<svg width="30" height="30" viewBox="0 0 30 30" fill="none" xmlns="http://www.w3.org/2000/svg">
<path d="M14.9993 10.0071C12.2352 10.0071 10.0067 12.2571 10.0067 15C10.0067 17.7429 12.2566 19.9929 14.9993 19.9929C17.7421 19.9929 19.992 17.7429 19.992 15C19.992 12.2571 17.7421 10.0071 14.9993 10.0071ZM29.9987 15C29.9987 12.9214 29.9987 10.8857 29.8915 8.80714C29.7844 6.40714 29.2273 4.26429 27.4702 2.52857C25.7131 0.771429 23.5918 0.214286 21.1919 0.107143C19.1134 -1.03776e-07 17.0778 0 14.9993 0C12.9209 0 10.8852 -1.03776e-07 8.80675 0.107143C6.40686 0.214286 4.2641 0.771429 2.52846 2.52857C0.771394 4.28571 0.214276 6.40714 0.107138 8.80714C-1.03771e-07 10.8857 0 12.9214 0 15C0 17.0786 -1.03771e-07 19.1143 0.107138 21.1929C0.214276 23.5929 0.771394 25.7357 2.52846 27.4714C4.28552 29.2286 6.40686 29.7857 8.80675 29.8929C10.8852 30 12.9209 30 14.9993 30C17.0778 30 19.1134 30 21.1919 29.8929C23.5918 29.7857 25.7346 29.2286 27.4702 27.4714C29.2273 25.7143 29.7844 23.5929 29.8915 21.1929C30.0201 19.1357 29.9987 17.0786 29.9987 15ZM14.9993 22.6929C10.7352 22.6929 7.30682 19.2643 7.30682 15C7.30682 10.7357 10.7352 7.30714 14.9993 7.30714C19.2634 7.30714 22.6918 10.7357 22.6918 15C22.6918 19.2643 19.2634 22.6929 14.9993 22.6929ZM23.0133 8.78571C22.0276 8.78571 21.2133 7.99286 21.2133 6.98571C21.2133 5.97857 22.0062 5.18571 23.0133 5.18571C24.0204 5.18571 24.8132 5.97857 24.8132 6.98571C24.8186 7.22044 24.7758 7.45377 24.6873 7.67125C24.5988 7.88873 24.4666 8.08571 24.2989 8.25C24.1346 8.41773 23.9377 8.54993 23.7202 8.63839C23.5027 8.72686 23.2694 8.76971 23.0347 8.76429L23.0133 8.78571Z" fill="url(#paint0_linear_772_10265)"/>
<defs>
<linearGradient id="paint0_linear_772_10265" x1="30" y1="15" x2="0" y2="15" gradientUnits="userSpaceOnUse">
<stop stop-color="#2E245D"/>
<stop offset="1" stop-color="#604CC3"/>
</linearGradient>
</defs>
</svg>
