<svg width="192" height="65" viewBox="0 0 192 65" fill="none" xmlns="http://www.w3.org/2000/svg">
<path d="M28.6604 0.631527C46.9787 -0.936747 61.2323 11.7254 63.7378 27.6161C63.9962 30.1243 63.9963 30.2011 63.9998 31.7949L63.9999 31.8655C64.0135 38.0332 61.4365 45.9152 59.234 49.5938C57.634 52.2599 58.0255 51.6258 56 54.0259C52.1974 58.533 45.8451 61.5161 40.3404 63.231C36.9361 63.9128 36.7659 63.9128 32.5106 64.4242C31.6595 64.4242 28.9361 64.5947 27.2891 64.4242L30.6383 63.4014C30.6383 63.4014 34.7472 62.0772 36.7625 61.2726C45.7327 57.6826 52.7761 52.013 55.9046 42.5317C56.9531 39.3611 57.9404 35.8938 57.7463 32.6346C57.0757 21.3703 50.737 10.4332 36.6502 7.64785C31.5098 6.63188 26.0664 7.13987 20.7047 6.94895C20.3847 8.38767 20.1362 9.52296 19.8298 10.8935H23.5608L27.9796 10.873C31.217 10.6787 37.5081 11.9436 37.5081 11.9436C44.66 13.4013 55.5302 24.3466 53.5455 36.6575C53.5182 36.8416 52.7659 40.0478 52.7659 40.0478C52.7659 40.0478 52.4051 41.7612 51.4519 43.7932C47.1795 52.8858 40.1089 58.3406 30.0153 59.5918C26.0596 59.6464 22.1004 59.7316 18.1447 59.7487C12.1566 59.7725 6.17191 59.7555 0 59.7555C0.285957 58.7088 0.531063 57.802 0.779574 56.8951C1.14383 55.5075 1.62383 53.8267 1.98808 52.4391L2.12085 51.7743L2.46808 50.414C4.88851 41.1646 7.31233 31.9186 9.73616 22.6692C9.78042 22.509 9.88255 22.3658 9.99489 22.1339L10.548 22.0805C12.456 21.8963 14.4219 21.7065 16.7217 21.4828C15.6868 25.5057 14.7676 29.0991 13.8349 32.6891C12.1702 39.102 10.5157 45.5149 8.79999 51.9141C8.5651 52.8005 8.71829 53.179 9.6102 53.2471C14.2672 53.3085 18.9208 53.3665 23.5779 53.4278C24.48 53.4517 25.3787 53.479 26.2808 53.5028C36.8783 53.4926 44.3302 45.6478 46.3761 38.4679C49.1642 28.6934 43.7568 18.6997 34.4408 17.6337C25.2719 16.5844 19.0298 17.5246 11.3225 17.47C9.73616 17.4598 8.14638 17.453 6.55999 17.4427C4.88851 24.1931 3.21702 30.9435 1.53191 37.6905L0 44.4799L0.040851 27.1729V11.0742H12.6468C13.4264 8.1422 14.2876 5.22384 14.9447 2.26458C15.2238 1.01337 15.7957 0.566751 16.9804 0.590616C18.8323 0.624709 20.6876 0.614481 22.5396 0.621299L28.6604 0.631527Z" fill="white"/>
<path d="M84.176 41.5V38.188H88.376C89.4 38.188 90.296 37.988 91.064 37.588C91.832 37.172 92.424 36.572 92.84 35.788C93.256 35.004 93.464 34.076 93.464 33.004C93.464 31.932 93.248 31.012 92.816 30.244C92.4 29.476 91.808 28.884 91.04 28.468C90.288 28.052 89.4 27.844 88.376 27.844H84.056V24.556H88.424C89.704 24.556 90.88 24.764 91.952 25.18C93.04 25.58 93.984 26.164 94.784 26.932C95.6 27.684 96.224 28.58 96.656 29.62C97.104 30.644 97.328 31.78 97.328 33.028C97.328 34.26 97.104 35.396 96.656 36.436C96.224 37.476 95.608 38.372 94.808 39.124C94.008 39.876 93.064 40.46 91.976 40.876C90.904 41.292 89.736 41.5 88.472 41.5H84.176ZM81.632 41.5V24.556H85.4V41.5H81.632ZM104.262 41.74C103.19 41.74 102.23 41.476 101.382 40.948C100.55 40.42 99.8858 39.7 99.3898 38.788C98.9098 37.876 98.6698 36.836 98.6698 35.668C98.6698 34.5 98.9098 33.46 99.3898 32.548C99.8858 31.636 100.55 30.916 101.382 30.388C102.23 29.86 103.19 29.596 104.262 29.596C105.046 29.596 105.75 29.748 106.374 30.052C107.014 30.356 107.534 30.78 107.934 31.324C108.334 31.852 108.558 32.46 108.606 33.148V38.188C108.558 38.876 108.334 39.492 107.934 40.036C107.55 40.564 107.038 40.98 106.398 41.284C105.758 41.588 105.046 41.74 104.262 41.74ZM105.006 38.428C105.79 38.428 106.422 38.172 106.902 37.66C107.382 37.132 107.622 36.468 107.622 35.668C107.622 35.124 107.51 34.644 107.286 34.228C107.078 33.812 106.774 33.492 106.374 33.268C105.99 33.028 105.542 32.908 105.03 32.908C104.518 32.908 104.062 33.028 103.662 33.268C103.278 33.492 102.966 33.812 102.726 34.228C102.502 34.644 102.39 35.124 102.39 35.668C102.39 36.196 102.502 36.668 102.726 37.084C102.95 37.5 103.262 37.828 103.662 38.068C104.062 38.308 104.51 38.428 105.006 38.428ZM107.478 41.5V38.356L108.03 35.524L107.478 32.692V29.836H111.078V41.5H107.478ZM115.319 41.5V25.012H118.991V41.5H115.319ZM112.679 32.956V29.836H121.631V32.956H112.679ZM127.887 41.74C126.815 41.74 125.855 41.476 125.007 40.948C124.175 40.42 123.511 39.7 123.015 38.788C122.535 37.876 122.295 36.836 122.295 35.668C122.295 34.5 122.535 33.46 123.015 32.548C123.511 31.636 124.175 30.916 125.007 30.388C125.855 29.86 126.815 29.596 127.887 29.596C128.671 29.596 129.375 29.748 129.999 30.052C130.639 30.356 131.159 30.78 131.559 31.324C131.959 31.852 132.183 32.46 132.231 33.148V38.188C132.183 38.876 131.959 39.492 131.559 40.036C131.175 40.564 130.663 40.98 130.023 41.284C129.383 41.588 128.671 41.74 127.887 41.74ZM128.631 38.428C129.415 38.428 130.047 38.172 130.527 37.66C131.007 37.132 131.247 36.468 131.247 35.668C131.247 35.124 131.135 34.644 130.911 34.228C130.703 33.812 130.399 33.492 129.999 33.268C129.615 33.028 129.167 32.908 128.655 32.908C128.143 32.908 127.687 33.028 127.287 33.268C126.903 33.492 126.591 33.812 126.351 34.228C126.127 34.644 126.015 35.124 126.015 35.668C126.015 36.196 126.127 36.668 126.351 37.084C126.575 37.5 126.887 37.828 127.287 38.068C127.687 38.308 128.135 38.428 128.631 38.428ZM131.103 41.5V38.356L131.655 35.524L131.103 32.692V29.836H134.703V41.5H131.103ZM140.168 41.5V38.188H144.368C145.392 38.188 146.288 37.988 147.056 37.588C147.824 37.172 148.416 36.572 148.832 35.788C149.248 35.004 149.456 34.076 149.456 33.004C149.456 31.932 149.24 31.012 148.808 30.244C148.392 29.476 147.8 28.884 147.032 28.468C146.28 28.052 145.392 27.844 144.368 27.844H140.048V24.556H144.416C145.696 24.556 146.872 24.764 147.944 25.18C149.032 25.58 149.976 26.164 150.776 26.932C151.592 27.684 152.216 28.58 152.648 29.62C153.096 30.644 153.32 31.78 153.32 33.028C153.32 34.26 153.096 35.396 152.648 36.436C152.216 37.476 151.6 38.372 150.8 39.124C150 39.876 149.056 40.46 147.968 40.876C146.896 41.292 145.728 41.5 144.464 41.5H140.168ZM137.624 41.5V24.556H141.392V41.5H137.624ZM160.254 41.74C159.182 41.74 158.222 41.476 157.374 40.948C156.542 40.42 155.878 39.7 155.382 38.788C154.902 37.876 154.662 36.836 154.662 35.668C154.662 34.5 154.902 33.46 155.382 32.548C155.878 31.636 156.542 30.916 157.374 30.388C158.222 29.86 159.182 29.596 160.254 29.596C161.038 29.596 161.742 29.748 162.366 30.052C163.006 30.356 163.526 30.78 163.926 31.324C164.326 31.852 164.55 32.46 164.598 33.148V38.188C164.55 38.876 164.326 39.492 163.926 40.036C163.542 40.564 163.03 40.98 162.39 41.284C161.75 41.588 161.038 41.74 160.254 41.74ZM160.998 38.428C161.782 38.428 162.414 38.172 162.894 37.66C163.374 37.132 163.614 36.468 163.614 35.668C163.614 35.124 163.502 34.644 163.278 34.228C163.07 33.812 162.766 33.492 162.366 33.268C161.982 33.028 161.534 32.908 161.022 32.908C160.51 32.908 160.054 33.028 159.654 33.268C159.27 33.492 158.958 33.812 158.718 34.228C158.494 34.644 158.382 35.124 158.382 35.668C158.382 36.196 158.494 36.668 158.718 37.084C158.942 37.5 159.254 37.828 159.654 38.068C160.054 38.308 160.502 38.428 160.998 38.428ZM163.47 41.5V38.356L164.022 35.524L163.47 32.692V29.836H167.07V41.5H163.47ZM174.839 41.764C173.767 41.764 172.815 41.548 171.983 41.116C171.167 40.668 170.527 40.06 170.063 39.292C169.599 38.508 169.367 37.612 169.367 36.604V29.836H173.039V36.556C173.039 36.956 173.103 37.3 173.231 37.588C173.375 37.876 173.583 38.1 173.855 38.26C174.127 38.42 174.455 38.5 174.839 38.5C175.383 38.5 175.815 38.332 176.135 37.996C176.455 37.644 176.615 37.164 176.615 36.556V29.836H180.287V36.58C180.287 37.604 180.055 38.508 179.591 39.292C179.127 40.06 178.487 40.668 177.671 41.116C176.855 41.548 175.911 41.764 174.839 41.764ZM182.593 41.5V29.836H186.265V41.5H182.593ZM186.265 35.092L184.729 33.892C185.033 32.532 185.545 31.476 186.265 30.724C186.985 29.972 187.985 29.596 189.265 29.596C189.825 29.596 190.313 29.684 190.729 29.86C191.161 30.02 191.537 30.276 191.857 30.628L189.673 33.388C189.513 33.212 189.313 33.076 189.073 32.98C188.833 32.884 188.561 32.836 188.257 32.836C187.649 32.836 187.161 33.028 186.793 33.412C186.441 33.78 186.265 34.34 186.265 35.092Z" fill="white"/>
</svg>
