<svg width="174" height="48" viewBox="0 0 174 48" fill="none" xmlns="http://www.w3.org/2000/svg">
<path d="M21.4953 0.0986454C35.234 -1.07756 45.9242 8.41902 47.8034 20.3371C47.9971 22.2182 47.9973 22.2758 47.9998 23.4712L48 23.5241C48.0101 28.1499 46.0774 34.0614 44.4255 36.8204C43.2255 38.8199 43.5191 38.3443 42 40.1444C39.1481 43.5247 34.3838 45.7621 30.2553 47.0482C27.7021 47.5596 27.5744 47.5596 24.383 47.9432C23.7447 47.9432 21.7021 48.071 20.4668 47.9432L22.9787 47.1761C22.9787 47.1761 26.0604 46.1829 27.5719 45.5795C34.2995 42.887 39.5821 38.6347 41.9285 31.5238C42.7149 29.1458 43.4553 26.5454 43.3098 24.1009C42.8068 15.6527 38.0527 7.44993 27.4876 5.36089C23.6323 4.59891 19.5498 4.9799 15.5285 4.83671C15.2885 5.91575 15.1021 6.76722 14.8723 7.79512H17.6706L20.9847 7.77978C23.4127 7.63403 25.823 7.66472 28.131 8.58267C35.3081 9.66682 41.6476 17.8849 40.1591 27.1181C40.1387 27.2562 39.5744 29.6608 39.5744 29.6608C39.5744 29.6608 39.3038 30.9459 38.5889 32.4699C35.3847 39.2893 30.0817 43.3805 22.5115 44.3189C19.5447 44.3598 16.5753 44.4237 13.6085 44.4365C9.11744 44.4544 4.62893 44.4416 0 44.4416C0.214468 43.6566 0.398298 42.9765 0.58468 42.2963C0.857872 41.2556 1.21787 39.995 1.49106 38.9544L1.59064 38.4557L1.85106 37.4355C3.66638 30.4985 5.48425 23.564 7.30212 16.6269C7.33531 16.5067 7.41191 16.3993 7.49616 16.2255L7.91037 16.1855C9.34159 16.0473 10.8162 15.9049 12.5413 15.7371C11.7651 18.7543 11.0757 21.4493 10.3762 24.1418C9.12765 28.9515 7.8868 33.7611 6.59999 38.5606C6.42382 39.2254 6.53872 39.5092 7.20765 39.5604C10.7004 39.6064 14.1906 39.6498 17.6834 39.6959C18.36 39.7138 19.034 39.7342 19.7106 39.7521C27.6587 39.7445 33.2476 33.8609 34.7821 28.4759C36.8732 21.1451 33.1966 14.6657 25.8306 12.8503L8.49191 12.7275C7.30212 12.7198 6.10978 12.7147 4.92 12.7071C3.66638 17.7699 2.41276 22.8327 1.14894 27.8929L0 32.9849L0.0306383 20.0047V7.93064H9.4851C10.0698 5.73165 10.7157 3.54288 11.2085 1.32343C11.4179 0.385026 11.8468 0.050063 12.7353 0.0679618C14.1242 0.0935315 15.5157 0.0858605 16.9047 0.0909745L21.4953 0.0986454Z" fill="url(#paint0_linear_651_52)"/>
<path d="M65.8001 33V29.688H70.0001C71.0241 29.688 71.9201 29.488 72.6881 29.088C73.4561 28.672 74.0481 28.072 74.4641 27.288C74.8801 26.504 75.0881 25.576 75.0881 24.504C75.0881 23.432 74.8721 22.512 74.4401 21.744C74.0241 20.976 73.4321 20.384 72.6641 19.968C71.9121 19.552 71.0241 19.344 70.0001 19.344H65.6801V16.056H70.0481C71.3281 16.056 72.5041 16.264 73.5761 16.68C74.6641 17.08 75.6081 17.664 76.4081 18.432C77.2241 19.184 77.8481 20.08 78.2801 21.12C78.7281 22.144 78.9521 23.28 78.9521 24.528C78.9521 25.76 78.7281 26.896 78.2801 27.936C77.8481 28.976 77.2321 29.872 76.4321 30.624C75.6321 31.376 74.6881 31.96 73.6001 32.376C72.5281 32.792 71.3601 33 70.0961 33H65.8001ZM63.2561 33V16.056H67.0241V33H63.2561ZM85.8858 33.24C84.8138 33.24 83.8538 32.976 83.0058 32.448C82.1738 31.92 81.5098 31.2 81.0138 30.288C80.5338 29.376 80.2938 28.336 80.2938 27.168C80.2938 26 80.5338 24.96 81.0138 24.048C81.5098 23.136 82.1738 22.416 83.0058 21.888C83.8538 21.36 84.8138 21.096 85.8858 21.096C86.6698 21.096 87.3738 21.248 87.9978 21.552C88.6378 21.856 89.1578 22.28 89.5578 22.824C89.9578 23.352 90.1818 23.96 90.2298 24.648V29.688C90.1818 30.376 89.9578 30.992 89.5578 31.536C89.1738 32.064 88.6618 32.48 88.0218 32.784C87.3818 33.088 86.6698 33.24 85.8858 33.24ZM86.6298 29.928C87.4138 29.928 88.0458 29.672 88.5258 29.16C89.0058 28.632 89.2458 27.968 89.2458 27.168C89.2458 26.624 89.1338 26.144 88.9098 25.728C88.7018 25.312 88.3978 24.992 87.9978 24.768C87.6138 24.528 87.1658 24.408 86.6538 24.408C86.1418 24.408 85.6858 24.528 85.2858 24.768C84.9018 24.992 84.5898 25.312 84.3498 25.728C84.1258 26.144 84.0138 26.624 84.0138 27.168C84.0138 27.696 84.1258 28.168 84.3498 28.584C84.5738 29 84.8858 29.328 85.2858 29.568C85.6858 29.808 86.1338 29.928 86.6298 29.928ZM89.1018 33V29.856L89.6538 27.024L89.1018 24.192V21.336H92.7018V33H89.1018ZM96.9432 33V16.512H100.615V33H96.9432ZM94.3032 24.456V21.336H103.255V24.456H94.3032ZM109.511 33.24C108.439 33.24 107.479 32.976 106.631 32.448C105.799 31.92 105.135 31.2 104.639 30.288C104.159 29.376 103.919 28.336 103.919 27.168C103.919 26 104.159 24.96 104.639 24.048C105.135 23.136 105.799 22.416 106.631 21.888C107.479 21.36 108.439 21.096 109.511 21.096C110.295 21.096 110.999 21.248 111.623 21.552C112.263 21.856 112.783 22.28 113.183 22.824C113.583 23.352 113.807 23.96 113.855 24.648V29.688C113.807 30.376 113.583 30.992 113.183 31.536C112.799 32.064 112.287 32.48 111.647 32.784C111.007 33.088 110.295 33.24 109.511 33.24ZM110.255 29.928C111.039 29.928 111.671 29.672 112.151 29.16C112.631 28.632 112.871 27.968 112.871 27.168C112.871 26.624 112.759 26.144 112.535 25.728C112.327 25.312 112.023 24.992 111.623 24.768C111.239 24.528 110.791 24.408 110.279 24.408C109.767 24.408 109.311 24.528 108.911 24.768C108.527 24.992 108.215 25.312 107.975 25.728C107.751 26.144 107.639 26.624 107.639 27.168C107.639 27.696 107.751 28.168 107.975 28.584C108.199 29 108.511 29.328 108.911 29.568C109.311 29.808 109.759 29.928 110.255 29.928ZM112.727 33V29.856L113.279 27.024L112.727 24.192V21.336H116.327V33H112.727ZM121.792 33V29.688H125.992C127.016 29.688 127.912 29.488 128.68 29.088C129.448 28.672 130.04 28.072 130.456 27.288C130.872 26.504 131.08 25.576 131.08 24.504C131.08 23.432 130.864 22.512 130.432 21.744C130.016 20.976 129.424 20.384 128.656 19.968C127.904 19.552 127.016 19.344 125.992 19.344H121.672V16.056H126.04C127.32 16.056 128.496 16.264 129.568 16.68C130.656 17.08 131.6 17.664 132.4 18.432C133.216 19.184 133.84 20.08 134.272 21.12C134.72 22.144 134.944 23.28 134.944 24.528C134.944 25.76 134.72 26.896 134.272 27.936C133.84 28.976 133.224 29.872 132.424 30.624C131.624 31.376 130.68 31.96 129.592 32.376C128.52 32.792 127.352 33 126.088 33H121.792ZM119.248 33V16.056H123.016V33H119.248ZM141.878 33.24C140.806 33.24 139.846 32.976 138.998 32.448C138.166 31.92 137.502 31.2 137.006 30.288C136.526 29.376 136.286 28.336 136.286 27.168C136.286 26 136.526 24.96 137.006 24.048C137.502 23.136 138.166 22.416 138.998 21.888C139.846 21.36 140.806 21.096 141.878 21.096C142.662 21.096 143.366 21.248 143.99 21.552C144.63 21.856 145.15 22.28 145.55 22.824C145.95 23.352 146.174 23.96 146.222 24.648V29.688C146.174 30.376 145.95 30.992 145.55 31.536C145.166 32.064 144.654 32.48 144.014 32.784C143.374 33.088 142.662 33.24 141.878 33.24ZM142.622 29.928C143.406 29.928 144.038 29.672 144.518 29.16C144.998 28.632 145.238 27.968 145.238 27.168C145.238 26.624 145.126 26.144 144.902 25.728C144.694 25.312 144.39 24.992 143.99 24.768C143.606 24.528 143.158 24.408 142.646 24.408C142.134 24.408 141.678 24.528 141.278 24.768C140.894 24.992 140.582 25.312 140.342 25.728C140.118 26.144 140.006 26.624 140.006 27.168C140.006 27.696 140.118 28.168 140.342 28.584C140.566 29 140.878 29.328 141.278 29.568C141.678 29.808 142.126 29.928 142.622 29.928ZM145.094 33V29.856L145.646 27.024L145.094 24.192V21.336H148.694V33H145.094ZM156.463 33.264C155.391 33.264 154.439 33.048 153.607 32.616C152.791 32.168 152.151 31.56 151.687 30.792C151.223 30.008 150.991 29.112 150.991 28.104V21.336H154.663V28.056C154.663 28.456 154.727 28.8 154.855 29.088C154.999 29.376 155.207 29.6 155.479 29.76C155.751 29.92 156.079 30 156.463 30C157.007 30 157.439 29.832 157.759 29.496C158.079 29.144 158.239 28.664 158.239 28.056V21.336H161.911V28.08C161.911 29.104 161.679 30.008 161.215 30.792C160.751 31.56 160.111 32.168 159.295 32.616C158.479 33.048 157.535 33.264 156.463 33.264ZM164.217 33V21.336H167.889V33H164.217ZM167.889 26.592L166.353 25.392C166.657 24.032 167.169 22.976 167.889 22.224C168.609 21.472 169.609 21.096 170.889 21.096C171.449 21.096 171.937 21.184 172.353 21.36C172.785 21.52 173.161 21.776 173.481 22.128L171.297 24.888C171.137 24.712 170.937 24.576 170.697 24.48C170.457 24.384 170.185 24.336 169.881 24.336C169.273 24.336 168.785 24.528 168.417 24.912C168.065 25.28 167.889 25.84 167.889 26.592Z" fill="url(#paint1_linear_651_52)"/>
<defs>
<linearGradient id="paint0_linear_651_52" x1="0" y1="24" x2="48" y2="24" gradientUnits="userSpaceOnUse">
<stop stop-color="#604CC3"/>
<stop offset="1" stop-color="#2E245D"/>
</linearGradient>
<linearGradient id="paint1_linear_651_52" x1="61.6241" y1="24" x2="173.624" y2="24" gradientUnits="userSpaceOnUse">
<stop stop-color="#604CC3"/>
<stop offset="1" stop-color="#2E245D"/>
</linearGradient>
</defs>
</svg>
