<svg width="150" height="39" viewBox="0 0 150 39" fill="none" xmlns="http://www.w3.org/2000/svg">
<g clip-path="url(#clip0_780_10437)">
<path d="M19.1083 38.3303C29.6615 38.3303 38.2166 29.7753 38.2166 19.222C38.2166 8.66883 29.6615 0.11377 19.1083 0.11377C8.55507 0.11377 0 8.66883 0 19.222C0 29.7753 8.55507 38.3303 19.1083 38.3303Z" fill="black"/>
<path d="M31.7427 33.5573L14.6798 11.5786H11.465V26.8588H14.0368V14.8448L29.7238 35.1126C30.4317 34.6389 31.106 34.1189 31.7427 33.5573Z" fill="url(#paint0_linear_780_10437)"/>
<path d="M26.964 11.5786H24.4163V26.8652H26.964V11.5786Z" fill="url(#paint1_linear_780_10437)"/>
<path d="M115.138 9.03711H132.623V12.2644H125.687V29.2425H122.219V12.2644H115.138V9.03711Z" fill="black"/>
<path d="M86.3823 9.03711V12.2644H72.3671V17.456H83.6381V20.6833H72.3671V26.0153H86.3823V29.2425H68.899V12.2644H68.8976V9.03711H86.3823Z" fill="black"/>
<path d="M95.1126 9.04834H90.574L106.831 29.2537H111.382L103.253 19.158L111.369 9.06376L106.831 9.07077L100.981 16.3359L95.1126 9.04834Z" fill="black"/>
<path d="M99.7701 23.4812L97.4971 20.6553L90.5614 29.2692H95.113L99.7701 23.4812Z" fill="black"/>
<path d="M69.0207 29.2435L52.7426 9.02979H48.4075V29.2351H51.8755V13.3487L64.6639 29.2435H69.0207Z" fill="black"/>
<path d="M133.403 29.1222C133.149 29.1222 132.933 29.0342 132.752 28.8583C132.571 28.6824 132.482 28.4693 132.484 28.2169C132.482 27.9714 132.571 27.7607 132.752 27.5848C132.933 27.4088 133.149 27.3208 133.403 27.3208C133.647 27.3208 133.861 27.4088 134.042 27.5848C134.225 27.7607 134.317 27.9714 134.32 28.2169C134.317 28.3836 134.275 28.5364 134.19 28.673C134.103 28.812 133.993 28.9208 133.854 28.9996C133.718 29.0806 133.567 29.1222 133.403 29.1222Z" fill="black"/>
<path d="M139.321 20.6104H140.859V26.5312C140.857 27.0754 140.738 27.5408 140.509 27.9322C140.276 28.3234 139.954 28.6222 139.54 28.8328C139.129 29.0412 138.648 29.1477 138.099 29.1477C137.599 29.1477 137.151 29.0575 136.751 28.8815C136.352 28.7055 136.035 28.4415 135.802 28.0942C135.567 27.7468 135.451 27.3138 135.451 26.7952H136.991C136.993 27.0221 137.045 27.219 137.143 27.3833C137.242 27.5477 137.378 27.6728 137.552 27.7608C137.729 27.8488 137.93 27.8927 138.159 27.8927C138.405 27.8927 138.617 27.8418 138.788 27.7375C138.959 27.6357 139.091 27.4829 139.183 27.2791C139.273 27.0776 139.319 26.8276 139.321 26.5312V20.6104Z" fill="black"/>
<path d="M147.183 22.9237C147.145 22.5647 146.98 22.2846 146.693 22.0854C146.405 21.884 146.031 21.7844 145.573 21.7844C145.251 21.7844 144.974 21.8331 144.743 21.9279C144.513 22.0252 144.334 22.1549 144.212 22.3193C144.09 22.4837 144.029 22.6713 144.024 22.882C144.024 23.058 144.066 23.2108 144.149 23.3381C144.231 23.4678 144.341 23.5766 144.484 23.6647C144.626 23.755 144.783 23.829 144.954 23.8892C145.128 23.9494 145.302 24.0004 145.476 24.0421L146.278 24.2389C146.6 24.3129 146.912 24.4126 147.21 24.5399C147.509 24.6649 147.78 24.8248 148.017 25.0169C148.254 25.2091 148.442 25.4406 148.58 25.7116C148.719 25.9825 148.79 26.2997 148.79 26.6656C148.79 27.1587 148.662 27.5918 148.406 27.9669C148.15 28.3397 147.782 28.6314 147.297 28.8422C146.816 29.0506 146.233 29.1571 145.547 29.1571C144.884 29.1571 144.306 29.0552 143.819 28.8514C143.331 28.65 142.95 28.3536 142.675 27.9645C142.401 27.5756 142.253 27.1008 142.232 26.5429H143.754C143.776 26.8346 143.869 27.0777 144.029 27.2745C144.191 27.4691 144.402 27.6127 144.661 27.7099C144.922 27.8048 145.213 27.8534 145.535 27.8534C145.872 27.8534 146.167 27.8025 146.423 27.7029C146.677 27.6034 146.877 27.4645 147.02 27.2838C147.166 27.1055 147.239 26.8948 147.241 26.654C147.239 26.4341 147.173 26.2511 147.046 26.1075C146.917 25.964 146.738 25.8435 146.51 25.7463C146.281 25.6491 146.012 25.5611 145.706 25.4847L144.734 25.2392C144.032 25.0609 143.475 24.79 143.068 24.4264C142.659 24.0629 142.457 23.5813 142.457 22.9769C142.457 22.4814 142.593 22.0461 142.868 21.6733C143.14 21.3005 143.515 21.011 143.987 20.8049C144.461 20.5966 144.997 20.4946 145.594 20.4946C146.2 20.4946 146.732 20.5966 147.189 20.8049C147.648 21.011 148.007 21.2981 148.268 21.6641C148.529 22.0299 148.665 22.449 148.672 22.9237H147.183Z" fill="black"/>
</g>
<defs>
<linearGradient id="paint0_linear_780_10437" x1="23.1422" y1="24.8483" x2="30.6794" y2="34.1901" gradientUnits="userSpaceOnUse">
<stop stop-color="white"/>
<stop offset="1" stop-color="white"/>
</linearGradient>
<linearGradient id="paint1_linear_780_10437" x1="25.6901" y1="11.5786" x2="25.6474" y2="22.8047" gradientUnits="userSpaceOnUse">
<stop stop-color="white"/>
<stop offset="1" stop-color="white"/>
</linearGradient>
<clipPath id="clip0_780_10437">
<rect width="150" height="38.2166" fill="white" transform="translate(0 0.11377)"/>
</clipPath>
</defs>
</svg>
