<svg width="148" height="45" viewBox="0 0 148 45" fill="none" xmlns="http://www.w3.org/2000/svg">
<mask id="mask0_780_10431" style="mask-type:luminance" maskUnits="userSpaceOnUse" x="0" y="0" width="148" height="45">
<path d="M147.228 0.324219H0V44.1198H147.228V0.324219Z" fill="white"/>
</mask>
<g mask="url(#mask0_780_10431)">
<path d="M129.573 43.7751C129.192 43.7751 128.837 43.6729 128.507 43.494L125.132 41.4757C124.625 41.1945 124.878 41.0924 125.03 41.0413C125.715 40.8113 125.842 40.7602 126.553 40.3515C126.628 40.3003 126.73 40.326 126.807 40.3771L129.395 41.9356C129.497 41.9866 129.623 41.9866 129.7 41.9356L139.825 36.0336C139.926 35.9825 139.977 35.8803 139.977 35.7526V23.9744C139.977 23.8468 139.926 23.7445 139.825 23.6935L129.7 17.8171C129.598 17.7661 129.471 17.7661 129.395 17.8171L119.27 23.6935C119.168 23.7445 119.117 23.8722 119.117 23.9744V35.7526C119.117 35.8549 119.168 35.9825 119.27 36.0336L122.035 37.6433C123.533 38.4097 124.471 37.5155 124.471 36.6213V24.9964C124.471 24.8431 124.598 24.6898 124.777 24.6898H126.071C126.223 24.6898 126.375 24.8175 126.375 24.9964V36.6213C126.375 38.6397 125.284 39.8149 123.381 39.8149C122.797 39.8149 122.341 39.8149 121.046 39.1762L118.382 37.6433C117.721 37.2601 117.315 36.5447 117.315 35.7781V24.0001C117.315 23.2335 117.721 22.5181 118.382 22.1349L128.507 16.2331C129.141 15.8754 130.004 15.8754 130.638 16.2331L140.765 22.1349C141.424 22.5181 141.829 23.2335 141.829 24.0001V35.7781C141.829 36.5447 141.424 37.2601 140.765 37.6433L130.638 43.5451C130.334 43.6729 129.954 43.7751 129.573 43.7751Z" fill="#5FA04E"/>
<path d="M132.72 35.6788C128.278 35.6788 127.365 33.6348 127.365 31.8975C127.365 31.7442 127.491 31.5909 127.67 31.5909H128.989C129.141 31.5909 129.268 31.6932 129.268 31.8465C129.471 33.2005 130.054 33.8649 132.746 33.8649C134.876 33.8649 135.791 33.3794 135.791 32.2297C135.791 31.5655 135.535 31.08 132.211 30.7478C129.446 30.4668 127.72 29.8536 127.72 27.6308C127.72 25.5613 129.446 24.335 132.338 24.335C135.588 24.335 137.185 25.4592 137.389 27.9119C137.389 27.9886 137.364 28.0651 137.314 28.1419C137.261 28.1929 137.185 28.244 137.109 28.244H135.764C135.638 28.244 135.51 28.1419 135.485 28.014C135.181 26.6088 134.393 26.149 132.313 26.149C129.979 26.149 129.7 26.9665 129.7 27.5797C129.7 28.3206 130.029 28.5506 133.176 28.9593C136.297 29.3682 137.769 29.9558 137.769 32.153C137.769 34.4013 135.916 35.6788 132.72 35.6788Z" fill="#5FA04E"/>
<path d="M147.338 23.3124C147.338 24.3856 146.449 25.2798 145.383 25.2798C144.318 25.2798 143.43 24.411 143.43 23.3124C143.43 22.1884 144.343 21.3452 145.383 21.3452C146.424 21.3452 147.338 22.2139 147.338 23.3124ZM143.734 23.3124C143.734 24.2323 144.47 24.9732 145.358 24.9732C146.272 24.9732 147.008 24.2067 147.008 23.3124C147.008 22.3927 146.272 21.6774 145.358 21.6774C144.496 21.6774 143.734 22.3927 143.734 23.3124ZM144.648 22.2139H145.409C145.663 22.2139 146.171 22.2139 146.171 22.8015C146.171 23.2103 145.916 23.287 145.764 23.338C146.068 23.3635 146.093 23.5681 146.119 23.849C146.144 24.0279 146.171 24.3345 146.222 24.4366H145.764C145.764 24.3345 145.688 23.7725 145.688 23.7469C145.663 23.6192 145.613 23.5681 145.46 23.5681H145.08V24.4621H144.648V22.2139ZM145.054 23.1847H145.383C145.663 23.1847 145.714 22.9804 145.714 22.8782C145.714 22.5716 145.51 22.5716 145.383 22.5716H145.029V23.1847H145.054Z" fill="#5FA04E"/>
<path d="M24.0823 23.476C24.0823 23.0161 23.8286 22.5819 23.4227 22.3519L12.6884 16.0924C12.5107 15.9901 12.3077 15.9391 12.1047 15.9136C12.0793 15.9136 12.0032 15.9136 12.0032 15.9136C11.8001 15.9136 11.5971 15.9901 11.4195 16.0924L0.659792 22.3262C0.253766 22.5563 0 22.9906 0 23.476L0.0253766 40.2363C0.0253766 40.4663 0.15226 40.6962 0.355272 40.7984C0.558286 40.9261 0.812052 40.9261 0.989688 40.7984L7.38459 37.1193C7.79062 36.8894 8.04438 36.455 8.04438 35.9952V28.1515C8.04438 27.6916 8.29814 27.2573 8.70417 27.0274L11.4195 25.4434C11.6225 25.3155 11.8509 25.2645 12.0793 25.2645C12.3077 25.2645 12.5361 25.3155 12.7136 25.4434L15.429 27.0274C15.835 27.2573 16.0889 27.6916 16.0889 28.1515V35.9952C16.0889 36.455 16.3426 36.8894 16.7485 37.1193L23.0928 40.7984C23.2957 40.9261 23.5494 40.9261 23.7524 40.7984C23.9555 40.6962 24.0823 40.4663 24.0823 40.2363V23.476Z" fill="#333333"/>
<path d="M75.8002 0.400866C75.5972 0.29867 75.3434 0.29867 75.1657 0.400866C74.9627 0.528612 74.8358 0.733006 74.8358 0.962948V17.5698C74.8358 17.7231 74.7597 17.8764 74.6075 17.9788C74.4552 18.0553 74.3031 18.0553 74.1508 17.9788L71.4607 16.4202C71.0547 16.1903 70.5726 16.1903 70.1666 16.4202L59.4069 22.6798C59.0009 22.9097 58.7472 23.344 58.7472 23.8038V36.2974C58.7472 36.7574 59.0009 37.1916 59.4069 37.4216L70.1666 43.6812C70.5726 43.911 71.0547 43.911 71.4607 43.6812L82.2204 37.4216C82.6264 37.1916 82.8803 36.7574 82.8803 36.2974V5.15301C82.8803 4.66757 82.6264 4.23324 82.2204 4.0033L75.8002 0.400866ZM74.8106 32.1841C74.8106 32.3118 74.7597 32.4139 74.6582 32.4651L70.9787 34.6113C70.8772 34.6624 70.7502 34.6624 70.6488 34.6113L66.9691 32.4651C66.8677 32.4139 66.8169 32.2863 66.8169 32.1841V27.8918C66.8169 27.764 66.8677 27.6619 66.9691 27.6108L70.6488 25.4647C70.7502 25.4135 70.8772 25.4135 70.9787 25.4647L74.6582 27.6108C74.7597 27.6619 74.8106 27.7897 74.8106 27.8918V32.1841Z" fill="#333333"/>
<path d="M111.605 27.7884C112.012 27.5584 112.24 27.1241 112.24 26.6642V23.6239C112.24 23.164 111.986 22.7296 111.605 22.4998L100.922 16.2658C100.516 16.0358 100.034 16.0358 99.6281 16.2658L88.8684 22.5253C88.4624 22.7552 88.2087 23.1895 88.2087 23.6494V36.143C88.2087 36.6028 88.4624 37.0373 88.8684 37.2671L99.552 43.3989C99.958 43.6289 100.44 43.6289 100.821 43.3989L107.292 39.771C107.495 39.6689 107.622 39.4388 107.622 39.2089C107.622 38.979 107.495 38.749 107.292 38.6468L96.4814 32.3872C96.2784 32.2595 96.1516 32.0552 96.1516 31.8252V27.9162C96.1516 27.6863 96.2784 27.4562 96.4814 27.3541L99.8565 25.4123C100.06 25.2846 100.313 25.2846 100.516 25.4123L103.891 27.3541C104.094 27.4818 104.221 27.6863 104.221 27.9162V30.982C104.221 31.212 104.348 31.4418 104.551 31.5441C104.754 31.6719 105.008 31.6719 105.211 31.5441L111.605 27.7884Z" fill="#333333"/>
<path d="M100.11 27.2004C100.186 27.1494 100.288 27.1494 100.364 27.2004L102.42 28.4011C102.496 28.4523 102.546 28.529 102.546 28.6312V31.0328C102.546 31.135 102.496 31.2117 102.42 31.2627L100.364 32.4635C100.288 32.5146 100.186 32.5146 100.11 32.4635L98.0548 31.2627C97.9787 31.2117 97.928 31.135 97.928 31.0328V28.6312C97.928 28.529 97.9787 28.4523 98.0548 28.4011L100.11 27.2004Z" fill="#5FA04E"/>
<path d="M42.0733 16.317C41.6672 16.087 41.185 16.087 40.779 16.317L30.0954 22.5254C29.6894 22.7555 29.461 23.1897 29.461 23.6497V36.092C29.461 36.552 29.7148 36.9862 30.0954 37.2162L40.779 43.4247C41.185 43.6545 41.6672 43.6545 42.0733 43.4247L52.7567 37.2162C53.1629 36.9862 53.3911 36.552 53.3911 36.092V23.6497C53.3911 23.1897 53.1373 22.7555 52.7567 22.5254L42.0733 16.317Z" fill="url(#paint0_linear_780_10431)"/>
<path d="M52.783 22.528L42.0487 16.3196C41.9472 16.2684 41.8203 16.2174 41.7188 16.1919L29.6904 36.9123C29.7918 37.0399 29.9187 37.1421 30.0455 37.2188L40.78 43.4273C41.0844 43.6061 41.4396 43.6572 41.7695 43.555L53.0622 22.7581C52.986 22.6558 52.8846 22.5792 52.783 22.528Z" fill="url(#paint1_linear_780_10431)"/>
<path d="M52.7829 37.2165C53.0874 37.0375 53.3158 36.731 53.4173 36.3988L41.6678 16.1639C41.3634 16.1128 41.0334 16.1383 40.7543 16.3172L30.0961 22.5L41.5917 43.6037C41.744 43.5781 41.9217 43.527 42.074 43.4504L52.7829 37.2165Z" fill="url(#paint2_linear_780_10431)"/>
</g>
<defs>
<linearGradient id="paint0_linear_780_10431" x1="45.7772" y1="20.9408" x2="36.0116" y2="40.728" gradientUnits="userSpaceOnUse">
<stop stop-color="#3F873F"/>
<stop offset="0.3296" stop-color="#3F8B3D"/>
<stop offset="0.6367" stop-color="#3E9638"/>
<stop offset="0.9341" stop-color="#3DA92E"/>
<stop offset="1" stop-color="#3DAE2B"/>
</linearGradient>
<linearGradient id="paint1_linear_780_10431" x1="39.8033" y1="31.3263" x2="67.0368" y2="11.3407" gradientUnits="userSpaceOnUse">
<stop offset="0.1376" stop-color="#3F873F"/>
<stop offset="0.4016" stop-color="#52A044"/>
<stop offset="0.7129" stop-color="#64B749"/>
<stop offset="0.9081" stop-color="#6ABF4B"/>
</linearGradient>
<linearGradient id="paint2_linear_780_10431" x1="29.07" y1="29.867" x2="53.7912" y2="29.867" gradientUnits="userSpaceOnUse">
<stop offset="0.0919165" stop-color="#6ABF4B"/>
<stop offset="0.2871" stop-color="#64B749"/>
<stop offset="0.5984" stop-color="#52A044"/>
<stop offset="0.8624" stop-color="#3F873F"/>
</linearGradient>
</defs>
</svg>
