<svg width="151" height="40" viewBox="0 0 151 40" fill="none" xmlns="http://www.w3.org/2000/svg">
<path d="M131.359 9.61002L128.158 29.6727C128.146 29.7464 128.15 29.8218 128.171 29.8936C128.191 29.9655 128.227 30.032 128.276 30.0886C128.324 30.1451 128.385 30.1904 128.453 30.2211C128.521 30.2518 128.595 30.2673 128.67 30.2665H132.459C132.592 30.2676 132.722 30.221 132.824 30.135C132.926 30.049 132.994 29.9293 133.015 29.7977L136.217 9.73498C136.229 9.6613 136.224 9.58591 136.204 9.51407C136.184 9.44224 136.148 9.37571 136.099 9.31913C136.05 9.26256 135.99 9.21733 135.921 9.18659C135.853 9.15586 135.779 9.14037 135.704 9.14122H131.916C131.782 9.13858 131.651 9.18469 131.549 9.27095C131.446 9.35722 131.379 9.47774 131.359 9.61002ZM127.314 15.4648H123.719C123.586 15.4635 123.456 15.51 123.354 15.5959C123.252 15.6818 123.185 15.8013 123.163 15.9328L123.044 16.6714C123.044 16.6714 120.253 13.6517 115.31 15.6924C112.474 16.8608 111.113 19.2749 110.534 21.0434C110.534 21.0434 108.695 26.4182 112.853 29.3766C112.853 29.3766 116.709 32.2221 121.05 29.2015L120.975 29.6727C120.957 29.7834 120.977 29.8967 121.03 29.9953C121.083 30.0939 121.168 30.1724 121.27 30.2187C121.338 30.2506 121.412 30.2665 121.487 30.2665H125.084C125.218 30.2691 125.348 30.223 125.451 30.1368C125.553 30.0505 125.621 29.93 125.641 29.7977L127.828 16.0585C127.841 15.985 127.836 15.9096 127.816 15.8379C127.795 15.7661 127.759 15.6999 127.71 15.6439C127.661 15.5868 127.6 15.5411 127.532 15.51C127.463 15.479 127.389 15.464 127.314 15.4648ZM122.025 23.0579C121.885 24.0178 121.398 24.8937 120.656 25.5212C119.912 26.151 118.964 26.4911 117.988 26.4787C117.605 26.4832 117.223 26.4278 116.858 26.3147C115.306 25.8213 114.42 24.3456 114.675 22.7459C114.816 21.7864 115.303 20.9112 116.045 20.2841C116.789 19.6539 117.736 19.3128 118.712 19.3234C119.095 19.3195 119.476 19.3753 119.842 19.489C121.403 19.9792 122.285 21.4573 122.029 23.0586H122.025V23.0579ZM102.831 23.4375C104.78 23.4375 106.666 22.7466 108.147 21.4907C109.624 20.239 110.603 18.4998 110.904 16.5894C111.534 12.6154 108.399 9.14679 103.955 9.14679H96.7952C96.6616 9.14551 96.532 9.19214 96.4299 9.27818C96.3278 9.36421 96.2601 9.48395 96.2391 9.61559L93.0373 29.6783C93.0199 29.789 93.0393 29.9023 93.0927 30.0009C93.146 30.0995 93.2302 30.178 93.3325 30.2243C93.4011 30.2561 93.4745 30.2721 93.5495 30.2721H97.3402C97.4738 30.2733 97.6034 30.2267 97.7055 30.1407C97.8076 30.0546 97.8753 29.9349 97.8963 29.8033L98.8362 23.9119C98.8559 23.7795 98.9234 23.6587 99.0259 23.5723C99.1284 23.4859 99.2589 23.4397 99.3931 23.4423L102.831 23.4375ZM106.002 16.4088C105.768 17.878 104.621 18.9597 102.426 18.9597H99.6197L100.472 13.6167H103.228C105.497 13.6206 106.236 14.9459 106.002 16.4127V16.4088Z" fill="#0070E0"/>
<path d="M88.7184 15.8053L84.3827 23.0522L82.1822 15.8587C82.1478 15.7439 82.0768 15.6434 81.9801 15.5723C81.8834 15.5012 81.7661 15.4635 81.646 15.4647H77.7333C77.632 15.4633 77.5337 15.4985 77.4565 15.5637C77.3792 15.629 77.3282 15.7199 77.3128 15.8197C77.3033 15.8858 77.3101 15.9533 77.3327 16.0163L81.2758 28.1333L77.7093 33.8432C77.679 33.8903 77.6587 33.9429 77.6495 33.998C77.6404 34.0532 77.6426 34.1096 77.656 34.1638C77.6695 34.2181 77.6939 34.269 77.7277 34.3135C77.7616 34.358 77.8042 34.3952 77.8529 34.4227C77.9182 34.4601 77.9923 34.4793 78.0676 34.4784H82.2819C82.4022 34.4788 82.5205 34.4483 82.6255 34.3897C82.7305 34.3311 82.8185 34.2465 82.8811 34.1441L93.895 16.103C93.9349 16.0402 93.9568 15.9677 93.9583 15.8933C93.9599 15.819 93.941 15.7456 93.9037 15.6812C93.8665 15.6165 93.8126 15.563 93.7477 15.5262C93.6827 15.4894 93.609 15.4706 93.5343 15.4719H89.3216C89.2007 15.4707 89.0816 15.5009 88.9759 15.5593C88.8702 15.6178 88.7815 15.7025 88.7184 15.8053ZM75.5152 15.4647H71.9176C71.7837 15.4634 71.6539 15.5101 71.5517 15.5963C71.4495 15.6825 71.3817 15.8024 71.3606 15.9343L71.2442 16.6721C71.2442 16.6721 68.45 13.6524 63.5072 15.6931C60.6724 16.8615 59.3104 19.2756 58.7335 21.0441C58.7335 21.0441 56.8936 26.4189 61.0505 29.3773C61.0505 29.3773 64.9067 32.2228 69.2479 29.2022L69.1729 29.6734C69.1552 29.7841 69.1746 29.8976 69.2279 29.9962C69.2813 30.0949 69.3657 30.1733 69.4681 30.2194C69.5359 30.2513 69.6101 30.2672 69.6851 30.2672H73.2819C73.4155 30.2681 73.5449 30.2214 73.6469 30.1354C73.7489 30.0494 73.8167 29.9299 73.838 29.7984L76.0266 16.0592C76.0444 15.9484 76.0252 15.8348 75.9718 15.736C75.9185 15.6371 75.834 15.5586 75.7314 15.5124C75.6633 15.4812 75.5901 15.4649 75.5152 15.4647ZM70.2253 23.0593C70.0837 24.0181 69.597 24.8926 68.8561 25.5195C68.1118 26.1493 67.1648 26.4901 66.1888 26.4794C65.8065 26.4836 65.4259 26.4283 65.0606 26.3154C63.5096 25.822 62.6247 24.3463 62.8793 22.7458C63.021 21.7842 63.5099 20.9074 64.254 20.28C65.001 19.6499 65.9511 19.3104 66.9293 19.3241C67.3122 19.3201 67.6944 19.3758 68.0599 19.4897C69.6053 19.9799 70.4854 21.4572 70.2301 23.0593H70.2253ZM51.0325 23.4382C52.9784 23.4372 54.8606 22.7464 56.3431 21.489C57.8195 20.2373 58.7968 18.4988 59.0974 16.5893C59.7277 12.6161 56.592 9.14749 52.1495 9.14749H44.9894C44.8558 9.14615 44.7261 9.19264 44.6239 9.2785C44.5218 9.36437 44.4538 9.48393 44.4325 9.61549L41.241 29.6726C41.2231 29.7835 41.2424 29.8971 41.2957 29.9959C41.3491 30.0947 41.4336 30.1733 41.5362 30.2194C41.604 30.2505 41.6782 30.2672 41.7532 30.2672H45.5415C45.6753 30.2685 45.8052 30.2218 45.9074 30.1356C46.0096 30.0494 46.0774 29.9294 46.0984 29.7976L47.0367 23.9062C47.0566 23.7739 47.1242 23.6534 47.2266 23.5671C47.3291 23.4809 47.4596 23.4348 47.5936 23.4374L51.0325 23.4382ZM54.2032 16.4087C53.9694 17.8779 52.8229 18.9596 50.6279 18.9596H47.8218L48.6724 13.6166H51.4282C53.6982 13.6206 54.4362 14.9466 54.2032 16.4126V16.4087Z" fill="#003087"/>
<path d="M26.5417 10.1783C26.6271 5.74818 22.9641 2.34961 17.9271 2.34961H7.50849C7.2657 2.3495 7.03085 2.43587 6.84624 2.59318C6.66164 2.75048 6.53941 2.96837 6.50157 3.20761L2.3271 29.2286C2.30843 29.3465 2.31559 29.467 2.3481 29.5819C2.38061 29.6968 2.43769 29.8033 2.51541 29.8941C2.59314 29.9849 2.68966 30.0578 2.79833 30.1077C2.90701 30.1577 3.02525 30.1836 3.14492 30.1837H9.31726L8.35264 36.2088C8.33396 36.3267 8.34112 36.4472 8.37363 36.5621C8.40614 36.677 8.46322 36.7835 8.54094 36.8743C8.61867 36.9651 8.71519 37.038 8.82387 37.0879C8.93254 37.1379 9.05078 37.1638 9.17045 37.1639H14.1986C14.4412 37.1639 14.6574 37.0771 14.8425 36.9203C15.026 36.7627 15.0564 36.5454 15.0947 36.3059L16.5707 27.6431C16.6082 27.4043 16.7303 27.0939 16.9146 26.9363C17.0989 26.7787 17.2601 26.6928 17.5034 26.6928H20.58C25.5133 26.6928 29.6981 23.1947 30.4633 18.3301C31.005 14.8774 29.521 11.7359 26.5417 10.1783Z" fill="#001C64"/>
<path d="M10.6529 20.5876L9.1154 30.3121L8.14998 36.412C8.13142 36.5299 8.13869 36.6505 8.17131 36.7653C8.20392 36.8802 8.26109 36.9866 8.33889 37.0773C8.41669 37.168 8.51327 37.2408 8.62197 37.2907C8.73068 37.3406 8.84893 37.3664 8.96859 37.3663H14.2904C14.533 37.3662 14.7675 37.2797 14.9518 37.1224C15.1361 36.9651 15.2581 36.7473 15.2957 36.5083L16.6984 27.6426C16.7362 27.4035 16.8583 27.1857 17.0427 27.0284C17.2272 26.8711 17.4618 26.7846 17.7045 26.7846H20.8369C25.7702 26.7846 29.955 23.195 30.721 18.3303C31.2635 14.8776 29.521 11.7353 26.5417 10.1777C26.5338 10.5454 26.5018 10.9124 26.4452 11.2761C25.68 16.1392 21.4936 19.7296 16.5619 19.7296H11.659C11.4163 19.7298 11.1816 19.8164 10.9972 19.9739C10.8128 20.1313 10.6907 20.3484 10.6529 20.5876Z" fill="#0070E0"/>
<path d="M9.11462 30.3119H2.92313C2.80348 30.3119 2.68526 30.286 2.57662 30.236C2.46798 30.186 2.3715 30.1131 2.29383 30.0223C2.21617 29.9315 2.15916 29.825 2.12676 29.7101C2.09435 29.5952 2.0873 29.4746 2.10611 29.3568L6.28058 2.9498C6.31839 2.7107 6.44051 2.49291 6.62495 2.33562C6.80939 2.17833 7.04404 2.09187 7.2867 2.0918H17.9271C22.9641 2.0918 26.6271 5.74825 26.5417 10.1775C25.2883 9.5217 23.8154 9.14682 22.2021 9.14682H13.3314C13.0886 9.1467 12.8537 9.23308 12.6691 9.39038C12.4845 9.54769 12.3623 9.76558 12.3245 10.0048L10.6537 20.5873L9.11382 30.3119H9.11462Z" fill="#003087"/>
</svg>
