<svg width="150" height="45" viewBox="0 0 150 45" fill="none" xmlns="http://www.w3.org/2000/svg">
<path d="M56.4421 18.6354C56.4421 14.0955 55.1423 11.7648 52.5428 11.6372C51.5084 11.5885 50.4985 11.7527 49.5161 12.1324C48.732 12.412 48.2041 12.6885 47.9265 12.9681V23.8043C49.5893 24.8435 51.0661 25.3268 52.3536 25.2508C55.0782 25.0714 56.4421 22.8683 56.4421 18.6354ZM59.6488 18.8238C59.6488 21.1302 59.1056 23.0447 58.0134 24.567C56.796 26.29 55.1088 27.1773 52.9516 27.226C51.3254 27.2775 49.6503 26.7701 47.9265 25.7065V35.5551L45.1378 34.5645V12.7038C45.5954 12.1447 46.1843 11.6645 46.8983 11.2573C48.5581 10.294 50.5749 9.79871 52.9485 9.77441L52.9882 9.81391C55.1575 9.78656 56.8295 10.6739 58.0042 12.4728C59.0996 14.1229 59.6488 16.2379 59.6488 18.8238Z" fill="#646464"/>
<path d="M76.6925 25.2872C76.6925 28.3807 76.3813 30.523 75.7589 31.7142C75.1334 32.9053 73.9434 33.8564 72.186 34.5645C70.7612 35.1237 69.2203 35.4275 67.5666 35.4792L67.106 33.7289C68.7871 33.501 69.971 33.2731 70.6574 33.0451C72.0091 32.5893 72.9366 31.8904 73.4461 30.9544C73.855 30.1918 74.0563 28.7362 74.0563 26.5818V25.8585C72.1494 26.7215 70.151 27.15 68.061 27.15C66.688 27.15 65.4766 26.7215 64.4332 25.8585C63.2615 24.9195 62.6758 23.7283 62.6758 22.2849V10.7255L65.4644 9.77441V21.4098C65.4644 22.6527 65.8672 23.6099 66.6726 24.2814C67.4782 24.953 68.5216 25.2751 69.8001 25.2508C71.0785 25.2234 72.4484 24.7311 73.9037 23.7679V10.1938H76.6925V25.2872Z" fill="#646464"/>
<path d="M87.5784 27.0739C87.2459 27.1013 86.9408 27.1134 86.6601 27.1134C85.0827 27.1134 83.8531 26.7397 82.9743 25.9891C82.0987 25.2385 81.6593 24.2023 81.6593 22.8805V11.9409H79.7493V10.1937H81.6593V5.55351L84.445 4.56592V10.1937H87.5784V11.9409H84.445V22.8045C84.445 23.8468 84.7257 24.5852 85.2871 25.0167C85.7691 25.3723 86.535 25.5758 87.5784 25.6275V27.0739Z" fill="#646464"/>
<path d="M104.464 26.8437H101.675V16.123C101.675 15.0321 101.419 14.0931 100.909 13.3091C100.32 12.4218 99.5027 11.9781 98.4532 11.9781C97.1747 11.9781 95.5759 12.6497 93.6568 13.9928V26.8437H90.868V1.21794L93.6568 0.342773V12.0146C95.4386 10.7231 97.3853 10.0759 99.4996 10.0759C100.976 10.0759 102.172 10.5712 103.088 11.5588C104.006 12.5463 104.464 13.7771 104.464 15.2478V26.8437Z" fill="#646464"/>
<path d="M119.286 18.1978C119.286 16.4535 118.952 15.0132 118.29 13.8737C117.503 12.485 116.28 11.7527 114.626 11.6767C111.569 11.8529 110.043 14.0348 110.043 18.2161C110.043 20.1335 110.361 21.7349 111.001 23.0203C111.819 24.6582 113.046 25.4665 114.681 25.4392C117.75 25.4149 119.286 23.0021 119.286 18.1978ZM122.339 18.2161C122.339 20.6987 121.701 22.7651 120.429 24.4151C119.029 26.2627 117.094 27.1894 114.626 27.1894C112.179 27.1894 110.272 26.2627 108.896 24.4151C107.648 22.7651 107.026 20.6987 107.026 18.2161C107.026 15.8823 107.7 13.9192 109.049 12.3209C110.474 10.6253 112.347 9.77441 114.662 9.77441C116.979 9.77441 118.864 10.6253 120.317 12.3209C121.664 13.9192 122.339 15.8823 122.339 18.2161Z" fill="#646464"/>
<path d="M138.328 26.8461H135.539V15.5177C135.539 14.2748 135.163 13.3054 134.413 12.6065C133.662 11.9107 132.662 11.5733 131.413 11.6007C130.09 11.625 128.83 12.0565 127.633 12.8922V26.8461H124.844V12.5488C126.45 11.385 127.927 10.6253 129.276 10.2697C130.548 9.9385 131.67 9.77441 132.638 9.77441C133.299 9.77441 133.922 9.83823 134.508 9.96585C135.603 10.2181 136.494 10.686 137.18 11.3728C137.947 12.1324 138.328 13.0441 138.328 14.1107V26.8461Z" fill="#646464"/>
<path d="M17.5946 1.31962C16.1599 1.32626 14.7896 1.44813 13.584 1.66061C10.0323 2.28553 9.38749 3.59354 9.38749 6.00576V9.19154H17.7805V10.2535H9.38749H6.23767C3.79842 10.2535 1.66255 11.7137 0.994474 14.4914C0.223859 17.6754 0.189678 19.6623 0.994474 22.9869C1.59108 25.4617 3.01586 27.2249 5.4551 27.2249H8.34081V23.4059C8.34081 20.6468 10.7377 18.2131 13.584 18.2131H21.9672C24.3009 18.2131 26.1638 16.2994 26.1638 13.9653V6.00576C26.1638 3.7404 24.2449 2.03869 21.9672 1.66061C20.5254 1.42158 19.0294 1.31298 17.5946 1.31962ZM13.0558 3.88189C13.9228 3.88189 14.6306 4.59852 14.6306 5.47967C14.6306 6.35768 13.9228 7.06769 13.0558 7.06769C12.1858 7.06769 11.4809 6.35768 11.4809 5.47967C11.4809 4.59852 12.1858 3.88189 13.0558 3.88189Z" fill="url(#paint0_linear_780_10449)"/>
<path d="M27.2099 10.2559V13.9678C27.2099 16.8456 24.7601 19.2677 21.9666 19.2677H13.5834C11.2871 19.2677 9.3869 21.225 9.3869 23.5153V31.475C9.3869 33.7403 11.3647 35.0728 13.5834 35.7227C16.2402 36.5008 18.7879 36.6413 21.9666 35.7227C24.0796 35.1134 26.1632 33.8872 26.1632 31.475V28.2892H17.78V27.2272H26.1632H30.3596C32.799 27.2272 33.7079 25.5328 34.5562 22.9893C35.4324 20.3709 35.3952 17.8528 34.5562 14.4939C33.9534 12.0753 32.802 10.2559 30.3596 10.2559H27.2099ZM22.4949 30.4131C23.365 30.4131 24.0697 31.1231 24.0697 32.0011C24.0697 32.8822 23.365 33.5989 22.4949 33.5989C21.628 33.5989 20.92 32.8822 20.92 32.0011C20.92 31.1231 21.628 30.4131 22.4949 30.4131Z" fill="url(#paint1_linear_780_10449)"/>
<path d="M143.758 7.71497H144.247V4.6609H145.405V4.29688H142.6V4.6609H143.758V7.71497ZM145.839 7.71497H146.257V4.92565L147.163 7.71462H147.628L148.573 4.93511V7.71497H149.029V4.29688H148.425L147.393 7.22519L146.513 4.29688H145.839V7.71497Z" fill="#646464"/>
<path opacity="0.44382" d="M29.1233 41.1306C29.1233 41.4158 28.8324 41.6983 28.2672 41.9618C27.702 42.2254 26.8735 42.4648 25.8291 42.6665C24.7846 42.8683 23.5448 43.0283 22.1802 43.1374C20.8156 43.2466 19.3531 43.3027 17.876 43.3027C16.399 43.3027 14.9364 43.2466 13.5719 43.1374C12.2072 43.0283 10.9674 42.8683 9.92293 42.6665C8.87852 42.4648 8.05005 42.2254 7.48482 41.9618C6.91958 41.6983 6.62866 41.4158 6.62866 41.1306C6.62866 40.8454 6.91958 40.5629 7.48482 40.2994C8.05005 40.0358 8.87852 39.7964 9.92293 39.5947C10.9674 39.3931 12.2072 39.2331 13.5719 39.1238C14.9364 39.0147 16.399 38.9585 17.876 38.9585C19.3531 38.9585 20.8156 39.0147 22.1802 39.1238C23.5448 39.2331 24.7846 39.3931 25.8291 39.5947C26.8735 39.7964 27.702 40.0358 28.2672 40.2994C28.8324 40.5629 29.1233 40.8454 29.1233 41.1306Z" fill="url(#paint2_radial_780_10449)"/>
<defs>
<linearGradient id="paint0_linear_780_10449" x1="0.403625" y1="1.31933" x2="19.691" y2="17.8216" gradientUnits="userSpaceOnUse">
<stop stop-color="#5A9FD4"/>
<stop offset="1" stop-color="#306998"/>
</linearGradient>
<linearGradient id="paint1_linear_780_10449" x1="22.2932" y1="31.7332" x2="15.3872" y2="22.0166" gradientUnits="userSpaceOnUse">
<stop stop-color="#FFD43B"/>
<stop offset="1" stop-color="#FFE873"/>
</linearGradient>
<radialGradient id="paint2_radial_780_10449" cx="0" cy="0" r="1" gradientUnits="userSpaceOnUse" gradientTransform="translate(17.876 41.1306) rotate(-90) scale(2.17213 9.58621)">
<stop stop-color="#B8B8B8"/>
<stop offset="1" stop-color="#7F7F7F"/>
</radialGradient>
</defs>
</svg>
