<svg width="268" height="147" viewBox="0 0 268 147" fill="none" xmlns="http://www.w3.org/2000/svg">
<path opacity="0.2" d="M106.58 97.2778C106.58 101.696 102.999 105.278 98.5804 105.278H61.0368C56.6186 105.278 53.0368 108.859 53.0368 113.278V138.767C53.0368 145.883 44.4434 149.458 39.3968 144.441L2.36 107.624C0.849406 106.122 0 104.08 0 101.95V8C0 3.58172 3.58172 0 8 0H98.5804C102.999 0 106.58 3.58172 106.58 8V97.2778ZM266.873 105.278H221.668C217.249 105.278 213.668 108.859 213.668 113.278V138.81C213.668 145.92 205.087 149.497 200.037 144.493L162.831 107.625C161.315 106.123 160.462 104.077 160.462 101.943V8C160.462 3.58172 164.044 0 168.462 0H259.042C263.461 0 267.042 3.58172 267.042 8V105.109C267.042 105.202 266.967 105.278 266.873 105.278Z" fill="#604CC3"/>
</svg>
