<svg width="118" height="36" viewBox="0 0 118 36" fill="none" xmlns="http://www.w3.org/2000/svg">
<path d="M18.6775 21.4875C20.4687 21.4875 21.9207 20.0262 21.9207 18.2235C21.9207 16.4209 20.4687 14.9595 18.6775 14.9595C16.8863 14.9595 15.4342 16.4209 15.4342 18.2235C15.4342 20.0262 16.8863 21.4875 18.6775 21.4875Z" fill="#61DAFB"/>
<path d="M3.17232 16.2115C2.38948 16.9227 2.06571 17.604 2.06571 18.2235C2.06571 18.8432 2.38948 19.5245 3.17232 20.2357C3.95507 20.9468 5.13214 21.6237 6.65397 22.2085C9.6922 23.376 13.9429 24.1148 18.6774 24.1148C23.4119 24.1148 27.6626 23.376 30.7007 22.2085C32.2226 21.6237 33.3997 20.9468 34.1824 20.2357C34.9653 19.5245 35.289 18.8432 35.289 18.2235C35.289 17.604 34.9653 16.9227 34.1824 16.2115C33.3997 15.5004 32.2226 14.8235 30.7007 14.2387C27.6626 13.0712 23.4119 12.3324 18.6774 12.3324C13.9429 12.3324 9.6922 13.0712 6.65397 14.2387C5.13214 14.8235 3.95507 15.5004 3.17232 16.2115ZM6.08964 12.7512C9.34996 11.4984 13.8006 10.7402 18.6774 10.7402C23.5542 10.7402 28.0048 11.4984 31.2651 12.7512C32.8925 13.3766 34.264 14.1407 35.2425 15.0296C36.2209 15.9185 36.8711 16.9966 36.8711 18.2235C36.8711 19.4506 36.2209 20.5287 35.2425 21.4176C34.264 22.3065 32.8925 23.0706 31.2651 23.696C28.0048 24.9488 23.5542 25.7069 18.6774 25.7069C13.8006 25.7069 9.34996 24.9488 6.08964 23.696C4.4622 23.0706 3.09071 22.3065 2.11221 21.4176C1.1338 20.5287 0.483643 19.4506 0.483643 18.2235C0.483643 16.9966 1.1338 15.9185 2.11221 15.0296C3.09071 14.1407 4.4622 13.3766 6.08964 12.7512Z" fill="#61DAFB"/>
<path d="M12.6562 3.7035C11.6527 3.3768 10.9047 3.43524 10.3715 3.74503C9.83834 4.05481 9.41399 4.67765 9.19343 5.71556C8.97287 6.75336 8.9789 8.11772 9.23656 9.73649C9.75109 12.9683 11.2407 17.0426 13.608 21.1691C15.9752 25.2956 18.7363 28.631 21.26 30.6953C22.5242 31.7292 23.6951 32.4168 24.6985 32.7434C25.7019 33.0701 26.45 33.0116 26.9832 32.7018C27.5163 32.3921 27.9407 31.7693 28.1612 30.7313C28.3818 29.6935 28.3758 28.3292 28.118 26.7104C27.6036 23.4785 26.114 19.4043 23.7467 15.2779C21.3795 11.1514 18.6184 7.81593 16.0947 5.75162C14.8305 4.71762 13.6595 4.03016 12.6562 3.7035ZM17.0925 4.51603C19.8006 6.73125 22.6784 10.2312 25.1169 14.4817C27.5552 18.7322 29.1281 22.9905 29.6801 26.4585C29.9557 28.1896 29.9841 29.767 29.7083 31.0644C29.4326 32.3616 28.8301 33.4672 27.7742 34.0808C26.7183 34.6943 25.4656 34.6666 24.2115 34.2583C22.9573 33.8499 21.614 33.0366 20.2622 31.9309C17.5539 29.7156 14.6762 26.2156 12.2378 21.9651C9.79946 17.7146 8.22655 13.4565 7.67446 9.98839C7.39888 8.25727 7.37063 6.67986 7.64634 5.38253C7.92204 4.08531 8.52456 2.97967 9.5805 2.36613C10.6364 1.75259 11.889 1.78027 13.1431 2.18859C14.3974 2.59694 15.7406 3.41027 17.0925 4.51603Z" fill="#61DAFB"/>
<path d="M28.1612 5.71555C27.9407 4.67765 27.5163 4.05481 26.9832 3.74502C26.45 3.43523 25.7019 3.3768 24.6985 3.7035C23.6952 4.03016 22.5242 4.71761 21.26 5.75162C18.7363 7.81593 15.9752 11.1514 13.608 15.2779C11.2407 19.4043 9.7511 23.4785 9.23657 26.7104C8.97891 28.3291 8.97287 29.6935 9.19344 30.7313C9.414 31.7693 9.83835 32.3921 10.3715 32.7019C10.9047 33.0116 11.6527 33.0701 12.6562 32.7434C13.6595 32.4168 14.8305 31.7292 16.0947 30.6952C18.6184 28.6309 21.3795 25.2955 23.7467 21.1691C26.114 17.0426 27.6036 12.9683 28.118 9.7365C28.3758 8.11772 28.3818 6.75335 28.1612 5.71555ZM29.6802 9.98839C29.1281 13.4564 27.5552 17.7146 25.1169 21.9651C22.6784 26.2156 19.8007 29.7156 17.0925 31.9308C15.7406 33.0366 14.3974 33.8499 13.1431 34.2583C11.889 34.6666 10.6364 34.6943 9.58042 34.0808C8.52456 33.4672 7.92204 32.3616 7.64635 31.0644C7.37063 29.767 7.39888 28.1896 7.67446 26.4585C8.22655 22.9905 9.79947 18.7322 12.2378 14.4817C14.6762 10.2312 17.5539 6.73125 20.2622 4.51603C21.6141 3.41027 22.9573 2.59694 24.2115 2.18859C25.4656 1.78027 26.7183 1.75259 27.7742 2.36613C28.8301 2.97966 29.4326 4.08531 29.7083 5.38252C29.9841 6.67985 29.9557 8.25727 29.6802 9.98839Z" fill="#61DAFB"/>
<path d="M43.0872 24.472V11.7666H47.8455C48.7235 11.7666 49.4961 11.9257 50.1633 12.2441C50.8305 12.551 51.3514 13.0058 51.726 13.6084C52.1124 14.1996 52.3055 14.9103 52.3055 15.7403C52.3055 16.6157 52.0772 17.3661 51.6207 17.9914C51.1759 18.6167 50.573 19.0715 49.8121 19.3558L52.8322 24.472H50.4794L47.2661 18.9294L48.6182 19.6969H45.1591V24.472H43.0872ZM45.1591 17.9061H47.8807C48.3606 17.9061 48.7762 17.8152 49.1274 17.6333C49.4785 17.4513 49.7478 17.2012 49.9351 16.8828C50.1341 16.5532 50.2336 16.1666 50.2336 15.7232C50.2336 15.2798 50.1341 14.8989 49.9351 14.5806C49.7478 14.2508 49.4785 14.0007 49.1274 13.8301C48.7762 13.6483 48.3606 13.5573 47.8807 13.5573H45.1591V17.9061Z" fill="#61DAFB"/>
<path d="M58.311 24.6767C57.3628 24.6767 56.5201 24.4663 55.7826 24.0457C55.0568 23.6136 54.4891 23.0338 54.0794 22.3062C53.6697 21.5672 53.4648 20.7428 53.4648 19.8333C53.4648 18.901 53.6697 18.0767 54.0794 17.3604C54.5008 16.6441 55.0627 16.0813 55.765 15.672C56.4673 15.2513 57.2633 15.041 58.153 15.041C58.8671 15.041 59.505 15.1604 60.0669 15.3992C60.6287 15.6379 61.1029 15.9676 61.4891 16.3883C61.8754 16.7976 62.168 17.2694 62.367 17.8038C62.5777 18.3382 62.6831 18.9067 62.6831 19.5092C62.6831 19.657 62.6772 19.8106 62.6655 19.9697C62.6538 20.1289 62.6305 20.2766 62.5953 20.4131H55.0275V18.8783H61.4716L60.5234 19.5775C60.6404 19.0204 60.5995 18.5258 60.4005 18.0937C60.2132 17.6503 59.9205 17.3035 59.5225 17.0534C59.1363 16.7919 58.6798 16.6612 58.153 16.6612C57.6262 16.6612 57.158 16.7919 56.7483 17.0534C56.3386 17.3035 56.0226 17.6673 55.8001 18.1449C55.5777 18.611 55.4899 19.1795 55.5367 19.8503C55.4782 20.4756 55.566 21.0214 55.8001 21.4876C56.0459 21.9537 56.3854 22.3175 56.8185 22.579C57.2633 22.8405 57.7667 22.9713 58.3286 22.9713C58.9021 22.9713 59.388 22.8462 59.786 22.596C60.1957 22.3459 60.5175 22.0219 60.7516 21.624L62.367 22.3915C62.1798 22.8234 61.8871 23.2157 61.4891 23.5682C61.1029 23.9093 60.6346 24.1821 60.0845 24.3868C59.546 24.58 58.9548 24.6767 58.311 24.6767Z" fill="#61DAFB"/>
<path d="M67.3782 24.6767C66.7344 24.6767 66.1667 24.5687 65.6751 24.3526C65.1951 24.1252 64.8205 23.8183 64.5513 23.4318C64.282 23.0338 64.1475 22.5676 64.1475 22.0333C64.1475 21.533 64.2587 21.0839 64.481 20.686C64.7152 20.2881 65.0722 19.9527 65.5521 19.6797C66.032 19.4069 66.6349 19.2136 67.3607 19.0999L70.6617 18.5713V20.0891L67.7469 20.5836C67.2202 20.6746 66.8339 20.8394 66.5881 21.0782C66.3423 21.3056 66.2193 21.6013 66.2193 21.9651C66.2193 22.3175 66.354 22.6074 66.6232 22.8348C66.9042 23.0508 67.2612 23.1589 67.6943 23.1589C68.2328 23.1589 68.701 23.0452 69.099 22.8178C69.5087 22.5904 69.8247 22.2891 70.0472 21.9139C70.2696 21.5273 70.3807 21.101 70.3807 20.6349V18.2642C70.3807 17.8094 70.2052 17.44 69.854 17.1558C69.5145 16.8601 69.058 16.7123 68.4844 16.7123C67.9576 16.7123 67.4953 16.8487 67.0973 17.1216C66.711 17.3831 66.4242 17.7242 66.2369 18.1449L64.5864 17.3433C64.762 16.8885 65.0488 16.4906 65.4468 16.1495C65.8448 15.7971 66.3071 15.5242 66.8339 15.3309C67.3724 15.1376 67.9401 15.041 68.5371 15.041C69.2862 15.041 69.9477 15.1774 70.5212 15.4503C71.1065 15.7232 71.5572 16.1041 71.8733 16.5929C72.201 17.0705 72.3649 17.6276 72.3649 18.2642V24.472H70.4686V22.8007L70.8724 22.8519C70.65 23.2271 70.3632 23.5512 70.012 23.824C69.6725 24.0968 69.2804 24.3072 68.8356 24.455C68.4025 24.6028 67.9167 24.6767 67.3782 24.6767Z" fill="#61DAFB"/>
<path d="M79.1974 24.6767C78.2493 24.6767 77.4064 24.4663 76.6689 24.0457C75.9432 23.6136 75.3638 23.0338 74.9306 22.3062C74.5093 21.5785 74.2986 20.7542 74.2986 19.8333C74.2986 18.9237 74.5093 18.1051 74.9306 17.3775C75.352 16.6497 75.9315 16.0813 76.6689 15.672C77.4064 15.2513 78.2493 15.041 79.1974 15.041C79.8412 15.041 80.4441 15.1547 81.006 15.3821C81.5678 15.5981 82.0536 15.8994 82.4633 16.2859C82.8847 16.6726 83.1949 17.1216 83.3939 17.6333L81.6556 18.4178C81.4566 17.9402 81.1347 17.5593 80.6899 17.2751C80.2568 16.9795 79.7593 16.8317 79.1974 16.8317C78.659 16.8317 78.1732 16.9624 77.7401 17.2239C77.3186 17.4741 76.985 17.8323 76.7392 18.2984C76.4934 18.7531 76.3704 19.2705 76.3704 19.8503C76.3704 20.4302 76.4934 20.9531 76.7392 21.4193C76.985 21.8741 77.3186 22.2322 77.7401 22.4937C78.1732 22.7553 78.659 22.886 79.1974 22.886C79.771 22.886 80.2685 22.7439 80.6899 22.4596C81.123 22.1641 81.4449 21.7718 81.6556 21.2829L83.3939 22.0844C83.2066 22.5733 82.9023 23.0168 82.4809 23.4147C82.0712 23.8013 81.5854 24.1082 81.0236 24.3356C80.4616 24.563 79.8529 24.6767 79.1974 24.6767Z" fill="#61DAFB"/>
<path d="M89.4418 24.5744C88.447 24.5744 87.6743 24.3015 87.1242 23.7557C86.574 23.2101 86.299 22.4426 86.299 21.4535V16.9851H84.6309V15.2456H84.8943C85.3391 15.2456 85.6844 15.1205 85.9302 14.8704C86.176 14.6203 86.299 14.2792 86.299 13.8471V13.1309H88.283V15.2456H90.443V16.9851H88.283V21.3682C88.283 21.6865 88.3358 21.9594 88.4411 22.1868C88.5465 22.4028 88.7162 22.5733 88.9501 22.6984C89.1844 22.8121 89.4888 22.869 89.8634 22.869C89.9566 22.869 90.0622 22.8633 90.1793 22.8519C90.2965 22.8405 90.4075 22.8291 90.5131 22.8178V24.472C90.3489 24.4948 90.1678 24.5175 89.969 24.5403C89.7693 24.563 89.5944 24.5744 89.4418 24.5744Z" fill="#61DAFB"/>
<path d="M95.7115 24.472V11.7666H97.3802L104.72 21.607L103.929 21.7263V11.7666H105.983V24.472H104.316L97.0287 14.5635L97.784 14.427V24.472H95.7115Z" fill="#61DAFB"/>
<path d="M111.343 24.6767C110.7 24.6767 110.132 24.5687 109.64 24.3526C109.16 24.1252 108.785 23.8183 108.517 23.4318C108.248 23.0338 108.113 22.5676 108.113 22.0333C108.113 21.533 108.224 21.0839 108.446 20.686C108.681 20.2881 109.038 19.9527 109.518 19.6797C109.997 19.4069 110.6 19.2136 111.326 19.0999L114.627 18.5713V20.0891L111.712 20.5836C111.185 20.6746 110.799 20.8394 110.553 21.0782C110.308 21.3056 110.184 21.6013 110.184 21.9651C110.184 22.3175 110.319 22.6074 110.588 22.8348C110.869 23.0508 111.226 23.1589 111.659 23.1589C112.198 23.1589 112.666 23.0452 113.064 22.8178C113.474 22.5904 113.79 22.2891 114.012 21.9139C114.234 21.5273 114.346 21.101 114.346 20.6349V18.2642C114.346 17.8094 114.17 17.44 113.819 17.1558C113.48 16.8601 113.023 16.7123 112.449 16.7123C111.923 16.7123 111.461 16.8487 111.062 17.1216C110.676 17.3831 110.389 17.7242 110.202 18.1449L108.551 17.3433C108.727 16.8885 109.014 16.4906 109.412 16.1495C109.81 15.7971 110.272 15.5242 110.799 15.3309C111.337 15.1376 111.905 15.041 112.503 15.041C113.252 15.041 113.913 15.1774 114.486 15.4503C115.071 15.7232 115.522 16.1041 115.838 16.5929C116.167 17.0705 116.33 17.6276 116.33 18.2642V24.472H114.434V22.8007L114.838 22.8519C114.615 23.2271 114.328 23.5512 113.977 23.824C113.638 24.0968 113.246 24.3072 112.801 24.455C112.368 24.6028 111.882 24.6767 111.343 24.6767Z" fill="#61DAFB"/>
<path d="M122.587 24.5744C121.592 24.5744 120.82 24.3015 120.27 23.7557C119.72 23.2101 119.444 22.4426 119.444 21.4535V16.9851H117.777V15.2456H118.039C118.484 15.2456 118.829 15.1205 119.075 14.8704C119.321 14.6203 119.444 14.2792 119.444 13.8471V13.1309H121.428V15.2456H123.589V16.9851H121.428V21.3682C121.428 21.6865 121.481 21.9594 121.586 22.1868C121.692 22.4028 121.861 22.5733 122.096 22.6984C122.33 22.8121 122.634 22.869 123.009 22.869C123.102 22.869 123.208 22.8633 123.325 22.8519C123.442 22.8405 123.553 22.8291 123.659 22.8178V24.472C123.494 24.4948 123.313 24.5175 123.114 24.5403C122.915 24.563 122.739 24.5744 122.587 24.5744Z" fill="#61DAFB"/>
</svg>
