<svg width="150" height="38" viewBox="0 0 150 38" fill="none" xmlns="http://www.w3.org/2000/svg">
<g clip-path="url(#clip0_777_10321)">
<path d="M49.7202 29.2809C48.7944 29.2724 47.8703 29.2007 46.9544 29.0662C45.9616 28.9315 44.9772 28.7415 44.0056 28.4973V27.0051C44.9667 27.2475 45.9403 27.4375 46.9221 27.574C47.8128 27.7079 48.7118 27.7797 49.6126 27.7887C50.8586 27.8674 52.0976 27.5519 53.1533 26.887C53.5548 26.5941 53.8771 26.2064 54.0913 25.7585C54.3054 25.3107 54.4047 24.8168 54.3801 24.3212C54.4052 23.7991 54.2956 23.2792 54.062 22.8113C53.8284 22.3433 53.4785 21.9429 53.0457 21.6482C52.616 21.3382 52.1497 21.0822 51.6574 20.8859C51.0977 20.6784 50.4987 20.4816 49.8601 20.2955C49.0011 20.0498 48.1627 19.7376 47.3526 19.3615C46.7287 19.0794 46.1546 18.6988 45.6522 18.2343C45.2243 17.8341 44.8932 17.3423 44.6836 16.7958C44.4694 16.1965 44.3638 15.564 44.3715 14.9279C44.3617 14.213 44.5125 13.5051 44.8128 12.8559C45.107 12.2323 45.5372 11.6822 46.0719 11.2456C46.6468 10.7615 47.3127 10.3966 48.0306 10.1721C48.8604 9.94166 49.7201 9.83671 50.5812 9.8608C52.1807 9.89259 53.7721 10.0978 55.3272 10.4727V11.9971C54.5368 11.7944 53.7356 11.6367 52.9273 11.5248C52.2141 11.4239 51.4951 11.3701 50.7749 11.3637C49.5922 11.3022 48.4236 11.6428 47.4602 12.3299C47.0458 12.6236 46.7096 13.0137 46.4808 13.4665C46.252 13.9192 46.1375 14.4209 46.1472 14.9279C46.1391 15.3712 46.2158 15.8121 46.3732 16.2268C46.5358 16.639 46.7939 17.0069 47.1266 17.3004C47.5353 17.6521 47.9964 17.9383 48.4933 18.1484C49.1918 18.4443 49.9112 18.6883 50.6457 18.8784C51.4421 19.1146 52.1811 19.3687 52.8627 19.6406C53.503 19.8842 54.1019 20.2246 54.6384 20.6498C55.1364 21.0518 55.5404 21.5574 55.8222 22.1312C56.1271 22.8051 56.2743 23.5393 56.2527 24.2783C56.2927 24.9895 56.1611 25.7 55.869 26.35C55.5768 27 55.1327 27.5707 54.5738 28.0142C53.1429 28.9647 51.4345 29.4106 49.7202 29.2809Z" fill="#01A71C"/>
<path d="M65.2389 29.2274C64.3907 29.2872 63.5396 29.1627 62.7444 28.8624C61.9491 28.5622 61.2287 28.0933 60.6328 27.4883C59.5051 26.0562 58.9458 24.26 59.0616 22.4427C58.9439 20.5305 59.4871 18.6359 60.6005 17.075C61.1446 16.4367 61.831 15.9344 62.6047 15.6081C63.3784 15.2819 64.2178 15.1409 65.056 15.1963C65.7548 15.1492 66.4551 15.2631 67.1027 15.5293C67.7503 15.7955 68.3278 16.2069 68.7903 16.7315C69.7043 18.0195 70.1521 19.5791 70.0603 21.1544C70.0603 21.5409 70.0603 21.8701 70.0603 22.1421C70.0512 22.3738 70.0187 22.6039 69.9634 22.8291H60.7404C60.7038 24.1904 61.1497 25.5209 61.9996 26.5865C62.4545 27.0182 62.995 27.3501 63.5862 27.5609C64.1775 27.7716 64.8065 27.8566 65.4326 27.8103C66.0896 27.8063 66.7449 27.7452 67.3913 27.6278C68.0983 27.5008 68.7931 27.3141 69.4684 27.0696L69.5975 28.433C68.9009 28.699 68.1801 28.8967 67.4451 29.0234C66.7173 29.1572 65.9789 29.2255 65.2389 29.2274ZM65.0021 16.4631C62.3619 16.4631 60.9485 18.1593 60.7619 21.5516H68.4567C68.5633 20.1988 68.2716 18.8444 67.6173 17.6547C67.3182 17.2515 66.9213 16.9307 66.4639 16.7223C66.0065 16.5138 65.5035 16.4247 65.0021 16.4631Z" fill="#01A71C"/>
<path d="M73.87 8.48682H75.5704V29.002H73.87V8.48682Z" fill="#01A71C"/>
<path d="M85.6221 29.2274C84.7739 29.2872 83.9228 29.1627 83.1275 28.8624C82.3323 28.5622 81.6119 28.0933 81.016 27.4883C79.8921 26.0547 79.3366 24.2586 79.4555 22.4427C79.3378 20.5305 79.881 18.6359 80.9944 17.075C81.5386 16.4367 82.2249 15.9344 82.9986 15.6081C83.7723 15.2819 84.6118 15.1409 85.4499 15.1963C86.1487 15.1492 86.849 15.2631 87.4966 15.5293C88.1442 15.7955 88.7217 16.2069 89.1843 16.7315C90.0792 18.0263 90.5079 19.5854 90.4004 21.1544C90.4004 21.5409 90.4004 21.8701 90.4004 22.1421C90.3913 22.3738 90.3588 22.6039 90.3035 22.8291H81.1236C81.0879 24.1902 81.5337 25.5204 82.3827 26.5865C82.8389 27.0196 83.3811 27.3523 83.9744 27.5631C84.5676 27.7739 85.1986 27.8581 85.8265 27.8103C86.4835 27.8063 87.1389 27.7452 87.7852 27.6278C88.4922 27.5007 89.187 27.3139 89.8623 27.0696L89.9914 28.433C89.2949 28.699 88.574 28.8967 87.839 29.0234C87.1077 29.1579 86.3657 29.2261 85.6221 29.2274ZM85.3961 16.4631C82.7558 16.4631 81.3424 18.1593 81.1559 21.5516H88.8507C88.9572 20.1988 88.6655 18.8444 88.0112 17.6547C87.7121 17.2515 87.3152 16.9307 86.8578 16.7223C86.4004 16.5138 85.8975 16.4247 85.3961 16.4631Z" fill="#01A71C"/>
<path d="M94.1778 15.3253H95.5984L95.7275 16.9248H95.8567C96.5311 16.6028 97.1481 16.3237 97.7077 16.0875C98.2673 15.8513 98.7803 15.6581 99.2467 15.5078C99.6684 15.3654 100.1 15.2541 100.538 15.175C100.929 15.1096 101.325 15.0773 101.722 15.0784C102.206 15.042 102.693 15.1051 103.152 15.2639C103.611 15.4227 104.033 15.6738 104.391 16.0016C105.049 16.7889 105.37 17.8033 105.284 18.825V29.0343H103.573V19.3725C103.638 18.6094 103.428 17.8482 102.981 17.2254C102.741 16.9956 102.455 16.8192 102.141 16.7082C101.828 16.5971 101.494 16.5539 101.162 16.5813C100.341 16.6004 99.5269 16.749 98.7516 17.0215C97.7661 17.3528 96.8058 17.7547 95.8782 18.2238V28.9591H94.1778V15.3253Z" fill="#01A71C"/>
<path d="M110.579 12.2657C110.43 12.2873 110.278 12.2749 110.134 12.2296C109.99 12.1842 109.858 12.1071 109.749 12.0038C109.639 11.9006 109.554 11.774 109.5 11.6334C109.447 11.4929 109.425 11.342 109.438 11.1921C109.438 10.8903 109.558 10.6009 109.772 10.3875C109.986 10.1741 110.276 10.0542 110.579 10.0542C110.882 10.0542 111.172 10.1741 111.386 10.3875C111.6 10.6009 111.72 10.8903 111.72 11.1921C111.733 11.342 111.711 11.4929 111.658 11.6334C111.604 11.774 111.519 11.9006 111.409 12.0038C111.3 12.1071 111.168 12.1842 111.024 12.2296C110.88 12.2749 110.728 12.2873 110.579 12.2657ZM109.718 15.3252H111.418V29.002H109.718V15.3252Z" fill="#01A71C"/>
<path d="M119.253 29.2489C117 29.2489 115.874 28.0072 115.874 25.5237V15.3252H117.574V24.987C117.502 25.7401 117.683 26.4958 118.091 27.134C118.307 27.3652 118.574 27.5435 118.871 27.6552C119.168 27.7669 119.486 27.809 119.802 27.7781C120.716 27.7734 121.621 27.5986 122.471 27.2628C123.368 26.9193 124.297 26.5114 125.258 26.039V15.3252H126.991V29.002H125.57L125.441 27.3058H125.344L123.483 28.1753C122.952 28.4187 122.457 28.6226 121.997 28.7873C121.566 28.9407 121.124 29.0592 120.674 29.1415C120.204 29.2199 119.729 29.2558 119.253 29.2489Z" fill="#01A71C"/>
<path d="M131.489 15.3252H132.888L133.039 16.9248H133.136C134.025 16.3882 134.953 15.9181 135.913 15.5185C136.596 15.2393 137.326 15.09 138.065 15.0783C138.738 14.9906 139.422 15.1299 140.007 15.4742C140.592 15.8185 141.045 16.348 141.294 16.9785H141.423C141.997 16.6206 142.517 16.3236 142.983 16.0874C143.403 15.8719 143.834 15.6784 144.275 15.5077C144.623 15.3666 144.983 15.2553 145.351 15.1749C145.706 15.108 146.066 15.0757 146.427 15.0783C146.905 15.0435 147.385 15.1054 147.838 15.2604C148.291 15.4154 148.708 15.6602 149.064 15.9801C149.722 16.7674 150.043 17.7818 149.957 18.8035V29.0127H148.278V19.351C148.353 18.587 148.142 17.8223 147.686 17.2039C147.444 16.9776 147.157 16.8044 146.844 16.6953C146.531 16.5862 146.198 16.5437 145.867 16.5705C145.21 16.5918 144.561 16.7299 143.952 16.9785C143.145 17.303 142.368 17.6944 141.627 18.1486V28.9913H139.905V19.3295C139.98 18.5655 139.769 17.8009 139.313 17.1824C139.071 16.9562 138.784 16.7829 138.471 16.6738C138.158 16.5648 137.825 16.5223 137.495 16.5491C136.807 16.5692 136.128 16.7147 135.493 16.9785C134.693 17.302 133.922 17.6935 133.19 18.1486V29.002H131.489V15.3252Z" fill="#01A71C"/>
<path d="M23.0844 24.0636C22.4119 24.0432 21.7563 24.2759 21.2479 24.7154C20.7395 25.155 20.4154 25.7692 20.3401 26.4361C20.3367 26.449 20.3364 26.4625 20.3392 26.4756C20.342 26.4886 20.3479 26.5009 20.3562 26.5113C20.3646 26.5217 20.3752 26.53 20.3874 26.5356C20.3995 26.5412 20.4128 26.5439 20.4262 26.5435H25.7533C25.7656 26.5436 25.7778 26.541 25.789 26.5361C25.8002 26.5311 25.8102 26.5238 25.8184 26.5146C25.8265 26.5055 25.8326 26.4947 25.8363 26.483C25.8399 26.4713 25.841 26.459 25.8394 26.4468C25.7871 25.7679 25.4684 25.1369 24.9527 24.6907C24.4369 24.2445 23.7656 24.0192 23.0844 24.0636Z" fill="#01A71C"/>
<path d="M34.5028 6.2432L23.2028 18.9001C23.1705 18.9349 23.1314 18.9627 23.0879 18.9817C23.0443 19.0007 22.9974 19.0105 22.9498 19.0105C22.9023 19.0105 22.8553 19.0007 22.8118 18.9817C22.7683 18.9627 22.7292 18.9349 22.6969 18.9001L16.9285 12.9635C16.8796 12.9026 16.853 12.8268 16.853 12.7488C16.853 12.6707 16.8796 12.595 16.9285 12.5341L18.8334 10.0972C18.8653 10.0528 18.9073 10.0167 18.956 9.99181C19.0046 9.9669 19.0585 9.9539 19.1132 9.9539C19.1679 9.9539 19.2218 9.9669 19.2705 9.99181C19.3191 10.0167 19.3611 10.0528 19.393 10.0972L22.6216 13.6613C22.6539 13.6997 22.6943 13.7305 22.7398 13.7517C22.7854 13.7729 22.835 13.7838 22.8853 13.7838C22.9355 13.7838 22.9852 13.7729 23.0307 13.7517C23.0763 13.7305 23.1166 13.6997 23.1489 13.6613L32.1459 1.35864C32.171 1.32228 32.1858 1.2799 32.1888 1.2359C32.1919 1.1919 32.1831 1.14789 32.1633 1.10844C32.1435 1.06899 32.1135 1.03555 32.0764 1.01158C32.0393 0.987619 31.9964 0.974009 31.9522 0.972168L0.269049 0.972168C0.197692 0.972168 0.129259 1.00044 0.0788025 1.05078C0.0283461 1.10111 0 1.16937 0 1.24055L0 37.2038C0 37.275 0.0283461 37.3432 0.0788025 37.3936C0.129259 37.4439 0.197692 37.4722 0.269049 37.4722H34.7073C34.7786 37.4722 34.8471 37.4439 34.8975 37.3936C34.948 37.3432 34.9763 37.275 34.9763 37.2038V6.40423C34.9977 6.34159 34.9933 6.27303 34.9641 6.21364C34.9348 6.15425 34.8831 6.10889 34.8203 6.08754C34.7575 6.06618 34.6888 6.07059 34.6292 6.09978C34.5697 6.12897 34.5242 6.18056 34.5028 6.2432ZM9.75032 33.4679C7.48954 33.5816 5.27344 32.8113 3.57297 31.3208C3.51924 31.2601 3.4896 31.1818 3.4896 31.1008C3.4896 31.0197 3.51924 30.9415 3.57297 30.8807L4.91821 29.002C4.94042 28.9635 4.97013 28.9299 5.00558 28.903C5.04103 28.8762 5.08152 28.8567 5.12464 28.8457C5.16776 28.8347 5.21266 28.8324 5.25668 28.839C5.3007 28.8455 5.34297 28.8608 5.38097 28.8839C6.60988 30.0204 8.22521 30.6496 9.90099 30.6445C11.6659 30.6445 12.5269 29.8286 12.5269 28.9698C12.5269 26.3075 3.83125 28.1325 3.83125 22.4642C3.83125 19.9629 5.98364 17.8803 9.55661 17.8803C11.6071 17.8075 13.6144 18.4788 15.2066 19.7697C15.2665 19.8317 15.2999 19.9144 15.2999 20.0005C15.2999 20.0865 15.2665 20.1693 15.2066 20.2313L13.8829 22.067C13.8556 22.1035 13.821 22.1341 13.7814 22.1567C13.7417 22.1793 13.6978 22.1936 13.6524 22.1987C13.607 22.2037 13.5611 22.1994 13.5174 22.186C13.4738 22.1725 13.4333 22.1503 13.3986 22.1207C12.2246 21.1899 10.7657 20.6896 9.26603 20.7036C7.88851 20.7036 7.11365 21.3155 7.11365 22.2173C7.11365 24.6113 15.7878 23.0117 15.7878 28.6585C15.7878 31.3853 13.8183 33.4679 9.73956 33.4679H9.75032ZM28.7129 28.2398C28.7144 28.2797 28.7076 28.3195 28.693 28.3566C28.6784 28.3938 28.6563 28.4275 28.628 28.4557C28.5997 28.4839 28.5659 28.506 28.5286 28.5206C28.4914 28.5352 28.4515 28.5419 28.4115 28.5404H20.4477C20.4349 28.5417 20.4226 28.5456 20.4113 28.5517C20.4001 28.5578 20.3902 28.5662 20.3822 28.5761C20.3742 28.5861 20.3682 28.5976 20.3647 28.6099C20.3612 28.6222 20.3601 28.6351 20.3616 28.6478C20.4907 29.3901 20.8937 30.0574 21.4912 30.5183C22.0887 30.9792 22.8374 31.2004 23.5902 31.1383C24.578 31.1175 25.5371 30.8035 26.3452 30.2366C26.3768 30.2102 26.4136 30.1908 26.4532 30.1797C26.4928 30.1686 26.5343 30.166 26.575 30.1721C26.6157 30.1781 26.6547 30.1928 26.6893 30.215C26.7239 30.2372 26.7533 30.2665 26.7757 30.301L27.7443 31.7073C27.7847 31.7698 27.8004 31.8449 27.7885 31.9183C27.7765 31.9916 27.7378 32.058 27.6797 32.1045C26.401 33.0353 24.8498 33.5184 23.2673 33.4786C22.4768 33.5226 21.6858 33.4013 20.945 33.1226C20.2043 32.8438 19.5301 32.4137 18.9657 31.8598C18.4013 31.3059 17.9592 30.6404 17.6677 29.9061C17.3762 29.1718 17.2417 28.3849 17.2729 27.5957C17.251 26.8255 17.3858 26.0588 17.6693 25.342C17.9527 24.6252 18.3789 23.9732 18.9221 23.4253C19.4653 22.8775 20.1142 22.4451 20.8296 22.1545C21.545 21.8638 22.312 21.7209 23.0844 21.7342C26.4313 21.7342 28.7021 24.2355 28.7021 27.8963L28.7129 28.2398Z" fill="#01A71C"/>
</g>
<defs>
<clipPath id="clip0_777_10321">
<rect width="150" height="36.5" fill="white" transform="translate(0 0.972168)"/>
</clipPath>
</defs>
</svg>
