<svg width="257" height="46" viewBox="0 0 257 46" fill="none" xmlns="http://www.w3.org/2000/svg">
<path d="M1.12012 42C1.02051 42 0.904297 41.9834 0.804688 41.9336C0.489258 41.7842 0.339844 41.6182 0.339844 41.2695C0.339844 39.8584 1.93359 36.4385 6.64844 28.835C10.2012 23.1572 16.626 13.3955 19.083 9.95898C19.083 9.95898 20.6436 7.81738 20.6436 7.75098C20.6436 7.70117 20.4775 7.66797 19.8135 7.66797C18.0703 7.66797 15.3809 7.73438 8.49121 8.08301C5.28711 8.23242 4.90527 8.26562 4.90527 8.43164V8.49805C4.90527 8.56445 4.85547 8.59766 4.68945 8.59766C3.77637 8.59766 2.86328 8.53125 2.54785 8.21582C2.38184 8.0498 2.28223 7.88379 2.28223 7.75098C2.28223 6.30664 16.5264 6.07422 20.7764 6.07422C25.2422 6.07422 34.7383 6.33984 36.166 6.50586C37.0957 6.62207 37.6602 6.87109 37.6602 7.16992C37.6602 7.61816 37.4277 7.63477 30.1396 7.63477H23.4658C22.3535 9.41113 22.4365 9.37793 16.5264 18.21C8.65723 29.9805 5.37012 35.459 4.49023 36.9531C4.47363 36.9863 4.45703 37.0029 4.45703 37.0195L4.47363 37.0361C4.50684 37.0361 4.67285 36.9033 4.83887 36.9033C5.02148 36.9033 5.1543 37.0029 5.1543 37.1357C5.1543 37.2188 4.92188 37.6172 4.62305 37.999C3.19531 40.0078 1.91699 42 1.12012 42ZM35.4854 29.25C35.0039 29.25 34.4395 29.2168 34.207 29.1338C32.7793 28.6855 31.7666 27.5898 31.4678 26.2119C31.4346 26.0293 31.418 25.7305 31.418 25.3984C31.418 24.1699 31.5342 24.2695 31.5342 24.0703C31.5342 24.0537 31.5342 24.0371 31.5176 24.0371C31.4346 24.0371 31.1025 24.3525 30.4883 24.9834C28.3799 27.1084 26.3545 28.6357 24.6279 28.6357C22.5693 28.6357 21.7559 27.1084 21.7559 25.3154C21.7559 22.4268 24.7607 19.3223 28.0811 18.6914C28.5957 18.5918 29.0938 18.542 29.5586 18.542C31.5342 18.542 32.3643 19.1562 33.543 20.4346C34.4893 19.5215 35.0205 18.9902 35.8174 18.9902C36.332 18.9902 36.9131 19.3887 36.9131 19.8203C36.9131 20.0859 36.6973 20.4678 35.9502 21.6133C34.6719 23.5889 34.0244 25.2158 34.0244 26.3779C34.0244 27.5566 34.7051 28.2705 35.9004 28.2705C37.5771 28.2705 40.0508 27.3076 43.1553 24.8506C43.7529 24.3857 44.2676 23.9873 44.3174 23.9873C44.3672 23.9873 44.4502 24.0537 44.5166 24.1201L44.5332 24.1533C44.5332 24.4854 41.9766 26.6436 40.4326 27.5732C38.5732 28.7021 36.9795 29.25 35.4854 29.25ZM24.8438 27.7393C25.9062 27.7393 27.6992 26.6602 30.2061 24.3359C31.6338 23.0244 32.0322 22.5762 32.6133 21.6797L32.9951 21.082C32.0322 20.6338 31.2686 20.252 30.2725 20.252C27.8984 20.252 25.541 21.9619 24.2295 24.668C23.8643 25.4316 23.8477 25.498 23.8477 26.3447V27.2246C24.1797 27.5234 24.3623 27.7393 24.8438 27.7393ZM36.2324 45.835C32.8457 45.835 30.5381 43.0625 30.5381 40.0908C30.5381 35.957 34.4395 31.9229 40.333 29.9971C42.873 29.167 46.2432 28.5029 48.9326 28.3203C50.0283 28.2373 49.8125 28.4199 50.4932 27.125C51.7715 24.6348 52.1533 23.9043 52.1533 23.8545H52.1367C52.0039 24.0537 49.1982 27.8887 46.7412 27.8887C44.9482 27.8887 43.5537 26.1953 43.5537 24.1201C43.5537 23.041 43.8525 21.7461 44.3672 20.7168C45.0479 19.3389 45.9609 18.542 46.7578 18.542C47.5879 18.542 48.0361 19.1064 48.0361 19.5049C48.0361 19.6709 47.9365 19.8037 47.6875 20.0693C46.5918 21.248 45.7285 23.4727 45.7285 25.1494C45.7285 25.8467 45.7617 26.0625 45.9111 26.3115C46.1768 26.7598 46.4922 26.9756 46.9238 26.9756C47.7871 26.9756 49.0986 26.2119 50.6426 24.6016C52.8008 22.4102 53.3984 20.5176 54.4609 20.5176C54.9092 20.5176 55.3242 20.8994 55.3242 21.2979C55.3242 22.4102 52.9502 27.6895 52.9502 28.0049C52.9502 28.0713 53.3486 28.1045 54.6768 28.1211C57.3994 28.1211 58.4287 28.2207 58.4287 28.3535C58.4287 28.4697 54.4277 28.4365 52.6846 28.5693C49.0488 36.8867 45.6953 41.585 40.9307 44.3906C39.3369 45.3203 37.6602 45.835 36.2324 45.835ZM35.6514 44.4238C36.9463 44.4238 38.7393 43.8428 41.8105 40.8379C44.251 38.3809 45.7949 36.0732 48.6172 30.7607C49.165 29.7148 49.5801 28.8516 49.5801 28.752C49.5635 28.7354 49.5303 28.7354 49.4473 28.7354C48.9824 28.7354 47.4551 28.9346 45.9609 29.1836C34.4561 31.0928 31.501 36.4717 31.4844 39.8418C31.4844 42.4648 33.377 44.4238 35.6514 44.4238ZM50.4102 45.835C47.0234 45.835 44.7158 43.0625 44.7158 40.0908C44.7158 35.957 48.6172 31.9229 54.5107 29.9971C57.0508 29.167 60.4209 28.5029 63.1104 28.3203C64.2061 28.2373 63.9902 28.4199 64.6709 27.125C65.9492 24.6348 66.3311 23.9043 66.3311 23.8545H66.3145C66.1816 24.0537 63.376 27.8887 60.9189 27.8887C59.126 27.8887 57.7314 26.1953 57.7314 24.1201C57.7314 23.041 58.0303 21.7461 58.5449 20.7168C59.2256 19.3389 60.1387 18.542 60.9355 18.542C61.7656 18.542 62.2139 19.1064 62.2139 19.5049C62.2139 19.6709 62.1143 19.8037 61.8652 20.0693C60.7695 21.248 59.9062 23.4727 59.9062 25.1494C59.9062 25.8467 59.9395 26.0625 60.0889 26.3115C60.3545 26.7598 60.6699 26.9756 61.1016 26.9756C61.9648 26.9756 63.2764 26.2119 64.8203 24.6016C66.9785 22.4102 67.5762 20.5176 68.6387 20.5176C69.0869 20.5176 69.502 20.8994 69.502 21.2979C69.502 22.4102 67.1279 27.6895 67.1279 28.0049C67.1279 28.0713 67.5264 28.1045 68.8545 28.1211C71.5771 28.1211 72.6064 28.2207 72.6064 28.3535C72.6064 28.4697 68.6055 28.4365 66.8623 28.5693C63.2266 36.8867 59.873 41.585 55.1084 44.3906C53.5146 45.3203 51.8379 45.835 50.4102 45.835ZM49.8291 44.4238C51.124 44.4238 52.917 43.8428 55.9883 40.8379C58.4287 38.3809 59.9727 36.0732 62.7949 30.7607C63.3428 29.7148 63.7578 28.8516 63.7578 28.752C63.7412 28.7354 63.708 28.7354 63.625 28.7354C63.1602 28.7354 61.6328 28.9346 60.1387 29.1836C48.6338 31.0928 45.6787 36.4717 45.6621 39.8418C45.6621 42.4648 47.5547 44.4238 49.8291 44.4238ZM85.6221 29.25C85.1406 29.25 84.5762 29.2168 84.3438 29.1338C82.916 28.6855 81.9033 27.5898 81.6045 26.2119C81.5713 26.0293 81.5547 25.7305 81.5547 25.3984C81.5547 24.1699 81.6709 24.2695 81.6709 24.0703C81.6709 24.0537 81.6709 24.0371 81.6543 24.0371C81.5713 24.0371 81.2393 24.3525 80.625 24.9834C78.5166 27.1084 76.4912 28.6357 74.7646 28.6357C72.7061 28.6357 71.8926 27.1084 71.8926 25.3154C71.8926 22.4268 74.8975 19.3223 78.2178 18.6914C78.7324 18.5918 79.2305 18.542 79.6953 18.542C81.6709 18.542 82.501 19.1562 83.6797 20.4346C84.626 19.5215 85.1572 18.9902 85.9541 18.9902C86.4688 18.9902 87.0498 19.3887 87.0498 19.8203C87.0498 20.0859 86.834 20.4678 86.0869 21.6133C84.8086 23.5889 84.1611 25.2158 84.1611 26.3779C84.1611 27.5566 84.8418 28.2705 86.0371 28.2705C87.7139 28.2705 90.1875 27.3076 93.292 24.8506C93.8896 24.3857 94.4043 23.9873 94.4541 23.9873C94.5039 23.9873 94.5869 24.0537 94.6533 24.1201L94.6699 24.1533C94.6699 24.4854 92.1133 26.6436 90.5693 27.5732C88.71 28.7021 87.1162 29.25 85.6221 29.25ZM74.9805 27.7393C76.043 27.7393 77.8359 26.6602 80.3428 24.3359C81.7705 23.0244 82.1689 22.5762 82.75 21.6797L83.1318 21.082C82.1689 20.6338 81.4053 20.252 80.4092 20.252C78.0352 20.252 75.6777 21.9619 74.3662 24.668C74.001 25.4316 73.9844 25.498 73.9844 26.3447V27.2246C74.3164 27.5234 74.499 27.7393 74.9805 27.7393ZM97.9736 29.2666C95.8154 29.2666 94.9854 28.4863 94.5205 26.959C93.707 28.2539 93.126 28.835 92.6279 28.835C92.3623 28.835 92.1797 28.6689 92.1797 28.3369C92.1797 27.1582 94.2715 23.2402 98.0068 17.0811C99.9492 13.877 104.05 7.40234 105.345 5.45996C106.772 3.30176 108.814 0.612305 109.08 0.479492C109.263 0.396484 109.445 0.363281 109.645 0.363281C110.242 0.363281 110.906 0.745117 110.906 1.32617C110.906 1.625 110.392 2.47168 108.001 6.09082C108.001 6.09082 97.3428 22.2939 97.3428 22.5596C97.376 22.5596 97.8574 22.1279 98.4717 21.5303C100.729 19.3389 102.356 18.2432 104.066 18.2432C105.81 18.2432 106.623 19.3057 106.905 20.4512C106.938 20.6338 106.972 20.9492 106.972 21.2646C106.972 22.4434 106.855 22.3105 106.855 22.4766C106.855 22.5596 107.055 22.6094 107.802 22.6924C110.109 22.9414 110.707 23.207 110.707 23.4229C110.707 23.5059 110.641 23.5723 110.541 23.5723C110.475 23.5723 110.458 23.4893 106.623 23.124C105.295 26.5771 101.36 29.2666 97.9736 29.2666ZM97.2266 27.9551C98.7207 27.9551 100.514 27.125 102.124 25.5146C102.938 24.7012 103.95 23.3896 103.95 23.1572C103.95 23.1074 103.817 23.0908 103.602 23.0908C102.871 23.0908 101.194 23.3066 100.132 23.5557C97.459 24.1865 95.6494 25.5479 95.6494 26.7764C95.6494 27.3906 96.0645 27.9551 97.2266 27.9551ZM97.2598 23.7549C98.0234 23.373 99.916 22.5264 104.299 22.5264L104.432 22.2109C104.631 21.7295 104.813 20.8496 104.813 20.4014C104.813 19.3389 103.983 19.2227 103.718 19.2227C102.672 19.2227 101.244 19.8203 99.0361 21.8623C98.1396 22.6758 97.2266 23.6387 97.2266 23.7549H97.2598ZM152.493 42C152.41 42 152.327 41.9834 152.244 41.9668C151.846 41.8672 151.63 41.4023 151.63 40.6885C151.63 38.9785 152.792 34.9277 154.353 31.292C157.191 24.6348 159.781 20.1357 165.974 11.1045C167.601 8.73047 168.646 7.08691 168.646 6.9043C168.646 6.8877 168.63 6.87109 168.613 6.87109C168.265 6.87109 165.874 8.29883 164.33 9.42773C161.242 11.6855 158.918 13.7773 152.925 19.7373C150.219 22.4102 147.479 25.0498 146.849 25.6143C144.076 28.0215 142.383 29.0176 140.988 29.0176C139.212 29.0176 138.332 27.5234 138.332 24.4854C138.332 21.4805 138.963 18.542 140.938 13.9932C141.005 13.8271 141.055 13.6943 141.055 13.6611C140.938 13.6611 134.846 20.9326 132.405 23.9873C126.894 30.8438 122.295 37.8164 121.979 39.7588C121.88 40.373 121.896 40.4561 121.398 40.4561C120.884 40.4561 120.535 40.124 120.535 39.4102C120.535 37.1025 124.752 30.1963 130.895 22.626C133.451 19.4717 142.582 8.74707 143.711 7.60156C144.259 7.02051 144.541 6.87109 145.022 6.87109C145.786 6.87109 146.334 7.36914 146.334 8.0166C146.334 8.29883 146.135 8.83008 144.79 11.4863C142.084 16.915 140.291 21.248 140.291 25.498C140.291 26.7764 140.424 27.7559 140.789 27.7559C141.204 27.7559 142.316 27.4736 144.026 26.1787C147.031 23.9375 155.183 15.4873 157.656 13.2295C162.902 8.38184 167.717 5.14453 169.543 5.14453C170.356 5.14453 171.087 5.69238 171.087 6.47266C171.087 7.63477 169.858 9.82617 166.754 14.6074C162.105 21.7793 160.562 24.3359 158.32 28.5693C152.692 39.2441 153.473 42 152.493 42ZM180.566 29.25C180.317 29.25 180.068 29.2168 179.786 29.1172C178.69 28.7852 177.379 27.7891 177.379 25.5479V24.6348C174.241 27.8555 172.863 29.0342 170.938 29.0342C169.294 29.0176 168.165 27.8223 168.165 26.0127C168.165 22.9912 171.236 19.1729 173.212 19.1729C173.893 19.1729 174.208 19.6377 174.208 19.8535C174.208 19.9365 173.876 20.3516 173.461 20.7666C171.236 23.0908 170.273 25.5312 170.273 26.876C170.273 27.6064 170.39 28.1045 171.369 28.1045C172.548 28.1045 174.042 27.1084 176.316 24.8506C177.528 23.6221 177.811 23.3066 178.126 22.6924C178.956 21.0986 179.853 20.2686 180.683 20.2686C181.164 20.2686 181.845 20.6338 181.845 21.1318C181.845 21.3809 181.662 21.7129 181.181 22.4434C179.703 24.668 179.57 26.0625 179.57 26.959C179.57 27.9385 180.135 28.4033 180.898 28.4033C182.31 28.4033 183.953 27.6064 186.958 24.9502C187.888 24.1201 188.253 23.8379 188.419 23.8379C188.419 23.8379 188.535 23.8379 188.535 23.9043C188.535 24.0703 186.41 26.1289 185.182 27.1416C183.621 28.4531 181.646 29.25 180.566 29.25ZM179.736 44.8555C176.383 44.8555 174.042 42.083 174.042 39.1445C174.042 34.9443 177.927 30.9434 183.837 29.001C186.56 28.1211 189.631 27.6562 189.631 27.5732C189.631 27.5068 188.618 27.7393 187.771 26.0459C187.556 25.5977 187.539 25.4482 187.539 24.4355C187.539 23.5059 187.572 23.2402 187.738 22.792C188.651 20.3848 191.308 18.2764 193.648 18.2764C195.491 18.2764 196.371 19.4385 196.753 20.5176C197.251 19.7207 197.317 19.5215 197.948 19.5215C198.413 19.5215 198.828 19.9033 198.828 20.3184C198.828 21.4307 196.454 26.71 196.454 27.0254C196.454 27.0918 196.853 27.125 198.181 27.125C200.92 27.1416 201.933 27.2412 201.933 27.3574C201.933 27.4902 197.865 27.4238 196.188 27.5898C192.503 35.9072 189.282 40.5225 184.435 43.4111C182.841 44.3408 181.164 44.8555 179.736 44.8555ZM179.155 43.4443C180.45 43.4443 182.492 42.7139 185.298 39.8418C187.755 37.3848 189.299 35.0938 192.104 29.7646C192.652 28.7354 193.084 27.8555 193.084 27.7725C193.067 27.7559 193.034 27.7559 192.951 27.7559C192.486 27.7559 190.959 27.9551 189.465 28.1875C178.109 30.0801 174.988 35.4092 174.988 38.8623C174.988 41.4854 176.881 43.4443 179.155 43.4443ZM190.859 27.457C191.225 27.457 193.383 27.2578 193.416 27.1914C193.499 27.1084 195.425 23.207 195.425 23.1406C195.392 23.1406 195.143 23.4229 194.86 23.7881C193.698 25.2822 192.021 26.7764 191.025 27.2578C190.843 27.3408 190.727 27.4072 190.727 27.4404C190.727 27.457 190.76 27.457 190.859 27.457ZM189.996 26.7764C190.876 26.7764 192.984 25.3984 195.342 22.4766C195.79 21.9121 196.155 21.4141 196.155 21.3809C196.155 21.2979 195.143 20.2021 194.279 20.2021C193.682 20.2021 192.453 20.8994 191.424 21.9453C189.93 23.4395 189.515 24.585 189.515 25.8467C189.515 26.5107 189.631 26.7764 189.996 26.7764ZM199.094 29.25C198.994 29.25 198.895 29.2334 198.812 29.167C198.662 29.0674 198.629 29.0176 198.629 28.8184C198.629 28.0547 198.646 27.7559 202.016 22.0781C205.967 15.4375 211.794 5.42676 214.035 2.20605C214.6 1.44238 214.815 1.19336 215.463 1.19336C215.762 1.19336 216.708 1.42578 216.708 2.05664C216.708 2.6377 215.496 4.74609 210.997 11.9014C209.619 14.0928 205.436 20.833 205.153 21.3145V21.3477C205.203 21.3477 205.452 21.165 206.166 20.6172C207.992 19.2061 210.25 18.1436 211.379 18.1436C212.641 18.1436 213.172 19.2061 213.172 20.1855C213.172 20.8164 213.039 21.3477 211.977 24.3857C211.611 25.4648 211.412 26.4443 211.412 27.0586C211.412 27.7891 211.86 28.3203 212.508 28.3203C213.006 28.3203 213.753 28.1045 214.4 27.7891C216.409 26.793 219.314 23.6885 219.713 23.6885C219.763 23.6885 219.779 23.7383 219.779 23.8047C219.779 23.9541 217.372 26.3115 216.476 27.042C214.948 28.2871 213.471 28.9512 212.259 28.9512C210.615 28.9512 209.354 27.6729 209.354 25.3984C209.354 23.2402 210.831 19.7207 210.831 19.3389C210.831 19.2227 210.798 19.2061 210.682 19.2061C209.619 19.2061 207.229 20.4512 204.755 22.5928C204.074 23.1904 203.842 23.4893 202.846 24.9668C200.521 28.5195 199.708 29.25 199.094 29.25ZM232.28 29.25C231.799 29.25 231.234 29.2168 231.002 29.1338C229.574 28.6855 228.562 27.5898 228.263 26.2119C228.229 26.0293 228.213 25.7305 228.213 25.3984C228.213 24.1699 228.329 24.2695 228.329 24.0703C228.329 24.0537 228.329 24.0371 228.312 24.0371C228.229 24.0371 227.897 24.3525 227.283 24.9834C225.175 27.1084 223.149 28.6357 221.423 28.6357C219.364 28.6357 218.551 27.1084 218.551 25.3154C218.551 22.4268 221.556 19.3223 224.876 18.6914C225.391 18.5918 225.889 18.542 226.354 18.542C228.329 18.542 229.159 19.1562 230.338 20.4346C231.284 19.5215 231.815 18.9902 232.612 18.9902C233.127 18.9902 233.708 19.3887 233.708 19.8203C233.708 20.0859 233.492 20.4678 232.745 21.6133C231.467 23.5889 230.819 25.2158 230.819 26.3779C230.819 27.5566 231.5 28.2705 232.695 28.2705C234.372 28.2705 236.846 27.3076 239.95 24.8506C240.548 24.3857 241.062 23.9873 241.112 23.9873C241.162 23.9873 241.245 24.0537 241.312 24.1201L241.328 24.1533C241.328 24.4854 238.771 26.6436 237.228 27.5732C235.368 28.7021 233.774 29.25 232.28 29.25ZM221.639 27.7393C222.701 27.7393 224.494 26.6602 227.001 24.3359C228.429 23.0244 228.827 22.5762 229.408 21.6797L229.79 21.082C228.827 20.6338 228.063 20.252 227.067 20.252C224.693 20.252 222.336 21.9619 221.024 24.668C220.659 25.4316 220.643 25.498 220.643 26.3447V27.2246C220.975 27.5234 221.157 27.7393 221.639 27.7393ZM242.922 29.25C242.756 29.25 242.59 29.2334 242.44 29.2168C241.61 29.1006 240.946 28.5527 240.515 27.623C240.299 27.1748 240.282 27.042 240.282 25.9795C240.282 23.0908 242.059 19.3555 246.641 12.6318C249.845 7.93359 254.062 2.6377 255.107 2.04004C255.356 1.89062 255.605 1.82422 255.854 1.82422C256.22 1.82422 256.834 2.12305 256.834 2.53809C256.834 2.77051 256.635 3.11914 256.12 3.7832C248.301 13.7939 242.108 22.9082 242.108 27.0752C242.108 28.1543 242.523 28.5195 243.237 28.5195C243.719 28.5195 244.383 28.3203 245.229 27.9219C247.454 26.8926 251.521 23.1904 251.754 23.1904C251.82 23.1904 251.887 23.2734 251.887 23.3398C251.887 23.4893 249.28 25.8135 247.853 26.9424C245.927 28.4697 244.267 29.25 242.922 29.25ZM253.381 29.333C253.132 29.333 252.883 29.2666 252.667 29.1504C252.152 28.8848 251.887 28.3867 251.887 27.8223C251.887 26.6934 252.916 25.4814 253.879 25.4814C254.643 25.4814 255.323 26.2617 255.323 26.959C255.323 27.8389 254.46 29.333 253.381 29.333Z" fill="black"/>
</svg>
