<svg width="151" height="72" viewBox="0 0 151 72" fill="none" xmlns="http://www.w3.org/2000/svg">
<path fill-rule="evenodd" clip-rule="evenodd" d="M133.192 36.6909C133.192 28.4644 129.218 21.9731 121.622 21.9731C113.994 21.9731 109.378 28.4644 109.378 36.6266C109.378 46.2992 114.827 51.1837 122.648 51.1837C126.462 51.1837 129.346 50.3161 131.526 49.0949V42.668C129.346 43.7606 126.846 44.4354 123.673 44.4354C120.564 44.4354 117.808 43.3428 117.455 39.5509H133.128C133.128 39.1331 133.192 37.4621 133.192 36.6909ZM117.359 33.6381C117.359 30.0069 119.571 28.4965 121.59 28.4965C123.545 28.4965 125.628 30.0069 125.628 33.6381H117.359Z" fill="#635BFF"/>
<path fill-rule="evenodd" clip-rule="evenodd" d="M97.0065 21.9731C93.8654 21.9731 91.8462 23.4513 90.7244 24.4797L90.3078 22.4873H83.2565V59.9565L91.2693 58.2534L91.3013 49.1592C92.4552 49.9947 94.1539 51.1837 96.9744 51.1837C102.712 51.1837 107.936 46.5563 107.936 36.3695C107.904 27.0504 102.615 21.9731 97.0065 21.9731ZM95.0834 44.114C93.1924 44.114 92.0706 43.4392 91.3013 42.6037L91.2693 30.6817C92.1026 29.7498 93.2565 29.1071 95.0834 29.1071C98.0001 29.1071 100.019 32.3848 100.019 36.5945C100.019 40.9006 98.0321 44.114 95.0834 44.114Z" fill="#635BFF"/>
<path fill-rule="evenodd" clip-rule="evenodd" d="M72.2308 20.077L80.2757 18.3417V11.8184L72.2308 13.5215V20.077Z" fill="#635BFF"/>
<path d="M80.2757 22.519H72.2308V50.637H80.2757V22.519Z" fill="#635BFF"/>
<path fill-rule="evenodd" clip-rule="evenodd" d="M63.609 24.8972L63.0962 22.5192H56.1731V50.6372H64.1859V31.5812C66.0769 29.1068 69.2821 29.5567 70.2757 29.9102V22.5192C69.25 22.1336 65.5 21.4266 63.609 24.8972Z" fill="#635BFF"/>
<path fill-rule="evenodd" clip-rule="evenodd" d="M47.5834 15.5459L39.7629 17.2169L39.7308 42.9569C39.7308 47.7129 43.2885 51.2156 48.0321 51.2156C50.6603 51.2156 52.5834 50.7335 53.6411 50.1551V43.6317C52.6155 44.0495 47.5513 45.5277 47.5513 40.7717V29.3639H53.6411V22.5192H47.5513L47.5834 15.5459Z" fill="#635BFF"/>
<path fill-rule="evenodd" clip-rule="evenodd" d="M25.9167 30.6817C25.9167 29.4284 26.9424 28.9464 28.6411 28.9464C31.077 28.9464 34.1539 29.6855 36.5898 31.003V23.4513C33.9295 22.3909 31.3013 21.9731 28.6411 21.9731C22.1347 21.9731 17.8077 25.3794 17.8077 31.0673C17.8077 39.9365 29.9872 38.5226 29.9872 42.3466C29.9872 43.8248 28.7052 44.3069 26.9103 44.3069C24.25 44.3069 20.8526 43.2143 18.1603 41.7361V49.3842C21.1411 50.6695 24.1539 51.2158 26.9103 51.2158C33.577 51.2158 38.1603 47.906 38.1603 42.1538C38.1283 32.5776 25.9167 34.2808 25.9167 30.6817Z" fill="#635BFF"/>
</svg>
