<svg width="449" height="454" viewBox="0 0 449 454" fill="none" xmlns="http://www.w3.org/2000/svg">
<path d="M154.998 420.011C111.187 438.769 60.4009 418.395 41.6604 374.541C22.92 330.688 43.2748 279.852 87.0851 261.093C130.895 242.334 181.682 262.709 200.422 306.562C219.163 350.416 198.808 401.252 154.998 420.011Z" fill="url(#paint0_linear_752_6757)"/>
<path d="M58.4149 45.9461C90.654 20.5884 137.398 26.2014 162.731 58.4722C188.064 90.743 182.456 137.533 150.217 162.89C117.978 188.248 71.2338 182.635 45.901 150.364C20.5683 118.094 26.1757 71.3037 58.4149 45.9461Z" fill="url(#paint1_linear_752_6757)"/>
<path d="M246.004 105.426C289.571 71.1591 352.738 78.7441 386.971 122.353C421.205 165.962 413.627 229.192 370.061 263.459C326.494 297.726 263.327 290.141 229.093 246.532C194.86 202.923 202.438 139.693 246.004 105.426Z" fill="url(#paint2_linear_752_6757)"/>
<defs>
<linearGradient id="paint0_linear_752_6757" x1="27.8807" y1="295.555" x2="224.384" y2="372.374" gradientUnits="userSpaceOnUse">
<stop stop-color="#604CC3"/>
<stop offset="1" stop-color="#7C98DF"/>
</linearGradient>
<linearGradient id="paint1_linear_752_6757" x1="152.338" y1="163.735" x2="56.4927" y2="47.1398" gradientUnits="userSpaceOnUse">
<stop stop-color="#028CF3"/>
<stop offset="1" stop-color="#604CC3"/>
</linearGradient>
<linearGradient id="paint2_linear_752_6757" x1="395.731" y1="217.069" x2="206.506" y2="176.565" gradientUnits="userSpaceOnUse">
<stop stop-color="#2E245D"/>
<stop offset="1" stop-color="#604CC3"/>
</linearGradient>
</defs>
</svg>
