<svg width="184" height="41" viewBox="0 0 184 41" fill="none" xmlns="http://www.w3.org/2000/svg">
<g clip-path="url(#clip0_780_10576)">
<path d="M69.426 7.9173H62.7323V28.6516H60.0134V7.9173H53.3335V5.45605H69.426V7.9173Z" fill="#007ACC"/>
<path d="M79.9893 12.085L72.3709 31.2966C71.0137 34.724 69.1045 36.44 66.6433 36.44C65.9532 36.44 65.3782 36.3709 64.9135 36.2283V33.8499C65.484 34.0431 66.0084 34.1397 66.4823 34.1397C67.821 34.1397 68.8239 33.3438 69.491 31.7475L70.8159 28.6099L64.3477 12.085H67.292L71.7728 24.8284C71.828 24.9894 71.9384 25.4126 72.1133 26.0889H72.2099C72.2651 25.8313 72.3709 25.4218 72.5319 24.8606L77.2382 12.085H79.9893Z" fill="#007ACC"/>
<path d="M84.3273 26.262H84.2629V36.2727H81.6084V12.0926H84.2629V15.0047H84.3273C85.6338 12.8056 87.5384 11.7061 90.0549 11.7061C92.1895 11.7061 93.8549 12.4468 95.051 13.9282C96.2471 15.4095 96.8452 17.3969 96.8452 19.8904C96.8452 22.6599 96.1735 24.8819 94.8256 26.5473C93.4776 28.2126 91.6328 29.0453 89.2958 29.0453C87.1474 29.0407 85.4912 28.116 84.3273 26.262ZM84.2629 19.5821V21.8962C84.2629 23.2671 84.7091 24.4264 85.597 25.3833C86.4849 26.3402 87.6166 26.8141 88.9876 26.8141C90.5931 26.8141 91.8537 26.1976 92.7646 24.9693C93.6755 23.741 94.1309 22.0296 94.1309 19.8444C94.1309 17.9996 93.7031 16.555 92.852 15.5107C92.0009 14.4664 90.8462 13.942 89.3924 13.942C87.8512 13.942 86.6091 14.4802 85.6706 15.5521C84.7321 16.6194 84.2629 17.9628 84.2629 19.5821Z" fill="#007ACC"/>
<path d="M112.937 21.0359H101.242C101.284 22.8807 101.781 24.3022 102.728 25.3051C103.676 26.308 104.982 26.8095 106.643 26.8095C108.506 26.8095 110.222 26.193 111.787 24.9647V27.4536C110.333 28.5117 108.405 29.0407 106.013 29.0407C103.671 29.0407 101.836 28.2908 100.497 26.7865C99.1583 25.2821 98.4912 23.1659 98.4912 20.4378C98.4912 17.8616 99.2227 15.7591 100.681 14.1398C102.144 12.5158 103.957 11.7061 106.123 11.7061C108.29 11.7061 109.965 12.4054 111.152 13.8085C112.339 15.2117 112.932 17.1577 112.932 19.6465V21.0359H112.937ZM110.218 18.7863C110.209 17.2543 109.836 16.0628 109.109 15.2117C108.382 14.3606 107.37 13.9327 106.077 13.9327C104.826 13.9327 103.763 14.379 102.889 15.2761C102.015 16.1732 101.477 17.3417 101.27 18.7863H110.218Z" fill="#007ACC"/>
<path d="M115.256 27.7154V24.5134C115.592 24.8355 115.992 25.1299 116.461 25.3875C116.93 25.6452 117.423 25.866 117.943 26.0408C118.462 26.2156 118.982 26.3582 119.502 26.4548C120.027 26.5514 120.51 26.6021 120.951 26.6021C122.479 26.6021 123.624 26.2938 124.379 25.6728C125.133 25.0517 125.51 24.1592 125.51 22.9953C125.51 22.3696 125.386 21.8268 125.133 21.3621C124.88 20.8975 124.535 20.4742 124.089 20.0924C123.643 19.7105 123.118 19.3425 122.511 18.9929C121.904 18.6432 121.25 18.2752 120.551 17.8841C119.81 17.4747 119.12 17.0607 118.481 16.6374C117.841 16.2188 117.28 15.7541 116.811 15.2481C116.337 14.742 115.964 14.167 115.693 13.5275C115.421 12.888 115.288 12.1336 115.288 11.2733C115.288 10.2152 115.5 9.2997 115.923 8.51761C116.346 7.73552 116.903 7.09146 117.598 6.58541C118.288 6.07935 119.074 5.70211 119.958 5.45369C120.841 5.20526 121.743 5.08105 122.658 5.08105C124.751 5.08105 126.274 5.35708 127.231 5.90453V8.95925C125.98 8.01155 124.369 7.5377 122.405 7.5377C121.862 7.5377 121.319 7.60211 120.776 7.72172C120.234 7.84594 119.751 8.04836 119.327 8.32899C118.904 8.60962 118.559 8.96845 118.292 9.4147C118.025 9.85634 117.892 10.3946 117.892 11.034C117.892 11.6275 117.993 12.1382 118.196 12.5706C118.398 13.003 118.697 13.3941 119.093 13.7529C119.488 14.1072 119.967 14.4522 120.537 14.788C121.103 15.1239 121.756 15.4873 122.497 15.8875C123.256 16.297 123.978 16.7294 124.659 17.1803C125.34 17.6311 125.938 18.1326 126.449 18.6846C126.959 19.2367 127.369 19.844 127.668 20.511C127.967 21.1781 128.119 21.9464 128.119 22.8067C128.119 23.9476 127.912 24.9183 127.507 25.7096C127.097 26.5008 126.545 27.1449 125.851 27.6418C125.156 28.1386 124.356 28.4975 123.445 28.7183C122.538 28.9391 121.582 29.0495 120.574 29.0495C120.238 29.0495 119.824 29.0219 119.332 28.9621C118.84 28.9023 118.334 28.8149 117.823 28.7045C117.308 28.5895 116.825 28.4514 116.365 28.2858C115.9 28.1064 115.536 27.9178 115.256 27.7154Z" fill="#007ACC"/>
<path d="M142.239 27.8952C140.964 28.6589 139.455 29.0453 137.712 29.0453C135.352 29.0453 133.443 28.277 131.993 26.7405C130.544 25.2039 129.817 23.2119 129.817 20.7645C129.817 18.0364 130.599 15.8465 132.164 14.1904C133.728 12.5342 135.812 11.7061 138.425 11.7061C139.879 11.7061 141.162 11.9775 142.275 12.5158V15.2347C141.047 14.3698 139.731 13.942 138.328 13.942C136.635 13.942 135.246 14.5492 134.165 15.7637C133.084 16.9783 132.541 18.57 132.541 20.5436C132.541 22.485 133.052 24.017 134.068 25.1349C135.085 26.2528 136.456 26.8187 138.167 26.8187C139.612 26.8187 140.969 26.3402 142.243 25.3787V27.8952H142.239Z" fill="#007ACC"/>
<path d="M152.501 14.7724C152.036 14.4181 151.369 14.2387 150.495 14.2387C149.363 14.2387 148.416 14.7724 147.657 15.8397C146.898 16.907 146.516 18.3607 146.516 20.2055V28.6474H143.861V12.0857H146.516V15.4992H146.58C146.957 14.3353 147.533 13.4244 148.31 12.7758C149.087 12.1225 149.952 11.7959 150.914 11.7959C151.604 11.7959 152.133 11.8695 152.501 12.0213V14.7724Z" fill="#007ACC"/>
<path d="M155.547 7.8855C155.073 7.8855 154.668 7.72448 154.333 7.40245C153.997 7.08041 153.831 6.67097 153.831 6.17412C153.831 5.67727 153.997 5.26783 154.333 4.93659C154.668 4.60996 155.073 4.44434 155.547 4.44434C156.03 4.44434 156.444 4.60996 156.785 4.93659C157.125 5.26783 157.295 5.67727 157.295 6.17412C157.295 6.64797 157.125 7.05281 156.785 7.38865C156.444 7.71528 156.03 7.8855 155.547 7.8855ZM156.84 28.652H154.185V12.0903H156.84V28.652Z" fill="#007ACC"/>
<path d="M161.118 26.262H161.054V36.2727H158.399V12.0926H161.054V15.0047H161.118C162.425 12.8056 164.329 11.7061 166.846 11.7061C168.981 11.7061 170.646 12.4468 171.842 13.9282C173.038 15.4095 173.636 17.3969 173.636 19.8904C173.636 22.6599 172.965 24.8819 171.617 26.5473C170.269 28.2126 168.424 29.0453 166.087 29.0453C163.938 29.0407 162.282 28.116 161.118 26.262ZM161.054 19.5821V21.8962C161.054 23.2671 161.5 24.4264 162.388 25.3833C163.276 26.3402 164.408 26.8141 165.779 26.8141C167.384 26.8141 168.645 26.1976 169.556 24.9693C170.466 23.741 170.922 22.0296 170.922 19.8444C170.922 17.9996 170.494 16.555 169.643 15.5107C168.792 14.4664 167.637 13.942 166.183 13.942C164.642 13.942 163.4 14.4802 162.462 15.5521C161.523 16.6194 161.054 17.9628 161.054 19.5821Z" fill="#007ACC"/>
<path d="M183.568 28.4906C182.943 28.8356 182.119 29.0059 181.093 29.0059C178.195 29.0059 176.741 27.3865 176.741 24.1524V14.3533H173.894V12.0899H176.741V8.04612L179.396 7.19043V12.0899H183.568V14.3533H179.396V23.6831C179.396 24.7918 179.584 25.5877 179.962 26.0616C180.339 26.5354 180.964 26.7746 181.839 26.7746C182.506 26.7746 183.085 26.5906 183.568 26.2226V28.4906Z" fill="#007ACC"/>
<path d="M37.0093 0.444336H2.99065C1.33896 0.444336 0 1.7833 0 3.43499V37.4536C0 39.1053 1.33896 40.4443 2.99065 40.4443H37.0093C38.661 40.4443 40 39.1053 40 37.4536V3.43499C40 1.7833 38.661 0.444336 37.0093 0.444336Z" fill="#3178C6"/>
<path d="M22.9644 30.3938V34.8652C23.6915 35.2379 24.5516 35.5175 25.5445 35.7037C26.5374 35.8902 27.5842 35.9833 28.6843 35.9833C29.7565 35.9833 30.7748 35.8809 31.7401 35.6757C32.7049 35.4708 33.5509 35.1332 34.278 34.6626C35.0055 34.1923 35.5812 33.5773 36.0055 32.8181C36.4294 32.0592 36.6417 31.1205 36.6417 30.0028C36.6417 29.1923 36.5203 28.482 36.278 27.8716C36.0358 27.2615 35.6859 26.719 35.229 26.2439C34.7722 25.7687 34.2245 25.3426 33.586 24.965C32.9472 24.5878 32.2272 24.2315 31.4253 23.8962C30.838 23.654 30.3113 23.4188 29.8451 23.1904C29.3789 22.9624 28.9827 22.7295 28.6563 22.4917C28.33 22.2544 28.0784 22.0028 27.9012 21.7373C27.724 21.4719 27.6354 21.1714 27.6354 20.836C27.6354 20.5287 27.7146 20.2514 27.8731 20.0046C28.0316 19.7579 28.2552 19.5459 28.5445 19.3687C28.8335 19.1919 29.1875 19.0543 29.6073 18.9568C30.0268 18.8588 30.493 18.8099 31.0058 18.8099C31.3786 18.8099 31.7726 18.8379 32.1875 18.8936C32.6025 18.9497 33.0197 19.0357 33.4391 19.1523C33.8586 19.2686 34.2664 19.4155 34.6627 19.5923C35.0589 19.7695 35.4249 19.9743 35.7606 20.2072V16.0293C35.0799 15.7684 34.3363 15.5751 33.53 15.4491C32.7236 15.3235 31.7984 15.2607 30.7539 15.2607C29.6911 15.2607 28.6843 15.3747 27.7333 15.6031C26.7823 15.8312 25.9457 16.1874 25.223 16.6719C24.5004 17.1564 23.9292 17.7736 23.5098 18.5235C23.0903 19.2734 22.8806 20.1699 22.8806 21.2132C22.8806 22.5456 23.2649 23.682 24.0343 24.623C24.8036 25.5639 25.9711 26.3601 27.5374 27.0125C28.1528 27.2637 28.7262 27.5108 29.2574 27.753C29.789 27.9949 30.2481 28.2465 30.635 28.5074C31.0219 28.7684 31.3273 29.0525 31.5513 29.3598C31.7748 29.6674 31.8866 30.0166 31.8866 30.408C31.8866 30.6966 31.8167 30.9646 31.6769 31.2114C31.5371 31.4581 31.3251 31.6723 31.0406 31.854C30.7561 32.0357 30.4021 32.1777 29.9778 32.2801C29.5535 32.3826 29.0571 32.4342 28.4885 32.4342C27.5187 32.4342 26.5584 32.2641 25.6077 31.9239C24.6567 31.5841 23.7756 31.0738 22.9644 30.3938ZM15.5113 19.2663H21.2616V15.5844H5.23389V19.2663H10.9561V35.6596H15.5113V19.2663Z" fill="white"/>
</g>
<defs>
<clipPath id="clip0_780_10576">
<rect width="184" height="40" fill="white" transform="translate(0 0.444336)"/>
</clipPath>
</defs>
</svg>
