<svg width="151" height="46" viewBox="0 0 151 46" fill="none" xmlns="http://www.w3.org/2000/svg">
<g clip-path="url(#clip0_770_10173)">
<path d="M41.547 28.8971C39.1092 28.8971 36.8249 27.8649 34.7495 26.1848L35.2549 23.8129L35.2769 23.725C35.7269 21.1996 37.1545 16.9606 41.547 16.9606C44.8411 16.9606 47.5206 19.6401 47.5206 22.9343C47.5095 26.2176 44.8303 28.8971 41.547 28.8971ZM41.547 10.9103C35.9355 10.9103 31.5872 14.556 29.8194 20.5516C27.118 16.4995 25.0754 11.6351 23.8786 7.53906H17.8391V23.2527C17.8391 26.3494 15.3134 28.8748 12.2167 28.8748C9.12002 28.8748 6.59463 26.3494 6.59463 23.2527V7.53906H0.554497V23.2527C0.532524 29.6878 5.77051 34.9694 12.2053 34.9694C18.64 34.9694 23.8789 29.6878 23.8789 23.2527V20.6175C25.0537 23.0661 26.4922 25.5367 28.2383 27.7331L24.5375 45.1267H30.72L33.3992 32.5097C35.7491 34.0141 38.4506 34.9586 41.5473 34.9586C48.1687 34.9586 53.5605 29.534 53.5605 22.9123C53.5605 16.3018 48.1687 10.9103 41.5473 10.9103" fill="#6FDA44"/>
<path d="M71.997 11.5909L75.8952 27.3046L80.189 11.5909H85.306L78.7065 34.2995H73.5893L69.5375 18.4868L65.4963 34.2884H60.3793L53.7793 11.5801H58.8966L63.19 27.2937L67.0883 11.5801H71.9967L71.997 11.5909ZM97.5497 10.9101C90.9063 10.9101 85.5257 16.3016 85.5257 22.9341C85.5257 29.5777 90.9172 34.9584 97.5497 34.9584C104.193 34.9584 109.585 29.5777 109.585 22.9341C109.585 16.2907 104.193 10.9101 97.5497 10.9101ZM97.5497 30.0169C93.6406 30.0169 90.478 26.8543 90.478 22.9452C90.478 19.0361 93.6515 15.8735 97.5497 15.8735C101.459 15.8735 104.621 19.0358 104.621 22.9452C104.621 26.8435 101.459 30.0169 97.5497 30.0169ZM124.2 16.6751C120.764 16.6751 117.985 19.4642 117.985 22.8901V34.2884H112.835V11.5909H117.985V15.0828C117.985 15.0828 120.182 11.5798 124.695 11.5798H126.276V16.6751H124.2ZM141.485 22.0558C145.141 19.9912 147.623 16.071 147.623 11.5798H142.473C142.473 15.3682 139.398 18.4429 135.61 18.4429H134.918V0.631836H129.768V34.2881H134.918V23.593H135.533C136.038 23.593 136.697 23.9226 136.994 24.3286L144.307 34.2884H150.478L141.485 22.0558Z" fill="black"/>
</g>
<defs>
<clipPath id="clip0_770_10173">
<rect width="150" height="44.8242" fill="white" transform="translate(0.5 0.587891)"/>
</clipPath>
</defs>
</svg>
