<svg width="46" height="46" viewBox="0 0 46 46" fill="none" xmlns="http://www.w3.org/2000/svg">
<path d="M29.4423 25.2991C30.4777 25.6221 31.4698 26.0687 32.3968 26.6291L32.3374 26.5949C33.3503 27.0414 34.2254 27.5639 35.0238 28.1776L34.9951 28.1567C35.0347 28.2745 35.0551 28.4031 35.0564 28.5424L35.0544 28.6032V28.6013C35.0257 29.4164 34.8438 30.1821 34.5355 30.8794L34.5509 30.8395C34.1085 31.7192 33.3714 32.3975 32.4695 32.7585L32.4427 32.768C31.5101 33.2536 30.4778 33.5208 29.4251 33.5489H29.4136C27.4041 33.2945 25.4621 32.6612 23.6923 31.6831L23.7746 31.7249C21.8939 30.8795 20.1837 29.702 18.7273 28.2498L18.7254 28.2479C17.1371 26.6065 15.6968 24.8302 14.421 22.9393L14.331 22.7987C13.0673 21.1557 12.3332 19.1723 12.2248 17.1082L12.2228 17.0835V16.8479C12.2507 15.966 12.4593 15.0989 12.8359 14.2996C13.2125 13.5003 13.7492 12.7854 14.4133 12.1986L14.4191 12.1929C14.8292 11.7875 15.3816 11.5553 15.9605 11.545H15.9624C16.1551 11.5501 16.3415 11.5659 16.5215 11.5925L16.4966 11.5887C16.6632 11.6134 16.8566 11.6286 17.0557 11.6324H17.0614C17.3402 11.6052 17.62 11.6736 17.8542 11.8262L17.8503 11.8243C18.0552 12.0485 18.2122 12.3202 18.306 12.6185L18.3099 12.6337C18.4682 13.0264 18.7949 13.8903 19.2902 15.2253C19.5487 15.8219 19.8015 16.5572 20.0044 17.3134L20.0312 17.4331C19.8936 18.0946 19.5338 18.6901 19.0107 19.1222L19.0049 19.126C18.322 19.843 17.9805 20.299 17.9805 20.494C17.9883 20.6539 18.0421 20.8082 18.1356 20.9386L18.1337 20.9367C18.8731 22.4566 19.8972 23.8229 21.1514 24.9628L21.1609 24.9723C22.4745 26.1429 23.945 27.1275 25.5304 27.8983L25.6434 27.9477C25.8382 28.0711 26.0618 28.1425 26.2925 28.1548H26.2963C26.5938 28.1548 27.1286 27.6785 27.9009 26.726C28.6732 25.7735 29.1863 25.2972 29.4404 25.2972L29.4423 25.2991ZM23.4165 40.9095H23.4587C25.9731 40.9152 28.4608 40.398 30.7616 39.3914L30.6448 39.437C35.1559 37.5484 38.6733 34.0581 40.5307 29.7014L40.5766 29.5817C41.5148 27.467 42.0605 25.0008 42.0605 22.4092C42.0605 19.8176 41.5148 17.3514 40.5307 15.1189L40.5766 15.2367C38.6733 10.7604 35.1559 7.27006 30.7654 5.42706L30.6448 5.38146C28.5136 4.45046 26.0283 3.90897 23.4165 3.90897C20.8048 3.90897 18.3194 4.45046 16.0696 5.42706L16.1883 5.38146C11.6771 7.27006 8.15973 10.7603 6.30241 15.117L6.25646 15.2367C5.2701 17.5089 4.765 19.958 4.77252 22.432C4.76634 26.3438 6.02767 30.1539 8.37035 33.3L8.33397 33.2506L5.98839 40.1153L13.1726 37.8467C16.1737 39.8525 19.712 40.9193 23.3304 40.9095H23.4204H23.4165ZM23.4165 0.200174H23.4797C26.597 0.200174 29.561 0.849972 32.2397 2.02227L32.1 1.96717C37.5092 4.24146 41.7274 8.42715 43.9638 13.6502L44.0193 13.7946C45.1452 16.3349 45.8001 19.297 45.8001 22.4111C45.8001 25.5252 45.1452 28.4873 43.9638 31.1682L44.0193 31.0276C41.7274 36.3951 37.5092 40.5808 32.2455 42.8L32.1 42.8551C29.5591 43.9723 26.595 44.6221 23.4778 44.6221H23.4127H23.4165H23.3151C19.3726 44.6221 15.6713 43.5942 12.4699 41.7949L12.579 41.8519L0.200073 45.8001L4.2383 33.87C2.12991 30.4295 1.02065 26.4777 1.03299 22.451C1.03299 19.3236 1.68784 16.3482 2.86925 13.6521L2.81372 13.7946C5.10569 8.42716 9.3239 4.24146 14.5876 2.02227L14.7331 1.96717C17.4531 0.792804 20.389 0.191127 23.3553 0.200174H23.4165Z" fill="url(#paint0_linear_1312_7125)"/>
<defs>
<linearGradient id="paint0_linear_1312_7125" x1="45.8001" y1="23.0001" x2="0.200073" y2="23.0001" gradientUnits="userSpaceOnUse">
<stop stop-color="#2E245D"/>
<stop offset="1" stop-color="#604CC3"/>
</linearGradient>
</defs>
</svg>
