<svg width="151" height="34" viewBox="0 0 151 34" fill="none" xmlns="http://www.w3.org/2000/svg">
<g clip-path="url(#clip0_770_10188)">
<path d="M84.0685 0.476H93.2856L88.6429 33.524H79.4258L84.0685 0.476ZM72.3935 0.476L66.1805 19.516L63.4495 0.476H56.9634L48.7704 19.448L47.8145 0.544H38.8022L41.9429 33.592H49.3848L58.5337 12.648L61.7426 33.524H69.048L81.1327 0.476H72.3935ZM150.022 19.72H128.106C128.242 24.004 130.769 26.86 134.592 26.86C137.459 26.86 139.713 25.364 141.488 22.44L148.93 25.772C146.267 30.736 140.942 34 134.319 34C125.307 34 119.298 27.948 119.298 18.224C119.298 7.548 126.331 0 136.299 0C145.038 0 150.5 5.848 150.5 15.028C150.5 16.524 150.363 18.088 150.022 19.72ZM141.761 13.396C141.761 9.588 139.576 7.14 136.162 7.14C132.612 7.14 129.608 9.656 128.857 13.396H141.761ZM9.92194 10.472L0.5 21.42H17.3639L19.2756 16.252H12.0385L16.4763 11.152V11.016L13.6088 6.12H26.5127L16.4763 33.524H23.3038L35.3885 0.476H4.18685L9.92194 10.472ZM108.306 7.14C111.583 7.14 114.451 8.908 116.909 11.9L118.206 2.584C115.885 1.02 112.744 0.068 108.579 0.068C100.318 0.068 95.6752 4.896 95.6752 11.016C95.6752 15.232 98.0649 17.884 101.957 19.516L103.8 20.332C107.282 21.828 108.238 22.576 108.238 24.14C108.238 25.772 106.668 26.792 104.278 26.792C100.318 26.792 97.109 24.82 94.7194 21.352L93.3539 30.872C96.0849 32.98 99.6352 34.068 104.278 34.068C112.129 34.068 116.977 29.58 116.977 23.256C116.977 18.972 115.065 16.252 110.286 14.076L108.238 13.124C105.37 11.9 104.414 11.152 104.414 9.792C104.483 8.296 105.78 7.14 108.306 7.14Z" fill="#163300"/>
</g>
<defs>
<clipPath id="clip0_770_10188">
<rect width="150" height="34" fill="white" transform="translate(0.5)"/>
</clipPath>
</defs>
</svg>
