<svg width="196" height="41" viewBox="0 0 196 41" fill="none" xmlns="http://www.w3.org/2000/svg">
<mask id="mask0_780_10542" style="mask-type:luminance" maskUnits="userSpaceOnUse" x="0" y="0" width="196" height="41">
<path d="M196 0.444336H0V40.4443H196V0.444336Z" fill="white"/>
</mask>
<g mask="url(#mask0_780_10542)">
<path fill-rule="evenodd" clip-rule="evenodd" d="M59.9788 1.05176H5.58573C2.15728 1.05176 -0.65483 3.86478 -0.616308 7.29435V28.0644C-0.616308 31.494 2.15728 34.307 5.62426 34.307H31.357L43.1447 40.8579L40.4867 34.307H59.9788C63.4073 34.307 66.2194 31.5325 66.2194 28.0644V7.29435C66.1809 3.82625 63.4073 1.05176 59.9788 1.05176ZM4.43007 5.86858C3.65963 5.90711 3.0818 6.21539 2.69658 6.71634C2.31136 7.21728 2.1958 7.83384 2.27284 8.56599C3.89077 18.8161 5.39312 25.7138 6.77992 29.2975C7.31922 30.6077 7.93558 31.2243 8.70602 31.1857C9.86168 31.1086 11.2099 29.5287 12.8279 26.446C13.6754 24.7119 14.9851 22.0916 16.7571 18.5849C18.221 23.7486 20.2626 27.6405 22.8051 30.2224C23.4985 30.9545 24.2689 31.3013 24.9623 31.2243C25.5787 31.1857 26.0794 30.8389 26.4261 30.2224C26.6958 29.7214 26.8114 29.1049 26.7728 28.4112C26.6188 25.9065 26.8499 22.4384 27.5433 18.0069C28.2367 13.4213 29.1227 10.1074 30.2013 8.14211C30.4324 7.71823 30.5095 7.33289 30.471 6.83194C30.4324 6.21539 30.1243 5.6759 29.6235 5.29056C29.1227 4.90521 28.5449 4.67401 27.89 4.75108C27.081 4.78961 26.5032 5.17495 26.0794 5.94565C24.3845 9.02841 23.1903 14.0379 22.4584 20.9741C21.4183 18.3537 20.5323 15.271 19.8774 11.6487C19.5692 10.0303 18.8373 9.25962 17.6431 9.33668C16.8342 9.37522 16.1408 9.95324 15.6015 10.9936L9.63055 22.3998C8.62897 18.4308 7.70445 13.614 6.85696 7.87237C6.62583 6.40806 5.81687 5.75297 4.43007 5.86858ZM57.0897 7.83384C59.0158 8.25772 60.4796 9.29815 61.4427 10.9936C62.3287 12.4579 62.7524 14.2305 62.7524 16.3885C62.7524 19.2015 62.059 21.7833 60.6337 24.1339C58.9772 26.8698 56.8585 28.2186 54.2005 28.2186C53.7383 28.2186 53.2375 28.18 52.7367 28.0644C50.8106 27.6405 49.3467 26.6001 48.3837 24.9046C47.4977 23.4017 47.0739 21.5906 47.0739 19.5098C47.0739 16.6967 47.7673 14.1149 49.1927 11.8029C50.8491 9.06694 53.0063 7.71824 55.6258 7.71824C56.0496 7.6797 56.5504 7.71824 57.0897 7.83384ZM55.934 22.5925C56.9356 21.7062 57.629 20.3575 58.0142 18.5464C58.1298 17.9298 58.2068 17.2362 58.2068 16.5426C58.2068 15.7334 58.0527 14.8856 57.706 14.0379C57.2823 12.9589 56.743 12.3809 56.0881 12.2653C55.0865 12.0726 54.162 12.6121 53.2375 13.9608C52.5056 15.0012 52.0433 16.0802 51.7736 17.1977C51.6195 17.8142 51.581 18.5079 51.581 19.2015C51.581 20.0107 51.7351 20.8585 52.0818 21.7062C52.5056 22.7852 53.0449 23.3632 53.6997 23.4788C54.3931 23.633 55.125 23.3247 55.934 22.5925ZM44.3004 10.9936C43.2988 9.25962 41.8349 8.21919 39.9474 7.83384C39.4466 7.71824 38.9458 7.6797 38.4835 7.6797C35.864 7.6797 33.7453 9.02841 32.0504 11.7643C30.625 14.0764 29.9316 16.6582 29.9316 19.4712C29.9316 21.5906 30.3554 23.3632 31.2414 24.8661C32.243 26.6001 33.6683 27.6405 35.5944 28.0259C36.0952 28.1415 36.596 28.18 37.0582 28.18C39.7162 28.18 41.8349 26.8313 43.4914 24.0954C44.9167 21.7448 45.6101 19.1629 45.6101 16.3499C45.6101 14.2305 45.1864 12.4579 44.3004 10.9936ZM40.8719 18.5464C40.4867 20.3575 39.7933 21.7062 38.7917 22.5925C37.9827 23.2861 37.2508 23.5944 36.596 23.4788C35.9411 23.3247 35.4018 22.7852 34.978 21.7062C34.6313 20.8585 34.4772 20.0107 34.4772 19.2015C34.4772 18.5079 34.5158 17.8528 34.6699 17.1977C34.901 16.0802 35.3632 15.0012 36.1337 13.9608C37.0197 12.6121 37.9827 12.0726 38.9843 12.2653C39.6392 12.4194 40.1785 12.9589 40.6022 14.0379C40.9489 14.8856 41.103 15.7334 41.103 16.5426C41.0645 17.2362 41.026 17.9298 40.8719 18.5464Z" fill="#7F54B3"/>
<path fill-rule="evenodd" clip-rule="evenodd" d="M73.1147 10.7628C71.2656 12.5739 70.3796 14.8475 70.3796 17.6605C70.3796 20.6277 71.2656 23.0553 73.0762 24.905C74.8867 26.7546 77.2366 27.6795 80.1642 27.6795C81.0117 27.6795 81.9748 27.5253 83.0149 27.2556V22.8241C82.0518 23.0939 81.2428 23.248 80.5109 23.248C79.0471 23.248 77.93 22.747 77.0439 21.7837C76.1579 20.7818 75.7342 19.4716 75.7342 17.8146C75.7342 16.2732 76.1579 14.9631 77.0054 13.9997C77.8914 12.9978 78.9315 12.4969 80.2413 12.4969C81.0888 12.4969 81.9748 12.651 82.9763 12.9207V8.48932C82.0903 8.25811 81.0502 8.1425 80.0101 8.1425C77.2366 8.06543 74.9252 8.95173 73.1147 10.7628ZM92.0675 8.06543C89.5636 8.06543 87.599 8.91319 86.1737 10.5701C84.7483 12.2271 84.0549 14.5777 84.0549 17.5834C84.0549 20.8203 84.7483 23.3251 86.1737 25.0591C87.5605 26.7932 89.6021 27.6409 92.2987 27.6409C94.8796 27.6409 96.8828 26.7546 98.2696 25.0591C99.6564 23.3251 100.388 20.8974 100.388 17.7761C100.388 14.6548 99.6949 12.2657 98.2696 10.5701C96.7672 8.87466 94.7256 8.06543 92.0675 8.06543ZM94.2248 22.2461C93.724 23.0168 92.9921 23.4021 92.0675 23.4021C91.1815 23.4021 90.5266 23.0168 90.0644 22.2461C89.6021 21.4754 89.371 19.934 89.371 17.622C89.371 14.0382 90.257 12.2657 92.1061 12.2657C94.0322 12.2657 94.9952 14.0768 94.9952 17.699C94.9952 19.9726 94.7256 21.4754 94.2248 22.2461ZM113.871 8.56638L112.869 12.7281C112.638 13.807 112.369 14.886 112.176 16.0035L111.637 18.8936C111.136 16.0035 110.404 12.5739 109.518 8.52785H103.2L100.812 27.14H105.55L106.821 14.308L110.057 27.14H113.447L116.568 14.3465L117.916 27.14H122.885L120.381 8.52785H113.871V8.56638ZM136.599 8.56638L135.597 12.7281C135.366 13.807 135.097 14.886 134.904 16.0035L134.365 18.8936C133.864 16.0035 133.132 12.5739 132.246 8.52785H125.928L123.54 27.14H128.278L129.549 14.308L132.785 27.14H136.175L139.257 14.3465L140.605 27.14H145.575L143.071 8.52785H136.599V8.56638ZM152.085 19.8184H156.553V15.965H152.085V12.5354H157.208V8.56638H147.038V27.1785H157.208V23.2095H152.046V19.8184H152.085ZM171.384 16.8898C171.885 16.042 172.193 15.1557 172.193 14.2695C172.193 12.5354 171.5 11.1096 170.152 10.1078C168.803 9.10587 166.916 8.56638 164.566 8.56638H158.711V27.1785H163.718V18.7009H163.796L167.879 27.1785H173.195L169.15 18.778C170.113 18.3541 170.845 17.7376 171.384 16.8898ZM163.68 16.5815V12.1501C164.874 12.1886 165.722 12.3813 166.261 12.7666C166.762 13.1519 167.031 13.7685 167.031 14.6163C166.993 15.8879 165.876 16.543 163.68 16.5815ZM175.121 10.7628C173.31 12.5739 172.386 14.8475 172.386 17.6605C172.386 20.6277 173.272 23.0553 175.082 24.905C176.893 26.7546 179.243 27.6795 182.171 27.6795C183.018 27.6795 183.981 27.5253 185.021 27.2556V22.8241C184.058 23.0939 183.249 23.248 182.517 23.248C181.053 23.248 179.936 22.747 179.05 21.7837C178.164 20.7818 177.74 19.4716 177.74 17.8146C177.74 16.2732 178.164 14.9631 179.012 13.9997C179.898 12.9978 180.938 12.4969 182.248 12.4969C183.095 12.4969 183.981 12.651 184.983 12.9207V8.48932C184.097 8.25811 183.057 8.1425 182.016 8.1425C179.281 8.06543 176.97 8.95173 175.121 10.7628ZM191.416 23.1709V19.7799H195.884V15.9264H191.416V12.4969H196.578V8.52785H186.408V27.14H196.616V23.1709H191.416Z" fill="black"/>
</g>
</svg>
