<svg width="30" height="22" viewBox="0 0 30 22" fill="none" xmlns="http://www.w3.org/2000/svg">
<path d="M12 15.5L19.785 11L12 6.5V15.5ZM29.34 3.755C29.535 4.46 29.67 5.405 29.76 6.605C29.865 7.805 29.91 8.84 29.91 9.74L30 11C30 14.285 29.76 16.7 29.34 18.245C28.965 19.595 28.095 20.465 26.745 20.84C26.04 21.035 24.75 21.17 22.77 21.26C20.82 21.365 19.035 21.41 17.385 21.41L15 21.5C8.715 21.5 4.8 21.26 3.255 20.84C1.905 20.465 1.035 19.595 0.66 18.245C0.465 17.54 0.33 16.595 0.24 15.395C0.135 14.195 0.0899999 13.16 0.0899999 12.26L0 11C0 7.715 0.24 5.3 0.66 3.755C1.035 2.405 1.905 1.535 3.255 1.16C3.96 0.965 5.25 0.83 7.23 0.74C9.18 0.635 10.965 0.59 12.615 0.59L15 0.5C21.285 0.5 25.2 0.74 26.745 1.16C28.095 1.535 28.965 2.405 29.34 3.755Z" fill="url(#paint0_linear_772_10267)"/>
<defs>
<linearGradient id="paint0_linear_772_10267" x1="30" y1="11" x2="0" y2="11" gradientUnits="userSpaceOnUse">
<stop stop-color="#2E245D"/>
<stop offset="1" stop-color="#604CC3"/>
</linearGradient>
</defs>
</svg>
