<svg width="55" height="41" viewBox="0 0 55 41" fill="none" xmlns="http://www.w3.org/2000/svg">
<path d="M52.4843 7.84939C51.8846 5.59114 50.1175 3.81262 47.8739 3.20905C43.8071 2.1123 27.4999 2.1123 27.4999 2.1123C27.4999 2.1123 11.1928 2.1123 7.12592 3.20905C4.88228 3.81272 3.11522 5.59114 2.51547 7.84939C1.42578 11.9426 1.42578 20.4827 1.42578 20.4827C1.42578 20.4827 1.42578 29.0227 2.51547 33.1159C3.11522 35.3742 4.88228 37.0786 7.12592 37.6822C11.1928 38.7789 27.4999 38.7789 27.4999 38.7789C27.4999 38.7789 43.807 38.7789 47.8739 37.6822C50.1175 37.0786 51.8846 35.3742 52.4843 33.1159C53.574 29.0227 53.574 20.4827 53.574 20.4827C53.574 20.4827 53.574 11.9426 52.4843 7.84939ZM22.1665 28.2364V12.7289L35.7961 20.4828L22.1665 28.2364Z" fill="#FF0000"/>
</svg>
