<svg width="117" height="41" viewBox="0 0 117 41" fill="none" xmlns="http://www.w3.org/2000/svg">
<g clip-path="url(#clip0_780_10590)">
<path d="M108.147 8.09277C109.368 8.09277 110.507 8.44501 111.563 9.1495C112.644 9.85399 113.513 10.805 114.17 12.0027C114.828 13.2003 115.156 14.5388 115.156 16.0182C115.156 17.4742 114.828 18.801 114.17 19.9986C113.513 21.1963 112.644 22.1591 111.563 22.887C110.507 23.5915 109.368 23.9438 108.147 23.9438H101.665L102.018 23.3097V30.6012C102.018 31.2117 101.83 31.7284 101.454 32.1511C101.078 32.5503 100.585 32.7499 99.9746 32.7499C99.3875 32.7499 98.9061 32.5503 98.5304 32.1511C98.1547 31.7284 97.9668 31.2117 97.9668 30.6012V10.2415C97.9668 9.6309 98.1664 9.12602 98.5656 8.72681C98.9883 8.30411 99.5049 8.09277 100.115 8.09277H108.147ZM108.147 19.9282C108.593 19.9282 109.027 19.7403 109.45 19.3646C109.873 18.9888 110.225 18.5074 110.507 17.9204C110.789 17.3098 110.929 16.6758 110.929 16.0182C110.929 15.3372 110.789 14.7032 110.507 14.1161C110.225 13.5291 109.873 13.0594 109.45 12.7071C109.027 12.3314 108.593 12.1436 108.147 12.1436H101.595L102.018 11.5095V20.4918L101.63 19.9282H108.147Z" fill="#00549E"/>
<path d="M84.522 13.6224L76.9135 31.5164C76.7491 31.9626 76.4908 32.3148 76.1385 32.5732C75.8098 32.808 75.4458 32.9254 75.0466 32.9254C74.4125 32.9254 73.9429 32.7493 73.6376 32.397C73.3323 32.0448 73.1797 31.6103 73.1797 31.0937C73.1797 30.8824 73.2149 30.6593 73.2854 30.4245L82.0563 9.36025C82.2441 8.89059 82.5259 8.52661 82.9016 8.26829C83.3009 8.00998 83.7236 7.90431 84.1697 7.95127C84.5924 7.95127 84.9799 8.08043 85.3321 8.33874C85.7079 8.57357 85.9779 8.91408 86.1423 9.36025L94.8075 30.0018C94.9249 30.307 94.9837 30.5888 94.9837 30.8472C94.9837 31.4812 94.7723 31.9861 94.3496 32.3618C93.9504 32.7375 93.5042 32.9254 93.0111 32.9254C92.5884 32.9254 92.2009 32.7962 91.8487 32.5379C91.5199 32.2796 91.2616 31.9274 91.0737 31.4812L83.5005 13.8337L84.522 13.6224ZM78.0054 27.219L79.9428 23.1682H89.4534L90.1227 27.219H78.0054Z" fill="#00549E"/>
<path d="M69.2899 8.09277C69.8065 8.09277 70.3114 8.28063 70.8045 8.65636C71.3212 9.03209 71.5795 9.53697 71.5795 10.171C71.5795 10.6172 71.4151 11.0633 71.0863 11.5095L57.5954 28.84L57.1727 28.6991H68.9376C69.5482 28.6991 70.0531 28.8869 70.4523 29.2627C70.875 29.6149 71.0863 30.0963 71.0863 30.7069C71.0863 31.2939 70.875 31.7871 70.4523 32.1863C70.0531 32.562 69.5482 32.7499 68.9376 32.7499H53.4741C52.8635 32.7499 52.3352 32.5385 51.889 32.1158C51.4428 31.6697 51.2197 31.1883 51.2197 30.6716C51.2197 30.2255 51.3841 29.7793 51.7129 29.3331L65.2391 11.9322L65.5561 12.1436H54.8831C54.2725 12.1436 53.7559 11.9557 53.3332 11.58C52.934 11.2042 52.7344 10.7111 52.7344 10.1006C52.7344 9.49001 52.934 9.00861 53.3332 8.65636C53.7559 8.28063 54.2725 8.09277 54.8831 8.09277H69.2899Z" fill="#00549E"/>
<path d="M21.1976 40.4469C31.5687 40.4469 39.9762 32.0394 39.9762 21.6682C39.9762 11.2971 31.5687 2.88965 21.1976 2.88965C10.8264 2.88965 2.41895 11.2971 2.41895 21.6682C2.41895 32.0394 10.8264 40.4469 21.1976 40.4469Z" fill="url(#paint0_radial_780_10590)"/>
<path d="M1.56794 8.31405L16.4774 1.89935C16.5305 1.8757 16.5901 1.87149 16.646 1.88745C16.7018 1.90341 16.7503 1.93852 16.7829 1.98663L24.8412 13.4341C24.8663 13.4683 24.8831 13.5078 24.89 13.5496C24.8969 13.5914 24.8939 13.6343 24.8811 13.6747C24.8684 13.7151 24.8462 13.7519 24.8166 13.7821C24.7869 13.8124 24.7505 13.8352 24.7103 13.8487L22.5284 14.576C22.4883 14.5907 22.4522 14.6149 22.4233 14.6463C22.3943 14.6778 22.3733 14.7158 22.3619 14.757C22.3505 14.7982 22.3491 14.8416 22.3579 14.8835C22.3666 14.9254 22.3852 14.9646 22.4121 14.9978L28.7759 22.998C28.8041 23.0328 28.8231 23.074 28.8314 23.118C28.8396 23.162 28.8367 23.2074 28.823 23.25C28.8093 23.2926 28.7852 23.3311 28.7528 23.362C28.7204 23.393 28.6809 23.4153 28.6377 23.4271L25.8813 24.1035C25.8375 24.1143 25.7971 24.1361 25.7639 24.1666C25.7307 24.1971 25.7057 24.2355 25.6912 24.2783C25.6767 24.321 25.6732 24.3667 25.681 24.4111C25.6888 24.4556 25.7076 24.4973 25.7358 24.5326L35.1324 36.402C35.1705 36.4484 35.1914 36.5064 35.1918 36.5664C35.1922 36.6264 35.1719 36.6847 35.1344 36.7316C35.0969 36.7785 35.0445 36.811 34.9859 36.8238C34.9272 36.8366 34.866 36.8289 34.8124 36.802L13.721 24.6271C13.6781 24.6015 13.6432 24.5644 13.6202 24.52C13.5972 24.4756 13.587 24.4257 13.5908 24.3759C13.5946 24.3261 13.6122 24.2783 13.6416 24.2379C13.671 24.1974 13.7111 24.166 13.7573 24.1471L16.3028 23.1362C16.3466 23.1174 16.3845 23.0873 16.4128 23.049C16.4411 23.0107 16.4587 22.9656 16.4639 22.9183C16.4691 22.871 16.4616 22.8231 16.4423 22.7796C16.4229 22.7361 16.3924 22.6986 16.3538 22.6707L7.78628 16.4888C7.74957 16.4597 7.72084 16.4218 7.70277 16.3787C7.68471 16.3355 7.6779 16.2885 7.68299 16.2419C7.68808 16.1954 7.70489 16.151 7.73186 16.1127C7.75883 16.0745 7.79507 16.0437 7.83719 16.0233L9.7936 15.1651C9.83685 15.1455 9.87416 15.1149 9.90174 15.0762C9.92931 15.0376 9.94617 14.9923 9.95061 14.945C9.95504 14.8978 9.94688 14.8502 9.92697 14.8071C9.90706 14.764 9.8761 14.7269 9.83723 14.6996L1.51703 8.77952C1.47841 8.75168 1.44787 8.7141 1.42852 8.67061C1.40916 8.62712 1.40169 8.57927 1.40687 8.53195C1.41204 8.48463 1.42968 8.43953 1.45798 8.40125C1.48628 8.36297 1.52422 8.33288 1.56794 8.31405Z" fill="white"/>
<path d="M16.5718 1.89894C16.6132 1.89861 16.654 1.90838 16.6908 1.92739C16.7275 1.9464 16.7591 1.97408 16.7827 2.00804L24.8411 13.4337C24.8662 13.4679 24.8829 13.5074 24.8898 13.5492C24.8968 13.591 24.8937 13.6339 24.881 13.6743C24.8682 13.7147 24.8461 13.7515 24.8164 13.7817C24.7867 13.812 24.7503 13.8348 24.7102 13.8483L22.5283 14.5756C22.4882 14.5903 22.4521 14.6145 22.4231 14.6459C22.3942 14.6774 22.3731 14.7153 22.3618 14.7566C22.3504 14.7978 22.349 14.8412 22.3577 14.8831C22.3665 14.9249 22.385 14.9641 22.412 14.9974L28.7757 22.9976C28.8039 23.0324 28.823 23.0736 28.8312 23.1176C28.8395 23.1616 28.8366 23.207 28.8229 23.2496C28.8092 23.2922 28.785 23.3307 28.7527 23.3616C28.7203 23.3925 28.6807 23.4149 28.6376 23.4267L25.8811 24.1031C25.8373 24.1139 25.797 24.1356 25.7638 24.1662C25.7306 24.1967 25.7056 24.2351 25.6911 24.2779C25.6766 24.3206 25.6731 24.3663 25.6809 24.4107C25.6887 24.4552 25.7075 24.4969 25.7357 24.5322L35.1323 36.4016C35.1631 36.4402 35.1826 36.4866 35.1888 36.5357C35.1949 36.5847 35.1875 36.6345 35.1672 36.6796C35.1469 36.7247 35.1146 36.7633 35.0738 36.7913C35.033 36.8192 34.9853 36.8353 34.9359 36.8379C34.8955 36.8499 34.8526 36.8499 34.8123 36.8379L13.7208 24.6631C13.6779 24.6374 13.6431 24.6003 13.6201 24.556C13.5971 24.5116 13.5869 24.4617 13.5907 24.4118C13.5945 24.362 13.612 24.3142 13.6414 24.2738C13.6709 24.2334 13.7109 24.202 13.7572 24.1831L16.3027 23.1721C16.3464 23.1533 16.3844 23.1232 16.4127 23.0849C16.441 23.0467 16.4586 23.0016 16.4638 22.9542C16.469 22.9069 16.4615 22.8591 16.4421 22.8156C16.4228 22.7721 16.3922 22.7345 16.3536 22.7067L7.78615 16.5247C7.74944 16.4957 7.72071 16.4578 7.70264 16.4146C7.68458 16.3715 7.67777 16.3244 7.68286 16.2779C7.68795 16.2314 7.70476 16.1869 7.73173 16.1487C7.7587 16.1104 7.79494 16.0797 7.83706 16.0592L9.79347 15.201C9.83672 15.1815 9.87403 15.1508 9.90161 15.1122C9.92918 15.0735 9.94604 15.0283 9.95048 14.981C9.95491 14.9337 9.94675 14.8861 9.92684 14.843C9.90693 14.7999 9.87597 14.7628 9.8371 14.7356L1.5169 8.77911C1.47828 8.75128 1.44774 8.71369 1.42839 8.6702C1.40903 8.62671 1.40156 8.57886 1.40674 8.53154C1.41191 8.48422 1.42955 8.43912 1.45785 8.40084C1.48615 8.36256 1.52409 8.33247 1.56781 8.31364L16.4773 1.89894C16.5084 1.89226 16.5407 1.89226 16.5718 1.89894ZM16.5718 0.444357C16.3439 0.443194 16.1184 0.490289 15.91 0.582542L1.0078 6.98997C0.736165 7.10949 0.500855 7.29853 0.32561 7.53802C0.150365 7.77752 0.0413859 8.059 0.00966645 8.35406C-0.022053 8.64913 0.0246097 8.94734 0.144947 9.21861C0.265284 9.48988 0.455038 9.72462 0.695066 9.89913L7.35704 14.641L7.25522 14.6847C6.98737 14.8082 6.75622 14.9992 6.58444 15.239C6.41266 15.4787 6.30615 15.7591 6.27535 16.0524C6.24455 16.3457 6.29052 16.6421 6.40875 16.9123C6.52698 17.1825 6.71341 17.4174 6.94976 17.5938L13.8081 22.5903L13.219 22.823C12.9258 22.9421 12.6717 23.1409 12.4857 23.3969C12.2996 23.6529 12.189 23.9559 12.1663 24.2716C12.1436 24.5872 12.2097 24.9029 12.3572 25.1829C12.5047 25.4629 12.7276 25.696 13.0008 25.8558L34.0922 38.0307C34.3454 38.1803 34.6345 38.2582 34.9286 38.2561C35.2445 38.2536 35.5534 38.1623 35.82 37.9929C36.0866 37.8234 36.3003 37.5824 36.4367 37.2975C36.5732 37.0125 36.6268 36.695 36.5917 36.381C36.5565 36.067 36.4338 35.7692 36.2377 35.5215L27.9757 25.0413L29.0012 24.794C29.2725 24.7268 29.5228 24.5933 29.7298 24.4054C29.9367 24.2175 30.0937 23.9812 30.1867 23.7176C30.2763 23.4488 30.2979 23.162 30.2497 22.8828C30.2014 22.6037 30.0849 22.3407 29.9103 22.1176L24.572 15.3829L25.1466 15.1938C25.397 15.1142 25.6251 14.9766 25.8122 14.792C25.9993 14.6075 26.14 14.3813 26.223 14.1319C26.3059 13.8801 26.3294 13.6124 26.2915 13.3499C26.2537 13.0874 26.1555 12.8373 26.0048 12.6192L17.9391 1.17165C17.7867 0.949188 17.5828 0.766872 17.3447 0.640236C17.1066 0.5136 16.8415 0.446398 16.5718 0.444357Z" fill="black"/>
</g>
<defs>
<radialGradient id="paint0_radial_780_10590" cx="0" cy="0" r="1" gradientUnits="userSpaceOnUse" gradientTransform="translate(21.1976 21.6682) scale(18.7786)">
<stop stop-color="#4389FF"/>
<stop offset="1" stop-color="#00549E"/>
</radialGradient>
<clipPath id="clip0_780_10590">
<rect width="117" height="40" fill="white" transform="translate(0 0.444336)"/>
</clipPath>
</defs>
</svg>
